<svg xmlns="http://www.w3.org/2000/svg" width="24" height="24" viewBox="0 0 24 24"><g fill="none" fill-rule="evenodd"><path fill="#4C566C" fill-rule="nonzero" d="M18.51 7l-3.426-3.5C14.79 3.2 14.4 3 13.81 3H6.47c-.295 0-.687.1-.98.4-.294.3-.49.7-.49 1.1v15c0 .4.196.8.49 1.1.293.3.685.4.98.4h11.06c.295 0 .687-.1.98-.4.294-.3.49-.7.49-1.1V8.2c0-.5-.196-.9-.49-1.2zm-2.84 3.9l-3.23 3.3-.978 1c-.196.1-.392.1-.49.1-.098 0-.196 0-.294-.1-.098-.1-.195-.1-.195-.2l-2.448-2.3c-.098-.1-.098-.2-.098-.4s.098-.4.196-.5c.098-.1.39-.4.49-.5.195-.2.587-.2.783 0l2.056 2.1 3.23-3.3c.098-.1.196-.1.392-.1s.392 0 .49.1c.097.1.195.2.195.4s0 .3-.1.4z"/></g></svg>
