<svg width="80" height="80" viewBox="0 0 80 80" xmlns="http://www.w3.org/2000/svg"><path fill-rule="evenodd" clip-rule="evenodd" d="M48 36.5V40h-7v-3.5c0-2 1.6-3.5 3.5-3.5s3.5 1.6 3.5 3.5zm16-8.3v27.7c0 2.3-1.8 4.1-4 4.1H20c-2.2 0-4-1.8-4-4.1V26.7c0-1.4 1.1-2.6 2.5-2.6s2.5 1.1 2.5 2.6v26.2c0 1.1.9 2.1 2 2.1s2-.9 2-2.1V22.3c0-1.3 1-2.3 2.2-2.3h10.6c1.2 0 2.2 1 2.2 2.3V24h20c2.2 0 4 1.9 4 4.2zM54 42c0-1.1-.9-2-2-2h-1v-3.5c0-3.6-2.9-6.5-6.5-6.5S38 32.9 38 36.5V40h-1c-1.1 0-2 .9-2 2v10c0 1.1.9 2 2 2h15c1.1 0 2-.9 2-2V42zm-8 2h-3v7h3v-7z"/></svg>