<svg id="Layer_1" xmlns="http://www.w3.org/2000/svg" viewBox="0 0 80 80"><style>.st0{fill:#272b37}</style><path d="M52.8 41.1c.8-.8.8-2 0-2.8l-8.5-8.5c-.8-.8-2.1-.8-2.8 0s-.8 2.1 0 2.8l8.5 8.5c.7.8 2 .8 2.8 0z"/><path d="M52.8 38.3c-.8-.8-2-.8-2.8 0l-8.5 8.5c-.8.8-.8 2.1 0 2.8.8.8 2.1.8 2.8 0l8.5-8.5c.8-.8.8-2 0-2.8zM39.7 41.1c.8-.8.8-2 0-2.8l-8.5-8.5c-.8-.8-2.1-.8-2.8 0s-.8 2.1 0 2.8l8.5 8.5c.8.8 2 .8 2.8 0z"/><path d="M39.7 38.3c-.8-.8-2-.8-2.8 0l-8.5 8.5c-.8.8-.8 2.1 0 2.8.8.8 2.1.8 2.8 0l8.5-8.5c.8-.8.8-2 0-2.8z"/></svg>