<svg id="Layer_1" xmlns="http://www.w3.org/2000/svg" viewBox="0 0 80 80"><style>.st0{fill:#262b36}</style><g id="atmark"><path d="M38.7,59.4c-11.1-0.3-19.2-8.7-19.2-20c0-12,8.7-20.8,20.8-20.8c13.1,0,20.2,10.1,20.2,19.7 c0,3.9-0.9,7.2-2.5,9.6c-1.6,2.2-3.8,3.5-6.2,3.5c-3.1,0-6.3-2.4-6.3-7V29.9c0-1.2,1-2.2,2.2-2.2c1.2,0,2.2,1,2.2,2.2v14.6 c0,1.6,0.7,2.6,1.9,2.6c0.9,0,1.8-0.6,2.6-1.6c0.8-1.1,1.7-3.2,1.7-7c0-7.4-5.5-15.3-15.8-15.3c-9.6,0-16.3,6.7-16.3,16.3 c0,8.8,6.2,15.3,14.8,15.5c4.6,0,7.4-1.2,9.1-1.9c1.1-0.5,2.4,0,2.9,1.2c0.5,1.1,0,2.4-1.2,2.9C47.7,57.9,44.3,59.4,38.7,59.4z"/><path d="M38.9,50.1c-4.7,0-9.6-2.8-9.6-10.7c0-6.3,4-10.7,9.6-10.7c5.3,0,9.6,4.8,9.6,10.7 C48.6,45.4,44.3,50.1,38.9,50.1z M38.9,33.1c-3.2,0-5.2,2.4-5.2,6.3c0,4.2,1.8,6.3,5.2,6.3c3,0,5.2-2.7,5.2-6.3 C44.1,35.9,41.8,33.1,38.9,33.1z"/></g></svg>