<svg width="80" height="80" viewBox="0 0 80 80" xmlns="http://www.w3.org/2000/svg"><path d="M57.9 25.9l5.7-5.7c.8-.8.8-2.1 0-2.8-.8-.8-2.1-.8-2.8 0l-5.7 5.7-5.7-5.7c-.8-.8-2.1-.8-2.8 0-.8.8-.8 2.1 0 2.8l5.7 5.7-5.7 5.7c-.8.8-.8 2.1 0 2.8.8.8 2 .8 2.8 0l5.7-5.7 5.7 5.7c.8.8 2.1.8 2.8 0 .8-.8.8-2 0-2.8l-5.7-5.7z"/><path d="M62.2 38c-1.3 0-2.6-.5-3.5-1.5L55.1 33l-3.5 3.5c-.5.5-1.2.9-1.9 1.2.2.8.3 1.5.3 2.3 0 5.5-4.5 10-10 10s-10-4.5-10-10 4.5-10 10-10c1.3 0 2.5.2 3.6.7.2-.4.5-.9.9-1.2L48 26l-.4-.4c-2.4-.9-5-1.5-7.6-1.5-9.9 0-18.9 7.9-22.7 12.6-.8 1-1.3 2.1-1.3 3.3 0 1.2.5 2.3 1.3 3.4C21.1 48.1 30.1 56 40 56s18.9-7.9 22.7-12.6c.8-1.1 1.3-2.2 1.3-3.4 0-.7-.2-1.5-.6-2.2-.4.1-.8.2-1.2.2zM42 34.3c-.6-.2-1.3-.3-2-.3-3.3 0-6 2.7-6 6s2.7 6 6 6 6-2.7 6-6c-1 .6-1.5 1-2.5 1-1.9 0-3.5-1.6-3.5-3.5 0-1.4.8-2.6 2-3.2z"/></svg>