<svg xmlns="http://www.w3.org/2000/svg" viewBox="0 0 80 80"><path d="M58 15H22c-1.1 0-2 .9-2 2v46c0 1.1.9 2 2 2h13v-9c0-1.1 1.1-2 2.5-2h5c1.4 0 2.5.9 2.5 2v9h13c1.1 0 2-.9 2-2V17c0-1.1-.9-2-2-2zM37 43c0 1.1-.9 2-2 2h-5c-1.1 0-2-.9-2-2v-5c0-1.1.9-2 2-2h5c1.1 0 2 .9 2 2v5zm0-15c0 1.1-.9 2-2 2h-5c-1.1 0-2-.9-2-2v-5c0-1.1.9-2 2-2h5c1.1 0 2 .9 2 2v5zm15 15c0 1.1-.9 2-2 2h-5c-1.1 0-2-.9-2-2v-5c0-1.1.9-2 2-2h5c1.1 0 2 .9 2 2v5zm0-15c0 1.1-.9 2-2 2h-5c-1.1 0-2-.9-2-2v-5c0-1.1.9-2 2-2h5c1.1 0 2 .9 2 2v5z"/></svg>