<svg width="80" height="80" viewBox="0 0 80 80" xmlns="http://www.w3.org/2000/svg"><path d="M53.5 21h-27c-.8 0-1.5.7-1.5 1.5V57c0 .8.7 2 1.5 2H36v-7.2c0-.8 1.1-1.8 2.1-1.8h3.8c1 0 2.1.9 2.1 1.8V59h9.5c.8 0 1.5-1.2 1.5-2V22.5c0-.8-.7-1.5-1.5-1.5zM38 42.5c0 .8-.7 1.5-1.5 1.5h-4c-.8 0-1.5-.7-1.5-1.5v-4c0-.8.7-1.5 1.5-1.5h4c.8 0 1.5.7 1.5 1.5v4zm0-11c0 .8-.7 1.5-1.5 1.5h-4c-.8 0-1.5-.7-1.5-1.5v-4c0-.8.7-1.5 1.5-1.5h4c.8 0 1.5.7 1.5 1.5v4zm11 11c0 .8-.7 1.5-1.5 1.5h-4c-.8 0-1.5-.7-1.5-1.5v-4c0-.8.7-1.5 1.5-1.5h4c.8 0 1.5.7 1.5 1.5v4zm0-11c0 .8-.7 1.5-1.5 1.5h-4c-.8 0-1.5-.7-1.5-1.5v-4c0-.8.7-1.5 1.5-1.5h4c.8 0 1.5.7 1.5 1.5v4z"/></svg>