<svg id="Layer_1" xmlns="http://www.w3.org/2000/svg" viewBox="0 0 80 80"><style>.st0{fill-rule:evenodd;clip-rule:evenodd}</style><path d="M58,15H22c-1.1,0-2,0.9-2,2v46c0,1.1,0.9,2,2,2h13v-9c0-1.1,1.1-2,2.5-2h5c1.4,0,2.5,0.9,2.5,2v9h13 c1.1,0,2-0.9,2-2V17C60,15.9,59.1,15,58,15z M37,43c0,1.1-0.9,2-2,2h-5c-1.1,0-2-0.9-2-2v-5c0-1.1,0.9-2,2-2h5c1.1,0,2,0.9,2,2V43z M37,28c0,1.1-0.9,2-2,2h-5c-1.1,0-2-0.9-2-2v-5c0-1.1,0.9-2,2-2h5c1.1,0,2,0.9,2,2V28z M52,43c0,1.1-0.9,2-2,2h-5c-1.1,0-2-0.9-2-2 v-5c0-1.1,0.9-2,2-2h5c1.1,0,2,0.9,2,2V43z M52,28c0,1.1-0.9,2-2,2h-5c-1.1,0-2-0.9-2-2v-5c0-1.1,0.9-2,2-2h5c1.1,0,2,0.9,2,2V28z"/></svg>