<svg xmlns="http://www.w3.org/2000/svg" viewBox="0 0 80 80"><path d="M17 59c0 2.2 1.8 4 4 4h40c2.2 0 4-1.8 4-4V24c0-2.2-1.8-4-4-4h-4v-2.5c0-1.4-1.1-2.5-2.5-2.5S52 16.1 52 17.5V20h-4v-2.5c0-1.4-1.1-2.5-2.5-2.5S43 16.1 43 17.5V20h-4v-2.5c0-1.4-1.1-2.5-2.5-2.5S34 16.1 34 17.5V20h-4v-2.5c0-1.4-1.1-2.5-2.5-2.5S25 16.1 25 17.5V20h-4c-2.2 0-4 1.8-4 4v35zm7.2-34h.8v3.5c0 1.4 1.1 2.5 2.5 2.5s2.5-1.1 2.5-2.5V25h4v3.5c0 1.4 1.1 2.5 2.5 2.5s2.5-1.1 2.5-2.5V25h4v3.5c0 1.4 1.1 2.5 2.5 2.5s2.5-1.1 2.5-2.5V25h4v3.5c0 1.4 1.1 2.5 2.5 2.5s2.5-1.1 2.5-2.5V25h.8c1.2 0 2.2 1 2.2 2.2v10.6c0 1.2-1 2.2-2.2 2.2H24.2C23 40 22 39 22 37.8V27.2c0-1.2 1-2.2 2.2-2.2z"/></svg>