<svg xmlns="http://www.w3.org/2000/svg" viewBox="0 0 80 80"><style>.st0,.st1{fill:#231f20}.st1{fill-rule:evenodd;clip-rule:evenodd}</style><path d="M35.6 54.2c-2.7 0-4.7-.9-6.1-2.8s-2-4.3-2-7.4c0-3.1.7-5.5 2-7.4 1.3-1.8 3.4-2.8 6.1-2.8 2.7 0 4.7.9 6.1 2.8 1.3 1.8 2 4.3 2 7.4 0 3.1-.7 5.5-2 7.4-1.3 1.9-3.4 2.8-6.1 2.8zm-2.8-14.8c-.6 1.2-.9 2.8-.9 4.7s.3 3.5.9 4.7c.6 1.2 1.6 1.8 2.9 1.8s2.3-.6 2.9-1.8c.6-1.2.9-2.8.9-4.7s-.3-3.5-.9-4.7c-.6-1.2-1.6-1.8-2.9-1.8s-2.3.6-2.9 1.8zm12.8-5h7.9V54h-4.2V38.2h-3.7v-3.8z"/><path d="M17 59c0 2.2 1.8 4 4 4h40c2.2 0 4-1.8 4-4V24c0-2.2-1.8-4-4-4h-4v-2.5c0-1.4-1.1-2.5-2.5-2.5S52 16.1 52 17.5V20h-4v-2.5c0-1.4-1.1-2.5-2.5-2.5S43 16.1 43 17.5V20h-4v-2.5c0-1.4-1.1-2.5-2.5-2.5S34 16.1 34 17.5V20h-4v-2.5c0-1.4-1.1-2.5-2.5-2.5S25 16.1 25 17.5V20h-4c-2.2 0-4 1.8-4 4v35zm7.2-34h.8v3.5c0 1.4 1.1 2.5 2.5 2.5s2.5-1.1 2.5-2.5V25h4v3.5c0 1.4 1.1 2.5 2.5 2.5s2.5-1.1 2.5-2.5V25h4v3.5c0 1.4 1.1 2.5 2.5 2.5s2.5-1.1 2.5-2.5V25h4v3.5c0 1.4 1.1 2.5 2.5 2.5s2.5-1.1 2.5-2.5V25h.8c1.2 0 2.2 1 2.2 2.2v28.6c0 1.2-1 2.2-2.2 2.2H24.2C23 58 22 57 22 55.8V27.2c0-1.2 1-2.2 2.2-2.2z"/></svg>