<svg width="80" height="80" viewBox="0 0 80 80" xmlns="http://www.w3.org/2000/svg"><title>ICON-1</title><path d="M53.4441594,59.2779203 C58.9952949,57.4181055 63,52.1740533 63,45.9954857 L63,28.0045143 C63,20.2756272 56.7299654,14 48.9954857,14 L31.0045143,14 C23.2756272,14 17,20.2700346 17,28.0045143 L17,45.9954857 C17,53.7243728 23.2700346,60 31.0045143,60 L40,60 L40,66 L53.4441594,59.2779203 L53.4441594,59.2779203 Z M49.7065149,40.3037745 L46.865608,40.652594 L46.5,37.6749555 L54.4403692,36.7000008 L54.6231732,38.18882 L54.6231732,38.18882 L55.415324,44.64037 L52.4376855,45.005978 L52.0795499,42.0891974 C50.0313175,44.7480081 45.842435,49 40,49 C32.5,49 28,43 28,43 L30.5,41 C30.5,41 33.5,46 40,46 C44.4257831,46 47.9243446,42.5229191 49.7065149,40.3037745 L49.7065149,40.3037745 Z" fill-rule="evenodd"/></svg>