<svg width="24" height="24" viewBox="0 0 24 24" xmlns="http://www.w3.org/2000/svg"><path d="M17.657 5.843c1.759 1.759 1.79 4.574.07 6.293l-5.94 5.94c-1.25 1.25-3.297 1.227-4.576-.051-1.279-1.279-1.302-3.327-.051-4.577l4.808-4.809c.78-.78 2.062-.766 2.86.033.799.798.813 2.08.033 2.86l-4.243 4.243-1.157-1.157 4.293-4.294c.312-.311-.267-.89-.578-.578l-4.86 4.859c-.622.622-.61 1.652.026 2.288.637.637 1.667.648 2.289.026l5.94-5.94c1.091-1.091 1.071-2.888-.046-4.004-1.116-1.117-2.913-1.137-4.004-.045l-5.374 5.374-1.157-1.158 5.374-5.374c1.72-1.72 4.534-1.688 6.293.071z" fill-rule="evenodd"/></svg>