<svg xmlns="http://www.w3.org/2000/svg" viewBox="0 0 80 80"><path d="M53.8 50c-.1 2-1.5 3.6-4 5.1-5.4 3.1-14.1 2.9-19.5-.3-2.6-1.5-3.9-2.8-4.1-4.8h-.1v7h.1c.1 2 1.5 3.6 4.1 5.1 5.4 3.1 14.2 3.3 19.5.1 2.6-1.5 3.9-3.2 4-5.2v-7zm0-23c-.7-1.7-2-3.3-4.2-4.5-5.4-3.1-14.1-3.1-19.4 0-2.1 1.2-3.5 2.8-4 4.5h-.1v8h.1c.1 1.9 1.5 3.9 4.1 5.4 5.4 3.1 14.2 3.1 19.5 0 2.6-1.5 3.9-3.4 4-5.4v-8zm-5 6.1c-4.8 2.8-12.6 2.8-17.4 0-2.1-1.2-3.3-2.8-3.3-4.5 0-1.6 1.2-3.2 3.3-4.4 2.4-1.4 5.5-2.1 8.7-2.1 3.1 0 6.3.7 8.7 2.1 2.2 1.2 3.3 2.8 3.3 4.5-.1 1.6-1.2 3.2-3.3 4.4zm5 5.9c-.1 2-1.5 3.6-4 5.1-5.4 3.1-14.1 2.9-19.5-.3-2.6-1.5-3.9-2.8-4.1-4.8h-.1v7h.1c.1 2 1.5 3.6 4.1 5.1 5.4 3.1 14.2 3.3 19.5.1 2.6-1.5 3.9-3.2 4-5.2v-7z"/></svg>