<svg height="24" viewBox="0 0 24 24" width="24" xmlns="http://www.w3.org/2000/svg"><path d="M20.293 14.251c-.307-.972-1.023-1.279-2.046-1.893-.256-.153-.512-.358-.768-.46v-.205c.307-.102.614-.205.87-.358 1.125-.665 1.79-1.382 1.995-2.251V4.53c-.307-.972-1.023-1.688-2.046-2.302-2.763-1.586-7.214-1.535-9.926.051-1.074.614-1.79 1.33-2.046 2.354h-.052v2.25c-.358.154-.665.359-.972.512-1.074.614-1.79 1.33-2.046 2.354h-.051v4.042h.05c.052 1.023.768 1.995 2.098 2.762.307.154.614.256.973.359v1.483h.05c.052 1.024.768 2.303 2.098 3.07 2.763 1.586 7.266 1.433 9.977-.153 1.126-.665 1.79-1.586 1.996-2.456V14.25zM8.833 2.995c1.227-.716 2.814-1.074 4.45-1.074 1.587 0 3.224.358 4.452 1.074 1.125.614 1.688 1.433 1.688 2.303 0 .818-.614 1.637-1.688 2.25-2.456 1.433-6.447 1.433-8.902 0-1.075-.613-1.689-1.432-1.689-2.301 0-.82.614-1.587 1.689-2.252zm-3.07 9.824c-1.075-.614-1.689-1.433-1.689-2.303 0-.818.614-1.637 1.689-2.25.153-.103.307-.154.46-.206v.614h.051c.052 1.024.768 1.893 2.098 2.66 1.944 1.126 4.758 1.433 7.163.973-.205.205-.512.358-.819.563-2.507 1.381-6.497 1.381-8.953-.051zm11.972 5.27c-2.456 1.432-6.447 1.432-8.902 0-.359-.205-.666-.461-.921-.666 2.455.46 5.32.205 7.316-.92 1.33-.768 1.995-1.689 2.046-2.712h.154v-.358c.102.05.205.102.256.153 1.125.614 1.688 1.433 1.688 2.302.051.768-.563 1.586-1.637 2.2z"/></svg>