<svg xmlns="http://www.w3.org/2000/svg" viewBox="0 0 80 80"><circle fill="#262B36" cx="30" cy="33" r="8"/><circle fill="#262B36" cx="30" cy="33" r="8"/><path fill="#262B36" d="M44.3 47c-.2-1.1-1.2-2.2-2.2-2.6l-3.2-1c-1-.3-2.7-.2-3.7.3 0 0-2.6 1.3-5.2 1.3s-5.2-1.3-5.2-1.3c-1-.5-2.6-.6-3.7-.3l-3.2 1c-1 .3-2.1 1.5-2.2 2.6l-1.4 8c-.2 1.1.6 2 1.7 2h28c1.1 0 1.9-.9 1.7-2l-1.4-8zm28.4-15.5c-.8-.8-2.1-.8-2.8 0L57.2 44.2l-7.1-7.1c-.8-.8-2.1-.8-2.8 0-.8.8-.8 2.1 0 2.8l8.5 8.5c.8.8 2.1.8 2.8 0l14.1-14.1c.8-.7.8-2 0-2.8z"/></svg>