<svg id="Layer_1" xmlns="http://www.w3.org/2000/svg" viewBox="0 0 80 80"><style>.st0{fill:#231f20}</style><path d="M60.5,47.2H50.1v-4H60c0.1-0.3,0.2-0.8,0.2-1.5V18.5H37c-0.7,0-1.2,0.1-1.5,0.2v11.7h-4V18.2 c0-0.9,0.4-3.7,5.5-3.7h23.5c2.6,0,3.7,1.1,3.7,3.7v23.5C64.2,46.8,61.4,47.2,60.5,47.2z"/><path d="M12.1,50.8c-1,0.8-1.1,2.2-0.3,3.2l8.8,10.5c0.8,1,2.3,1.1,3.2,0.3l21.6-18.1c0.6-0.5,0.9-1.3,1.1-2.1l3.1-10.2 c0.5-1.8-1.2-3.9-3.1-3.7L36,31.9c-0.8,0.1-1.7,0.3-2.3,0.8L12.1,50.8z M25.6,59.6c-0.5,0.4-1.2,0.3-1.6-0.1 c-0.4-0.5-0.3-1.2,0.1-1.6L41.8,43c0.6-0.5,0.7-1.4,0.2-2s-1.4-0.7-2-0.2L22.2,55.7c-0.5,0.4-1.2,0.3-1.6-0.1 c-0.4-0.5-0.3-1.2,0.1-1.6l17.7-14.8c0.6-0.5,0.7-1.4,0.2-2s-1.4-0.7-2-0.2L18.9,51.8c-0.5,0.4-1.2,0.3-1.6-0.1 c-0.4-0.5-0.3-1.2,0.1-1.6l18.3-15.4l5.5-0.6l4.1,4.9l-1.5,5.3L25.6,59.6z"/></svg>