<svg xmlns="http://www.w3.org/2000/svg" viewBox="0 0 80 80"><path d="M60.5 47.2H50.1v-4H60c.1-.3.2-.8.2-1.5V18.5H37c-.7 0-1.2.1-1.5.2v11.7h-4V18.2c0-.9.4-3.7 5.5-3.7h23.5c2.6 0 3.7 1.1 3.7 3.7v23.5c0 5.1-2.8 5.5-3.7 5.5z"/><path d="M12.1 50.8c-1 .8-1.1 2.2-.3 3.2l8.8 10.5c.8 1 2.3 1.1 3.2.3l21.6-18.1c.6-.5.9-1.3 1.1-2.1l3.1-10.2c.5-1.8-1.2-3.9-3.1-3.7L36 31.9c-.8.1-1.7.3-2.3.8L12.1 50.8zm13.5 8.8c-.5.4-1.2.3-1.6-.1-.4-.5-.3-1.2.1-1.6L41.8 43c.6-.5.7-1.4.2-2s-1.4-.7-2-.2L22.2 55.7c-.5.4-1.2.3-1.6-.1-.4-.5-.3-1.2.1-1.6l17.7-14.8c.6-.5.7-1.4.2-2s-1.4-.7-2-.2L18.9 51.8c-.5.4-1.2.3-1.6-.1-.4-.5-.3-1.2.1-1.6l18.3-15.4 5.5-.6 4.1 4.9-1.5 5.3-18.2 15.3z"/></svg>