<svg id="Layer_1" xmlns="http://www.w3.org/2000/svg" viewBox="0 0 80 80"><style>.st0{fill:#262b36}</style><path d="M53.8,45.3c0,1.1-0.9,2-2,2l-20,0c-1.1,0-2-0.9-2-2v0c0-1.1,0.9-2,2-2l20,0C52.9,43.3,53.8,44.2,53.8,45.3z"/><path d="M51.8 47.3c-1.1 0-2-.9-2-2l0-20c0-1.1.9-2 2-2h0c1.1 0 2 .9 2 2l0 20C53.8 46.4 52.9 47.3 51.8 47.3zM27.6 46.7c-.8-.8-.8-2 0-2.8l8.5-8.5c.8-.8 2.1-.8 2.8 0 .8.8.8 2.1 0 2.8l-8.5 8.5C29.7 47.4 28.4 47.4 27.6 46.7z"/><path d="M27.6,43.8c0.8-0.8,2-0.8,2.8,0l8.6,8.6c0.8,0.8,0.8,2.1,0,2.8c-0.8,0.8-2.1,0.8-2.8,0l-8.6-8.6 C26.9,45.9,26.9,44.6,27.6,43.8z"/></svg>