<svg xmlns="http://www.w3.org/2000/svg" width="24" height="24" viewBox="0 0 24 24"><path d="M6.47 3h7.34c.59 0 .98.196 1.274.49l3.426 3.426c.294.294.49.685.49 1.175v11.064c0 .39-.196.783-.49 1.077a1.4 1.4 0 0 1-.98.392H6.47c-.295 0-.687-.098-.98-.39-.294-.295-.49-.687-.49-1.078V4.47c0-.393.196-.785.49-1.078A1.4 1.4 0 0 1 6.47 3zm8.516 10.867l-2.154-2.35 2.154-2.35c.196-.097.392-.293.392-.587 0-.195-.098-.39-.294-.587-.196 0-.392-.098-.685-.098a.744.744 0 0 0-.49.196l-2.35 2.35-2.35-2.35c-.098-.097-.294-.195-.588-.195-.293 0-.39.098-.49.196a.76.76 0 0 0-.195.49c0 .294.098.49.196.588l2.35 2.35-2.35 2.35a.744.744 0 0 0-.196.49c0 .194.098.488.196.586.098.196.294.294.587.294.294 0 .392-.098.588-.392l2.35-2.35 2.35 2.35c.097.196.293.392.586.392.196 0 .49-.098.588-.294.098-.196.294-.392.294-.587-.196-.196-.294-.392-.49-.49z"/></svg>