<svg width="24" height="24" viewBox="0 0 24 24" xmlns="http://www.w3.org/2000/svg"><g fill-rule="evenodd"><path d="M12.333 15.436h-4c-.166 0-.333.16-.333.32 0 .19.167.318.333.318h4c.167 0 .334-.127.334-.32 0-.158-.167-.318-.334-.318zm3.334-2.596H8.333c-.166 0-.333.16-.333.32 0 .19.167.32.333.32h7.334c.166 0 .333-.13.333-.32 0-.16-.167-.32-.333-.32zm0-1.595H8.333c-.166 0-.333.16-.333.32 0 .19.167.318.333.318h7.334c.166 0 .333-.128.333-.32 0-.16-.167-.318-.333-.318z"/><path d="M18.4 4.223H5.6c-.867 0-1.6.703-1.6 1.532v12.617c0 .83.733 1.532 1.6 1.532h12.8c.867 0 1.6-.702 1.6-1.532V5.755c0-.83-.733-1.532-1.6-1.532zm-1.2 1.532c.433 0 .8.35.8.766 0 .416-.367.767-.8.767-.433 0-.8-.35-.8-.766 0-.414.367-.765.8-.765zm-2.4 0c.433 0 .8.35.8.766 0 .416-.367.767-.8.767-.433 0-.8-.35-.8-.766 0-.414.367-.765.8-.765zm-2.4 0c.433 0 .8.35.8.766 0 .416-.367.767-.8.767-.433 0-.8-.35-.8-.766 0-.414.367-.765.8-.765zm5.933 11.915c0 .35-.3.64-.666.64H6.333c-.366 0-.666-.29-.666-.64V9.01c0-.35.3-.638.666-.638h11.334c.366 0 .666.288.666.64v8.658z"/></g></svg>