<svg width="24" height="24" viewBox="0 0 24 24" xmlns="http://www.w3.org/2000/svg"><title>experience-popup</title><g transform="translate(3 4)" fill="#231F20" fill-rule="evenodd"><path d="M9.38 8.89l-.61.64-1.525-1.566c-.237-.248-.677-.248-.914 0l-2.233 2.312v.853c0 .39.304.71.677.71h8.33l-2.88-2.95c-.202-.25-.608-.25-.845 0z"/><ellipse cx="12.358" cy="6.044" rx=".745" ry=".782"/><path d="M17.166 1.742l.677-.746c.135-.143.135-.427 0-.57-.136-.142-.373-.142-.508 0l-.677.747-.677-.746c-.135-.143-.372-.143-.507 0-.136.142-.136.426 0 .57l.677.745-.677.747c-.136.14-.136.426 0 .568.135.142.372.142.508 0l.678-.747.677.748c.135.142.372.142.508 0 .135-.142.135-.427 0-.57l-.677-.746zM14.322 2.88H2.912c-.576 0-1.05.498-1.05 1.138v.498h-.61c-.507 0-.947.462-.947.995v9.352c0 .534.44.996.948.996h11.613c.508 0 .948-.462.948-.996v-.64h.508c.575 0 1.05-.498 1.05-1.138V4.018c-.035-.64-.475-1.138-1.05-1.138zm0 9.53c0 .39-.305.674-.677.674H3.555c-.372 0-.677-.32-.677-.675V4.692c0-.39.305-.675.677-.675h10.09c.372 0 .677.32.677.675v7.716z"/></g></svg>