<svg baseProfile="tiny" xmlns="http://www.w3.org/2000/svg" viewBox="0 0 80 80"><path fill="#262B36" d="M47.9 58.4c-1.3 0-2.4-.8-2.8-2l-8.4-23-4 11c-.4 1.2-1.5 2-2.8 2-1.3 0-2.4-.8-2.8-1.9l-1.8-4.6-3.5 9c-.6 1.5-2.3 2.3-3.9 1.7-1.5-.6-2.3-2.3-1.7-3.9l6.3-16.6c.4-1.2 1.6-2.2 2.8-2.2 1.2 0 2.3 1 2.8 2.2l1.7 4.5 4.1-11.2c.4-1.2 1.5-2 2.8-1.9 1.3 0 2.4.8 2.8 2l8.4 23 5.8-16.1c.4-1.2 1.5-2 2.8-2 1.3-.1 2.4.7 2.8 1.9l4.5 11.4c.6 1.5-.2 3.3-1.7 3.9-1.5.6-3.3-.2-3.9-1.7l-1.6-4-5.9 16.3c-.4 1.4-1.6 2.2-2.8 2.2z"/></svg>