<svg width="24" height="24" viewBox="0 0 24 24" xmlns="http://www.w3.org/2000/svg"><path d="M15.333 8c0 .487.367.87.834.87.466 0 .833-.383.833-.87s-.367-.87-.833-.87c-.467 0-.834.383-.834.87zM7 12.696v.974c0 .417.333.765.733.765H17l-3.2-3.27a.665.665 0 0 0-.967 0l-.666.696-1.7-1.738a.7.7 0 0 0-1 0L7 12.696zM4 18.61c0 .764.6 1.39 1.333 1.39h13.334C19.4 20 20 19.374 20 18.61V5.39C20 4.627 19.4 4 18.667 4H5.333C4.6 4 4 4.626 4 5.39v13.22zM6.4 5.74h11.2c.4 0 .733.347.733.764v8.557c0 .418-.333.766-.733.766H6.4c-.4 0-.733-.348-.733-.765V6.505c0-.417.333-.765.733-.765z" fill-rule="evenodd"/></svg>