<svg width="80" height="80" viewBox="0 0 80 80" xmlns="http://www.w3.org/2000/svg"><path d="M53.3 40c0-.7-.1-1.4-.2-2l2.9-2.2c-.8-2.7-2.2-5-4.2-6.9l-3.4 1.3c-1.1-.9-2.3-1.5-3.7-2l-.6-3.5c-1.3-.5-2.7-.7-4.1-.7-1.4 0-2.8.2-4.2.5l-.5 3.5c-1.3.5-2.6 1.2-3.7 2l-3.4-1.3c-1.9 1.9-3.4 4.3-4.2 6.9l2.9 2.2c-.1.7-.2 1.3-.2 2s.1 1.4.2 2L24 44.3c.8 2.7 2.2 5 4.2 6.9l3.4-1.3c1.1.9 2.3 1.5 3.7 2l.6 3.5c1.3.3 2.7.5 4.2.5 1.4 0 2.8-.2 4.2-.5l.6-3.5c1.3-.5 2.6-1.2 3.7-2l3.4 1.3c1.9-1.9 3.4-4.3 4.2-6.9L53.1 42c.1-.6.2-1.3.2-2zM40 46.7a6.7 6.7 0 1 1 0-13.4 6.7 6.7 0 0 1 0 13.4z"/></svg>