<svg height="24" width="24" viewBox="0 0 24 24" xmlns="http://www.w3.org/2000/svg"><path d="M4.578 8.079A.583.583 0 0 0 4 8.645c0 .305.267.567.578.567H6.8a.583.583 0 0 0 .578-.567.583.583 0 0 0-.578-.566zm11.11 0a.583.583 0 0 0-.577.566c0 .305.267.567.578.567h2.222a.583.583 0 0 0 .578-.567.583.583 0 0 0-.578-.566zm-5.021-3.834c0 .305.266.566.577.566a.583.583 0 0 0 .578-.566V2.066a.583.583 0 0 0-.578-.566.583.583 0 0 0-.577.566zM6.133 12.87a.545.545 0 0 0 0 .785.571.571 0 0 0 .8 0L8.49 12.13a.545.545 0 0 0 0-.785.571.571 0 0 0-.8 0zm7.823-7.711a.545.545 0 0 0 0 .784.571.571 0 0 0 .8 0l1.555-1.525a.545.545 0 0 0 0-.784.571.571 0 0 0-.8 0zm-6.267.784a.571.571 0 0 0 .8 0 .545.545 0 0 0 0-.784L6.933 3.635a.571.571 0 0 0-.8 0 .545.545 0 0 0 0 .784zM18.31 22.5C19.378 20.8 20 18.797 20 16.836c0-.871-.089-1.7-.311-2.527-.178-.566-.622-1.002-1.245-1.002a1.4 1.4 0 0 0-.933.392v-.087c0-.697-.578-1.22-1.244-1.22-.667 0-1.245.567-1.245 1.22v-.61c0-.697-.578-1.22-1.244-1.22a1.23 1.23 0 0 0-1.245 1.22V9.037c0-.697-.577-1.22-1.244-1.22a1.23 1.23 0 0 0-1.245 1.22v6.971c0 .349-.266.61-.622.61-.044 0-.133 0-.178-.043l-1.777-.697a1.25 1.25 0 0 0-.578-.131 1.23 1.23 0 0 0-1.245 1.22c0 .523.312.958.756 1.133 2.044 1.045 3.644 2.265 4.8 4.4z"/></svg>
