<svg width="80" height="80" viewBox="0 0 80 80" xmlns="http://www.w3.org/2000/svg"><path d="M41.7 55.4c-.5.5-1.2.8-1.9.8s-1.4-.3-2-.8c-.6-.5-.8-1.1-.8-1.9 0-.7.3-1.4.8-1.9s1.2-.8 1.9-.8 1.4.3 2 .8c.6.5.8 1.1.8 1.9 0 .7-.3 1.4-.8 1.9zM46 40.5c-.5.6-.8 1-1 1.2-.2.2-.6.5-1 .9l-1 1c-.3.3-.4.5-.5.7-.4.5-.5 1.3-.5 2.2V48h-4v-2c0-1-.1-1.7.2-2.1.2-.5.6-1.1 1.4-1.9l2.6-2.6c.6-.6.8-1.3.8-2.2 0-.9-.3-1.6-.9-2.2-.6-.6-1.3-.9-2.2-.9s-1.7.2-2.3.8-1 1.2-1.1 2.2h-4.4c.2-2 1.1-3.7 2.5-5 1.4-1.2 3.2-1.8 5.3-1.8 2.1 0 3.9.6 5.2 1.8 1.3 1.2 2 2.8 2 4.9.1 1.4-.3 2.6-1.1 3.5z"/></svg>