<svg height="24" viewBox="0 0 24 24" width="24" xmlns="http://www.w3.org/2000/svg"><path d="M13.185 20.815c-.37.37-.889.592-1.407.592s-1.037-.222-1.482-.592c-.444-.37-.592-.815-.592-1.408a2.024 2.024 0 0 1 2-2c.518 0 1.037.223 1.481.593.445.37.593.815.593 1.407 0 .519-.222 1.037-.593 1.408zM16.37 9.778c-.37.444-.592.74-.74.889-.149.148-.445.37-.741.666l-.74.741a1.71 1.71 0 0 0-.371.519c-.297.37-.37.963-.37 1.63v1.11h-2.964v-1.481c0-.74-.074-1.26.149-1.556.148-.37.444-.815 1.037-1.407l1.926-1.926c.444-.444.592-.963.592-1.63 0-.666-.222-1.185-.667-1.63-.444-.444-.962-.666-1.63-.666-.666 0-1.258.148-1.703.593-.444.444-.74.889-.815 1.63H6.074c.148-1.482.815-2.741 1.852-3.704 1.037-.89 2.37-1.334 3.926-1.334 1.555 0 2.889.445 3.852 1.334.963.888 1.481 2.074 1.481 3.63.074 1.036-.222 1.925-.815 2.592z"/></svg>