<svg width="80" height="80" viewBox="0 0 80 80" xmlns="http://www.w3.org/2000/svg"><path d="M25.4 20.6l-2.8 2.8c-3.9 3.9-3.9 10.3 0 14.1l5.4 5.4c-.2-2.4.2-4.9 1.4-7.1l-2.6-2.6c-1.5-1.5-1.5-4.1 0-5.7l2.8-2.8c1.5-1.5 4.1-1.5 5.7 0l8.5 8.5c1.5 1.5 1.5 4.1 0 5.7L41 41.8c-.2.2-.5.4-.8.6 0 0 0 .1.1.1l4.2 4.2c.3-.2.5-.4.8-.7l2.8-2.8c3.9-3.9 3.9-10.3 0-14.1l-8.5-8.5c-3.9-3.9-10.3-3.9-14.2 0z"/><path d="M52.6 42.1l2.6 2.6c1.5 1.5 1.5 4.1 0 5.7l-2.8 2.8c-1.5 1.5-4.1 1.5-5.7 0l-8.5-8.5c-1.5-1.5-1.5-4.1 0-5.7l2.8-2.8c.2-.2.5-.4.8-.6 0 0 0-.1-.1-.1l-4.2-4.2c-.3.2-.5.4-.7.7L34 34.8c-4 3.8-4 10.2-.1 14.1l8.5 8.5c3.9 3.9 10.3 3.9 14.1 0l2.8-2.8c3.9-3.9 3.9-10.3 0-14.1L53.9 35c.3 2.4-.2 4.9-1.3 7.1z"/></svg>