<svg id="Layer_1" xmlns="http://www.w3.org/2000/svg" viewBox="0 0 80 80"><style>.st0{fill:#231f20}</style><path d="M25.4,20.6l-2.8,2.8c-3.9,3.9-3.9,10.3,0,14.1l5.4,5.4c-0.2-2.4,0.2-4.9,1.4-7.1l-2.6-2.6 c-1.5-1.5-1.5-4.1,0-5.7l2.8-2.8c1.5-1.5,4.1-1.5,5.7,0l8.5,8.5c1.5,1.5,1.5,4.1,0,5.7L41,41.8c-0.2,0.2-0.5,0.4-0.8,0.6 c0,0,0,0.1,0.1,0.1l4.2,4.2c0.3-0.2,0.5-0.4,0.8-0.7l2.8-2.8c3.9-3.9,3.9-10.3,0-14.1l-8.5-8.5C35.7,16.7,29.3,16.7,25.4,20.6z"/><path d="M52.6,42.1l2.6,2.6c1.5,1.5,1.5,4.1,0,5.7l-2.8,2.8c-1.5,1.5-4.1,1.5-5.7,0l-8.5-8.5c-1.5-1.5-1.5-4.1,0-5.7 l2.8-2.8c0.2-0.2,0.5-0.4,0.8-0.6c0,0,0-0.1-0.1-0.1l-4.2-4.2c-0.3,0.2-0.5,0.4-0.7,0.7l-2.8,2.8C30,38.6,30,45,33.9,48.9l8.5,8.5 c3.9,3.9,10.3,3.9,14.1,0l2.8-2.8c3.9-3.9,3.9-10.3,0-14.1L53.9,35C54.2,37.4,53.7,39.9,52.6,42.1z"/></svg>