<svg xmlns="http://www.w3.org/2000/svg" viewBox="0 0 80 80"><path fill="#231F20" d="M33 53.3c0-1.1-.9-2-2-2h-4c-1.1 0-2 .9-2 2V57c0 1.1.9 2 2 2h4c1.1 0 2-.9 2-2v-3.7zM45 50c0-1.1-.9-2-2-2h-4c-1.1 0-2 .9-2 2v7c0 1.1.9 2 2 2h4c1.1 0 2-.9 2-2v-7zm12-4c0-1.1-.9-2-2-2h-4c-1.1 0-2 .9-2 2v11c0 1.1.9 2 2 2h4c1.1 0 2-.9 2-2V46zm2.5-22.3c-.8-.8-2-.8-2.8 0L42.2 38.1c-.8.8-.8 2.1 0 2.8.8.8 2.1.8 2.8 0l14.4-14.4c.9-.8.9-2 .1-2.8zm2.3-.4c0-1.1-.9-2-2-2h-12c-1.1 0-2 .9-2 2s.9 2 2 2h12c1.1 0 2-.9 2-2zm-2-2c-1.1 0-2 .9-2 2v12.2c0 1.1.9 2 2 2s2-.9 2-2V23.3c0-1.1-.9-2-2-2zM32.7 31.7c-.5.5-.6 1.5 0 2l8.9 9c.5.6 1.4.6 2 0l.8-.8c.5-.5.5-1.4 0-2L35.5 31c-.5-.5-1.4-.5-2 0l-.8.7zm3-.3c-.8-.8-2-.8-2.8 0L18.4 45.8c-.8.8-.8 2.1 0 2.8.8.8 2.1.8 2.8 0l14.4-14.4c.8-.7.8-2 .1-2.8z"/></svg>