<svg height="24" viewBox="0 0 24 24" width="24" xmlns="http://www.w3.org/2000/svg"><path d="M8.822 18.791a.98.98 0 0 0-.978-.978H5.89a.98.98 0 0 0-.978.978V20.6c0 .538.44.978.978.978h1.955a.98.98 0 0 0 .978-.978zm5.867-1.613a.98.98 0 0 0-.978-.978h-1.955a.98.98 0 0 0-.978.978V20.6c0 .538.44.978.978.978h1.955a.98.98 0 0 0 .978-.978zm5.867-1.956a.98.98 0 0 0-.978-.978h-1.956a.98.98 0 0 0-.978.978V20.6c0 .538.44.978.978.978h1.956a.98.98 0 0 0 .978-.978zM21.778 4.32a.945.945 0 0 0-1.37 0l-7.088 7.04c-.391.391-.391 1.027 0 1.369.391.391 1.027.391 1.369 0l7.04-7.04c.44-.391.44-.978.049-1.369zm1.124-.196a.98.98 0 0 0-.978-.977h-5.866a.98.98 0 0 0-.978.977c0 .538.44.978.978.978h5.866a.98.98 0 0 0 .978-.978zm-.978-.977a.98.98 0 0 0-.977.977v5.965c0 .538.44.978.977.978a.98.98 0 0 0 .978-.978V4.124a.98.98 0 0 0-.978-.977zM8.676 8.23c-.245.245-.294.733 0 .978l4.35 4.4c.245.293.685.293.978 0l.392-.391c.244-.245.244-.685 0-.978l-4.352-4.351c-.244-.245-.684-.245-.977 0zm1.466-.147a.945.945 0 0 0-1.369 0l-7.089 7.04c-.39.392-.39 1.027 0 1.37.392.39 1.027.39 1.37 0l7.04-7.04c.39-.343.39-.978.048-1.37z"/></svg>