<svg width="24" height="24" viewBox="0 0 24 24" xmlns="http://www.w3.org/2000/svg"><title>ic_new_window</title><path d="M18.8842425,6.56508969 L17.3587856,8.0905466 C17.3994412,8.24975199 17.4210526,8.41650398 17.4210526,8.58821455 L17.4210526,17.9907328 C17.4210526,19.1004204 16.5196196,20 15.4117854,20 L6.00926718,20 C4.89957956,20 4,19.098567 4,17.9907328 L4,8.58821455 C4,7.47852693 4.90143303,6.57894737 6.00926718,6.57894737 L15.4117854,6.57894737 C15.6908336,6.57894737 15.9565956,6.6359494 16.1981079,6.73890147 L17.633764,5.31461116 L15.5022954,3.18314262 L20.9804002,3 L20.7972576,8.47810481 L18.8842425,6.56508969 Z M14.5555848,8.36842105 L5.78947368,8.36842105 L5.78947368,18.2105263 L15.6315789,18.2105263 L15.6315789,9.81775324 L9.76042194,15.6889102 L8.47368421,14.4021725 L14.5555848,8.36842105 Z" fill-rule="evenodd"/></svg>