<svg xmlns="http://www.w3.org/2000/svg" viewBox="0 0 80 80"><path d="M44 33c0 4.4-3.6 8-8 8s-8-3.6-8-8 3.6-8 8-8 8 3.6 8 8zm0 0c0 4.4-3.6 8-8 8s-8-3.6-8-8 3.6-8 8-8 8 3.6 8 8zm0 0c0 4.4-3.6 8-8 8s-8-3.6-8-8 3.6-8 8-8 8 3.6 8 8zm-8.5 23.7l7.8-13.5c-.8 0-1.6.2-2.1.5 0 0-2.6 1.3-5.2 1.3s-5.2-1.3-5.2-1.3c-1-.5-2.6-.6-3.7-.3l-3.2 1c-1 .3-2.1 1.5-2.2 2.6l-1.4 8c-.2 1.1.6 2 1.7 2h13.4c0-.1.1-.2.1-.3zM48.6 38c.3-.6.9-.9 1.5-1.2l7.7-3.9c1.4-.6 3.2.4 3.4 2l.5 8.6c.1.6 0 1.3-.3 1.9L50 65.1c-.5.9-1.6 1.2-2.5.7l-9.6-5.5c-.9-.5-1.2-1.6-.7-2.5L48.6 38zm11 6l-.3-4.4-4.5-2.6-4 1.9-9.7 16.8c-.3.4-.1 1 .3 1.3.4.3 1 .1 1.3-.3L52 40.4c.3-.6 1-.7 1.6-.4.6.3.7 1 .4 1.6l-9.3 16.2c-.3.4-.1 1 .3 1.3.4.3 1 .1 1.3-.3l9.3-16.2c.3-.6 1-.7 1.6-.4.6.3.7 1 .4 1.6L48.3 60c-.3.4-.1 1 .3 1.3.4.3 1 .1 1.3-.3l9.7-17z"/></svg>