<svg width="80" height="80" viewBox="0 0 80 80" xmlns="http://www.w3.org/2000/svg"><path d="M50.7 55l-1.4-8c-.2-1.1-1.2-2.2-2.2-2.6l-3.2-1c-.6-.2-1.5-.2-2.3-.1l-2.3 8.6c-.1.5-.7 1-1.3 1s-1-.4-1-1V45c0-1-.9-2-2-2s-2 1-2 2v6.8c0 .6-.4 1-1 1s-1.1-.4-1.3-1l-2.3-8.6c-.8-.1-1.6-.1-2.3.1l-3.2 1c-1 .3-2.1 1.5-2.2 2.6L19.3 55c-.2 1.1.6 2 1.7 2h28c1.1 0 1.9-.9 1.7-2z"/><circle cx="35" cy="33" r="8"/><circle cx="52" cy="35" r="6"/><path d="M63.8 51.5l-1-6c-.1-.8-.9-1.7-1.7-1.9l-2.4-.8c-.8-.3-2-.1-2.8.2 0 0-1.9 1-3.9 1-.9 0-1.8-.2-2.5-.4.9.8 1.6 1.9 1.8 3.1l1.1 6.4h10.1c.8-.1 1.4-.8 1.3-1.6z"/></svg>