<svg width="80" height="80" viewBox="0 0 80 80" xmlns="http://www.w3.org/2000/svg"><path d="M41 22c-11 0-20 9-20 20s9 20 20 20c1.8 0 3.3-1.5 3.3-3.3 0-.9-.3-1.6-.9-2.2-.5-.6-.8-1.4-.8-2.2 0-1.8 1.5-3.3 3.3-3.3h3.9c6.1 0 11.1-5 11.1-11.1C61 30 52 22 41 22zM28.8 42c-1.8 0-3.3-1.5-3.3-3.3s1.5-3.3 3.3-3.3 3.3 1.5 3.3 3.3-1.5 3.3-3.3 3.3zm6.6-8.9c-1.8 0-3.3-1.5-3.3-3.3s1.5-3.3 3.3-3.3 3.3 1.5 3.3 3.3-1.4 3.3-3.3 3.3zm11.2 0c-1.8 0-3.3-1.5-3.3-3.3s1.5-3.3 3.3-3.3 3.3 1.5 3.3 3.3-1.5 3.3-3.3 3.3zm6.6 8.9c-1.8 0-3.3-1.5-3.3-3.3s1.5-3.3 3.3-3.3 3.3 1.5 3.3 3.3-1.4 3.3-3.3 3.3z"/></svg>