<svg height="24" viewBox="0 0 24 24" width="24" xmlns="http://www.w3.org/2000/svg"><path d="M12 2C6.5 2 2 6.5 2 12s4.5 10 10 10c.9 0 1.65-.75 1.65-1.65 0-.45-.15-.8-.45-1.1-.25-.3-.4-.7-.4-1.1 0-.9.75-1.65 1.65-1.65h1.95c3.05 0 5.55-2.5 5.55-5.55C22 6 17.5 2 12 2zM5.9 12c-.9 0-1.65-.75-1.65-1.65S5 8.7 5.9 8.7s1.65.75 1.65 1.65S6.8 12 5.9 12zm3.3-4.45c-.9 0-1.65-.75-1.65-1.65S8.3 4.25 9.2 4.25s1.65.75 1.65 1.65-.7 1.65-1.65 1.65zm5.6 0c-.9 0-1.65-.75-1.65-1.65s.75-1.65 1.65-1.65 1.65.75 1.65 1.65-.75 1.65-1.65 1.65zM18.1 12c-.9 0-1.65-.75-1.65-1.65S17.2 8.7 18.1 8.7s1.65.75 1.65 1.65S19.05 12 18.1 12z"/></svg>