<svg xmlns="http://www.w3.org/2000/svg" width="24" height="24" viewBox="0 0 24 24"><g fill="none" fill-rule="evenodd"><path fill="#4C566C" fill-rule="nonzero" d="M18.51 6.916L15.084 3.49C14.79 3.196 14.4 3 13.81 3H6.47c-.295 0-.687.098-.98.392-.294.293-.49.685-.49 1.077v14.684c0 .39.196.783.49 1.077.293.294.685.392.98.392h11.06c.295 0 .687-.098.98-.39.294-.295.49-.59.49-1.078V8.09c0-.49-.098-.88-.49-1.174zm-3.23 4.406c-.392.39-.98.39-1.37 0l-1.078-1.077v4.895c0 .587-.39.98-.98.98-.586 0-.978-.393-.978-.98v-5.09L9.6 11.32c-.39.39-.978.39-1.37 0-.39-.392-.39-.98 0-1.37l2.742-2.742c.196-.196.49-.294.783-.294.294 0 .588.098.783.294l2.742 2.74c.39.393.39.98 0 1.372z"/></g></svg>