<svg width="80" height="80" viewBox="0 0 80 80" xmlns="http://www.w3.org/2000/svg"><path d="M58.6 38.6c.8.8.8 2 0 2.8l-8.5 8.5c-.8.8-2.1.8-2.8 0s-.8-2.1 0-2.8l8.5-8.5c.7-.8 2-.8 2.8 0zm0 2.8c-.8.8-2 .8-2.8 0l-8.5-8.5c-.8-.8-.8-2.1 0-2.8s2.1-.8 2.8 0l8.5 8.5c.8.8.8 2 0 2.8zM40 39.6c0 1.1-.9 2-2 2H22c-1.1 0-2-.9-2-2s.9-2 2-2h16c1.1 0 2 .9 2 2zm0 8c0 1.1-.9 2-2 2H28c-1.1 0-2-.9-2-2s.9-2 2-2h10c1.1 0 2 .9 2 2zm0-16c0 1.1-.9 2-2 2h-4c-1.1 0-2-.9-2-2s.9-2 2-2h4c1.1 0 2 .9 2 2zm-10 0c0 1.1-.9 2-2 2h-6c-1.1 0-2-.9-2-2s.9-2 2-2h6c1.1 0 2 .9 2 2z"/></svg>