<svg width="80" height="80" viewBox="0 0 80 80" xmlns="http://www.w3.org/2000/svg"><path d="M54 41c0 7.7-6.3 14-14 14s-14-6.3-14-14c0-7.5 5.9-13.6 13.3-14l-2.2 2.2c-.8.8-.8 2.1 0 2.8s2.1.8 2.8 0l5.7-5.7.3-.3c.5-.8.4-1.8-.3-2.5L40 17.9c-.8-.8-2.1-.8-2.8 0s-.8 2.1 0 2.8l2.2 2.2H39v.1c-9.5.5-17 8.4-17 17.9 0 9.9 8.1 18 18 18s18-8.1 18-18h-4z"/><path d="M46.2 38.7c0 2.2-.9 3.7-2.7 4.3l3.5 5h-3.8l-3.1-4.5H38V48h-3.1V34h5.3c2.2 0 3.7.4 4.6 1.1s1.4 1.9 1.4 3.6zm-3.7 1.6c.4-.3.6-.9.6-1.6 0-.8-.2-1.3-.6-1.5-.4-.3-1.1-.4-2.1-.4H38v4.1h2.3c1.1-.1 1.8-.2 2.2-.6z"/></svg>