<svg baseProfile="tiny" xmlns="http://www.w3.org/2000/svg" viewBox="0 0 80 80"><path fill="#262B36" d="M40 29c-1.1 0-2 .9-2 2v20c0 1.1.9 2 2 2s2-.9 2-2V31c0-1.1-.9-2-2-2zm-10 0c-1.1 0-2 .9-2 2v20c0 1.1.9 2 2 2s2-.9 2-2V31c0-1.1-.9-2-2-2zm20 0c-1.1 0-2 .9-2 2v20c0 1.1.9 2 2 2s2-.9 2-2V31c0-1.1-.9-2-2-2z"/><circle fill="#fff" cx="30" cy="40" r="3"/><path fill="#262B36" d="M30 38c1.1 0 2 .9 2 2s-.9 2-2 2-2-.9-2-2 .9-2 2-2m0-2c-2.2 0-4 1.8-4 4s1.8 4 4 4 4-1.8 4-4-1.8-4-4-4z"/><circle fill="#fff" cx="40" cy="49" r="3"/><path fill="#262B36" d="M40 47c1.1 0 2 .9 2 2s-.9 2-2 2-2-.9-2-2 .9-2 2-2m0-2c-2.2 0-4 1.8-4 4s1.8 4 4 4 4-1.8 4-4-1.8-4-4-4z"/><circle fill="#fff" cx="50" cy="33" r="3"/><path fill="#262B36" d="M50 31c1.1 0 2 .9 2 2s-.9 2-2 2-2-.9-2-2 .9-2 2-2m0-2c-2.2 0-4 1.8-4 4s1.8 4 4 4 4-1.8 4-4-1.8-4-4-4z"/></svg>