<svg baseProfile="tiny" xmlns="http://www.w3.org/2000/svg" viewBox="0 0 80 80"><path fill="#262B36" d="M55 23zm6 6c0-3.3-2.7-6-6-6s-6 2.7-6 6c0 2.2 1.2 4.2 3 5.2V56c0 1.6 1.3 3 3 3s3-1.4 3-3V34.2c1.8-1 3-3 3-5.2zm-6 3c-1.7 0-3-1.3-3-3s1.3-3 3-3 3 1.3 3 3-1.3 3-3 3zm-27 2.3V26c0-1.7-1.3-3-3-3-1.6 0-3 1.3-3 3v8.3c-1.8 1-3 3-3 5.2s1.2 4.2 3 5.2V56c0 1.6 1.3 3 3 3s3-1.4 3-3V44.7c1.8-1 3-3 3-5.2s-1.2-4.2-3-5.2zm-3 8.2c-1.7 0-3-1.3-3-3s1.3-3 3-3 3 1.3 3 3-1.3 3-3 3zm18 5.3V26c0-1.7-1.3-3-3-3-1.6 0-3 1.3-3 3v21.8c-1.8 1-3 3-3 5.2 0 3.3 2.7 6 6 6s6-2.7 6-6c0-2.2-1.2-4.2-3-5.2zM40 56c-1.7 0-3-1.3-3-3s1.3-3 3-3 3 1.3 3 3-1.3 3-3 3z"/></svg>