<svg xmlns="http://www.w3.org/2000/svg" viewBox="0 0 80 80"><path fill="#262B36" d="M35.2 52.3c-.8 0-1.6-.5-1.9-1.3l-5.6-15.3-2.7 7.4c-.3.8-1 1.3-1.9 1.3-.8 0-1.6-.5-1.9-1.3l-1.2-3-2.3 6c-.4 1-1.6 1.5-2.6 1.2-1-.4-1.5-1.6-1.2-2.6l4.2-11.1c.3-.8 1-1.5 1.9-1.5.8 0 1.6.7 1.9 1.5l1.1 3 2.8-7.5c.3-.8 1-1.3 1.9-1.3.8 0 1.6.5 1.9 1.3l5.6 15.3 3.9-10.7c.3-.8 1-1.3 1.9-1.3.9 0 1.6.5 1.9 1.3l3 7.6c.4 1-.1 2.2-1.1 2.6-1 .4-2.2-.1-2.6-1.1l-1-2.7-4 10.9c-.4.7-1.1 1.3-2 1.3z"/><path fill="#373737" d="M64.9 27.4c-.2-.6-.8-1-1.4-1h-5.4l-1.7-5.2c-.2-.6-.8-1-1.4-1s-1.2.4-1.4 1l-1.7 5.2h-5.4c-.6 0-1.2.4-1.4 1-.2.6 0 1.3.5 1.7l4.4 3.2-1.7 5.2c-.2.6 0 1.3.5 1.7.5.4 1.2.4 1.7 0l4.4-3.2 4.4 3.2c.3.2.6.3.9.3.3 0 .6-.1.9-.3.5-.4.7-1 .5-1.7L60 32.3l4.4-3.2c.5-.4.7-1.1.5-1.7z"/></svg>