<svg xmlns="http://www.w3.org/2000/svg" viewBox="0 0 80 80"><path fill="#262B36" d="M23 52h.7l9-9c.2-.2.4-.4.6-.5.8-.8 1.9-1.3 3.1-1.3 1.2 0 2.3.5 3.1 1.3l4.9 4.9.5-.5v-8.4c-.1-.4-.2-.9-.2-1.4 0-.5.1-1 .2-1.4V30c0-1.1-.9-2-2-2H23c-1.1 0-2 .9-2 2v20c0 1.1.9 2 2 2zm41-15h-.2c0-1-.9-2-2-2h-12c-1.1 0-2 .9-2 2s.9 2 2 2h7.3L44.5 51.5l-7-7c-.6-.5-1.5-.5-2 0l-.3.3c-.1.1-.3.2-.4.3L20.4 59.5c-.8.8-.8 2.1 0 2.8s2.1.8 2.8 0l13.2-13.2 7.2 7.2c.5.6 1.4.6 2 0l.8-.8c.2-.2.3-.4.3-.6.1-.1.3-.1.4-.2L60 41.9v7.3c0 1.1.9 2 2 2s2-.9 2-2V37z"/><path fill="#231F20" d="M53 33h2V20c0-1.1-.9-2-2-2H35c-1.1 0-2 .9-2 2v6h2v-6h18v13z"/></svg>