<svg baseProfile="tiny" xmlns="http://www.w3.org/2000/svg" viewBox="0 0 80 80"><g><circle cx="52" cy="35" r="6"/><circle cx="52" cy="35" r="6"/><path d="M63.8 51.5l-1-6c-.1-.8-.9-1.7-1.7-1.9l-2.4-.8c-.8-.3-2-.1-2.8.2 0 0-1.9 1-3.9 1-.9 0-1.8-.2-2.5-.4.9.8 1.6 1.9 1.8 3.1l1.1 6.4h10.1c.8-.1 1.4-.8 1.3-1.6z"/><circle cx="35" cy="33" r="8"/><circle cx="35" cy="33" r="8"/><path d="M49.3 47c-.2-1.1-1.2-2.2-2.2-2.6l-3.2-1c-1-.3-2.7-.2-3.7.3 0 0-2.6 1.3-5.2 1.3s-5.2-1.3-5.2-1.3c-1-.5-2.6-.6-3.7-.3l-3.2 1c-1 .3-2.1 1.5-2.2 2.6l-1.4 8c-.2 1.1.6 2 1.7 2h28c1.1 0 1.9-.9 1.7-2l-1.4-8z"/></g></svg>