<svg width="80" height="80" viewBox="0 0 80 80" xmlns="http://www.w3.org/2000/svg"><circle cx="36" cy="33" r="8"/><circle cx="36" cy="33" r="8"/><circle cx="54" cy="35" r="6"/><circle cx="54" cy="35" r="6"/><path d="M65.8 51.5l-1-6c-.1-.8-.9-1.7-1.7-1.9l-2.4-.8c-.8-.3-2-.1-2.8.2 0 0-1.9 1-3.9 1-.9 0-1.8-.2-2.5-.4.9.8 1.6 1.9 1.8 3.1l1.1 6.4h10.1c.8-.1 1.4-.8 1.3-1.6zM51.7 55l-1.4-8c-.2-1.1-1.2-2.2-2.2-2.6l-3.2-1c-1-.3-2.7-.2-3.7.3 0 0-1.5.7-3.3 1.1.9 1.3 1.5 2.7 2 4.2l.6 2-2.5 1.8v.3l2.5 1.9-.6 2H50c1.1 0 1.9-.9 1.7-2zM35 53c0-.5-.1-1-.1-1.5l2.2-1.7c-.6-2-1.7-3.8-3.1-5.2l-2.6 1c-.8-.6-1.8-1.2-2.8-1.5l-.4-2.6c-1-.2-2-.4-3.1-.4s-2.1.1-3.1.4l-.5 2.5c-1 .4-1.9.9-2.8 1.5l-2.6-1c-1.5 1.4-2.5 3.2-3.1 5.2l2.2 1.7c-.1.6-.2 1.1-.2 1.6s.1 1 .1 1.5L13 56.2c.6 2 1.7 3.8 3.1 5.2l2.6-1c.8.6 1.8 1.2 2.8 1.5l.4 2.6c1 .2 2 .4 3.1.4s2.1-.1 3.1-.4l.4-2.6c1-.4 1.9-.9 2.8-1.5l2.6 1c1.5-1.4 2.5-3.2 3.1-5.2l-2.2-1.7c.1-.5.2-1 .2-1.5zm-10 5.1c-2.8 0-5.1-2.3-5.1-5.1s2.3-5.1 5.1-5.1 5.1 2.3 5.1 5.1-2.3 5.1-5.1 5.1z"/></svg>