<svg xmlns="http://www.w3.org/2000/svg" viewBox="0 0 80 80"><style>.st0{fill:#231f20}</style><path d="M54 55.3H27.9c-2.3 0-4.2-1.9-4.2-4.2V32.7l-9.3 2.5c-1 .3-1.5 1.2-1.3 2.2l8.1 30.2c.2.8.9 1.3 1.7 1.3.2 0 .3 0 .5-.1l30.2-8.1c.5-.1.9-.4 1.1-.8.2-.4.3-.9.2-1.4l-.9-3.2zm7.1-39.2H28c-1 0-1.8.8-1.8 1.8V51c0 1 .8 1.8 1.8 1.8h33.1c1 0 1.8-.8 1.8-1.8V17.9c0-1-.8-1.8-1.8-1.8zM61 34.6c0 .8-.7 1.5-1.5 1.5s-1.5-.7-1.5-1.5v-5.5l-9.6 9.5c-.1.1-.2.1-.3.2 0 .2-.1.3-.3.5l-.6.6c-.4.4-1.1.4-1.5 0l-5.4-5.4-9.9 9.9c-.6.6-1.5.6-2.1 0-.6-.6-.6-1.5 0-2.1l10.8-10.8c.1-.1.2-.2.3-.2l.2-.2c.4-.4 1.1-.4 1.5 0l5.3 5.3 9.4-9.4h-5.5c-.8 0-1.5-.7-1.5-1.6 0-.8.7-1.6 1.5-1.6l9-.1v-.1c.8 0 1.5 1.3 1.5 1.3h.2v9.7z"/></svg>