<svg xmlns="http://www.w3.org/2000/svg" viewBox="0 0 80 80"><style>.st0{fill:#231f20}</style><path d="M59 20H28c-1.6 0-3 1.3-3 3v30c0 1.6 1.3 3 3 3h31c1.6 0 3-1.3 3-3V23c0-1.6-1.3-3-3-3zm1 18.6c0 .8-.7 1.5-1.5 1.5s-1.5-.7-1.5-1.5v-5.5l-9.6 9.5c-.1.1-.2.1-.3.2 0 .2-.1.3-.3.5l-.6.6c-.4.4-1.1.4-1.5 0l-5.4-5.4-9.9 9.9c-.6.6-1.5.6-2.1 0-.6-.6-.6-1.5 0-2.1l10.8-10.8c.1-.1.2-.2.3-.2l.2-.2c.4-.4 1.1-.4 1.5 0l5.3 5.3 9.4-9.4h-5.5c-.8 0-1.5-.7-1.5-1.6 0-.8.7-1.6 1.5-1.6l9-.1v-.1c.8 0 1.5 1.3 1.5 1.3h.2v9.7zM26 58c-1.7 0-3-1.4-3-3V26.4c-2.3.8-4 3-4 5.6v24c0 3.3 2.7 6 6 6h25c2.6 0 4.8-1.7 5.6-4H26z"/></svg>