<svg xmlns="http://www.w3.org/2000/svg" viewBox="0 0 80 80"><path fill="#231F20" d="M70.3 7H10.4C7.2 7 5 9.9 5 13.1V50c0 3.2 2.2 5.1 5.4 5.1h6.8L32.1 70c1.3 1.2 2.5 1.7 3.4 1.3.9-.5 1.4-1.4 1.4-3.2V55h33.2c3.2 0 5.7-1.9 5.7-5.1V13.1C76 9.9 73.4 7 70.3 7zM25.5 21.9c.4-.4 1-.9 1.6-.9h4.6c.7 0 1.2.4 1.7.9.4.4.6 1 .6 1.7s-.2 1.3-.6 1.7c-.4.4-1 .7-1.7.7h-4.6c-.6 0-1.1-.3-1.6-.7-.4-.4-.7-1.1-.7-1.8 0-.6.3-1.2.7-1.6zm14.7 21.6c-.4.4-1 .5-1.7.5H27.1c-.6 0-1.1-.1-1.6-.5-.4-.4-.7-.9-.7-1.6.1-.6.3-1.4.7-1.9.4-.4 1-1 1.6-1h11.5c.7 0 1.2.6 1.7 1.1.4.4.6 1.1.6 1.7 0 .6-.2 1.3-.7 1.7zm6.9-9.1c-.4.4-1 .6-1.7.6H27.1c-.6 0-1.1-.2-1.6-.6-.4-.4-.7-1-.7-1.6.1-.6.3-1.4.7-1.8.4-.4 1-1 1.6-1h18.4c.7 0 1.2.5 1.7 1 .4.4.6 1.1.6 1.7 0 .6-.2 1.3-.7 1.7zm9.2 0c-.4.4-1 .6-1.7.6h-2.3c-.6 0-1.1-.2-1.6-.6-.4-.4-.7-1-.7-1.6.1-.6.3-1.4.7-1.8.4-.4 1-1 1.6-1h2.3c.7 0 1.2.5 1.7 1 .4.4.6 1.1.6 1.7.1.6-.1 1.3-.6 1.7zm0-9.1c-.4.4-1 .7-1.7.7h-16c-.6 0-1.1-.3-1.6-.7-.4-.4-.7-1-.7-1.7.1-.6.3-1.3.7-1.7.4-.4 1-.9 1.6-.9h16.1c.7 0 1.2.4 1.7.9.4.4.6 1.1.6 1.7s-.2 1.3-.7 1.7z"/></svg>