<svg height="24" viewBox="0 0 24 24" width="24" xmlns="http://www.w3.org/2000/svg"><path d="M20.394 3H3.521C2.62 3 2 3.817 2 4.718v10.395c0 .901.62 1.436 1.521 1.436h1.916l4.197 4.197c.366.339.704.48.958.367.253-.141.394-.395.394-.902v-3.69h9.352c.901 0 1.606-.535 1.606-1.436V4.718C22 3.817 21.268 3 20.394 3zM7.774 7.197c.113-.112.282-.253.451-.253h1.296c.197 0 .338.112.479.253.113.113.169.282.169.48s-.056.365-.169.478a.68.68 0 0 1-.479.197H8.225c-.169 0-.31-.084-.45-.197a.75.75 0 0 1-.198-.507c0-.17.085-.338.198-.45zm4.141 6.085c-.112.112-.281.14-.478.14H8.225a.663.663 0 0 1-.45-.14.613.613 0 0 1-.198-.451c.029-.169.085-.394.198-.535.112-.113.281-.282.45-.282h3.24c.197 0 .338.17.479.31.112.113.169.31.169.479 0 .169-.057.366-.198.479zm1.944-2.564c-.113.113-.282.17-.479.17H8.225a.69.69 0 0 1-.45-.17.665.665 0 0 1-.198-.45c.029-.17.085-.395.198-.507.112-.113.281-.282.45-.282h5.183c.198 0 .338.14.48.282.112.112.168.31.168.478s-.056.367-.197.48zm2.592 0c-.113.113-.282.17-.48.17h-.647a.69.69 0 0 1-.45-.17.665.665 0 0 1-.198-.45c.028-.17.085-.395.197-.507.113-.113.282-.282.45-.282h.649c.197 0 .338.14.479.282.112.112.169.31.169.478a.516.516 0 0 1-.17.48zm0-2.563a.68.68 0 0 1-.48.197h-4.506c-.17 0-.31-.084-.45-.197a.68.68 0 0 1-.198-.479c.028-.169.084-.366.197-.479.113-.112.282-.253.45-.253H16c.197 0 .338.112.479.253.113.113.169.31.169.48 0 .168-.056.365-.197.478z"/></svg>