<svg xmlns="http://www.w3.org/2000/svg" viewBox="0 0 80 80"><path d="M58.3 29.7l-1.7-2.5c-.3-.4-1-.8-1.5-.8h-3.9V23c0-.5-.3-1.2-.7-1.6l-2.8-2.8c-.4-.4-1.1-.7-1.6-.7H34.6c-.5 0-1.2.3-1.6.7l-2.6 2.6c-.4.4-.7 1.1-.7 1.6v3.6h-4c-.5 0-1.2.4-1.5.8l-1.6 2.5c-.3.4-.1.8.4.8h2.8V61c0 .5.4.9.9.9h27.6c.5 0 .9-.4.9-.9V30.5h2.6c.6 0 .8-.4.5-.8zm-24.6-3.5v-1.7c0-.5.3-1.2.7-1.6l.3-.3c.4-.4 1.1-.7 1.6-.7h8.4c.5 0 1.2.3 1.6.7l.5.5c.4.4.7 1.1.7 1.6v1.7H33.7v-.2zm17.7 5.2v25.7c0 .5-.4.9-.9.9H30.7c-.5 0-.9-.4-.9-.9V31.4c0-.5.4-.9.9-.9h19.8c.5 0 .9.4.9.9zm-16.9 1.7h-1.1c-.5 0-.9.4-.9.9v20.4c0 .5.4.9.9.9h1.1c.5 0 .9-.4.9-.9V34.1c0-.6-.4-1-.9-1zm5.4 22.3H41c.5 0 .9-.4.9-.9V34.1c0-.5-.4-.9-.9-.9h-1.1c-.5 0-.9.4-.9.9v20.4c0 .5.4.9.9.9zm6.6 0h1.1c.5 0 .9-.4.9-.9V34.1c0-.5-.4-.9-.9-.9h-1.1c-.5 0-.9.4-.9.9v20.4c-.1.5.3.9.9.9z"/></svg>