<svg xmlns="http://www.w3.org/2000/svg" viewBox="0 0 80 80"><circle cx="30" cy="32" r="8"/><circle cx="30" cy="32" r="8"/><path d="M44.3 46c-.2-1.1-1.2-2.2-2.2-2.6l-3.2-1c-1-.3-2.7-.2-3.7.3 0 0-2.6 1.3-5.2 1.3s-5.2-1.3-5.2-1.3c-1-.5-2.6-.6-3.7-.3l-3.2 1c-1 .3-2.1 1.5-2.2 2.6l-1.4 8c-.2 1.1.6 2 1.7 2h28c1.1 0 1.9-.9 1.7-2l-1.4-8zm.3-18.4c.2-.2.6-.4 1.2-.4h16.4c.4 0 .8.2 1.2.4.2.2.4.6.4 1.2s-.2.8-.4 1.2c-.2.2-.6.4-1.2.4H45.8c-.4 0-.8-.2-1.2-.4-.4-.2-.4-.6-.4-1.2s.2-.8.4-1.2zm10.7-8.3c.2.2.4.6.4 1.2V37c0 .4-.2.8-.4 1.2-.2.2-.6.4-1.2.4-.4 0-.8-.2-1.2-.4-.4-.2-.4-.6-.4-1.2V20.6c0-.4.2-.8.4-1.2.2-.4.6-.4 1.2-.4.4-.1.8.1 1.2.3z"/></svg>