<svg xmlns="http://www.w3.org/2000/svg" viewBox="0 0 80 80"><circle cx="31" cy="33" r="8"/><circle cx="31" cy="33" r="8"/><path d="M45.3 47c-.2-1.1-1.2-2.2-2.2-2.6l-3.2-1c-1-.3-2.7-.2-3.7.3 0 0-2.6 1.3-5.2 1.3s-5.2-1.3-5.2-1.3c-1-.5-2.6-.6-3.7-.3l-3.2 1c-1 .3-2.1 1.5-2.2 2.6l-1.4 8c-.2 1.1.6 2 1.7 2h28c1.1 0 1.9-.9 1.7-2l-1.4-8z"/><path d="M53.7 15c5.5 0 10 4.6 10 10.2s-4.5 10.2-10 10.2h-8.4l.8-.8c.7-.7.8-1.9.1-2.7-1.6-1.9-2.5-4.3-2.5-6.7 0-5.6 4.5-10.2 10-10.2m0-2c-6.6 0-12 5.5-12 12.2 0 3.1 1.1 5.9 3 8l-2.4 2.5c-.9 1-.6 1.8.7 1.8h10.8c6.6 0 12-5.5 12-12.2S60.3 13 53.7 13zm-4.9 9.2h10v2h-10zm0 4h6v2h-6z"/></svg>