<svg width="80" height="80" viewBox="0 0 80 80" xmlns="http://www.w3.org/2000/svg"><circle cx="31" cy="33" r="8"/><circle cx="31" cy="33" r="8"/><path d="M45.3 47c-.2-1.1-1.2-2.2-2.2-2.6l-3.2-1c-1-.3-2.7-.2-3.7.3 0 0-2.6 1.3-5.2 1.3s-5.2-1.3-5.2-1.3c-1-.5-2.6-.6-3.7-.3l-3.2 1c-1 .3-2.1 1.5-2.2 2.6l-1.4 8c-.2 1.1.6 2 1.7 2h28c1.1 0 1.9-.9 1.7-2l-1.4-8zM64.9 27.4c-.2-.6-.8-1-1.4-1h-5.4l-1.7-5.2c-.2-.6-.8-1-1.4-1s-1.2.4-1.4 1l-1.7 5.2h-5.4c-.6 0-1.2.4-1.4 1-.2.6 0 1.3.5 1.7l4.4 3.2-1.7 5.2c-.2.6 0 1.3.5 1.7.5.4 1.2.4 1.7 0l4.4-3.2 4.4 3.2c.3.2.6.3.9.3.3 0 .6-.1.9-.3.5-.4.7-1 .5-1.7L60 32.3l4.4-3.2c.5-.4.7-1.1.5-1.7z"/></svg>