<svg xmlns="http://www.w3.org/2000/svg" width="24" height="24" viewBox="0 0 24 24"><g fill="none" fill-rule="evenodd"><path stroke="#000" stroke-linecap="round" stroke-linejoin="round" stroke-width="2" d="M12 3h7a2 2 0 0 1 2 2v7a2 2 0 0 1-2 2h-5v-4h-4V5a2 2 0 0 1 2-2z"/><path fill="#000" d="M11.041 10.5l1.906-2.206c.141-.196.283-.294.425-.294.141 0 .283.098.424.294l1.275 1.912.53-.735c.142-.196.284-.295.426-.295.141 0 .283.099.424.295L19 13h-5.933c-.045 0-.067-.833-.067-2.5h-1.959zM17 6h2v2h-2z"/><g transform="translate(3 10)"><rect width="11" height="11" stroke="#000" stroke-linecap="round" stroke-linejoin="round" stroke-width="2" rx="2"/><path fill="#000" d="M1.035 8.088l1.912-2.794C3.088 5.098 3.23 5 3.372 5c.141 0 .283.098.424.294l1.275 1.912.53-.735c.142-.196.284-.295.426-.295.141 0 .283.099.424.295L9 10H1.566c-.141 0-.283-.074-.424-.22a.463.463 0 0 1-.107-.515V8.088zM7 3h2v2H7z"/></g></g></svg>