<svg width="80" height="80" viewBox="0 0 80 80" xmlns="http://www.w3.org/2000/svg"><path d="M44.4 40.3c.9-.8 2.2-1 3.7-1h.4c1.1-.1 2.1-.3 3.1-.9.6-.3 1.1-.7 1.6-1.2 1.4-1.4 2.4-3.4 2.6-5.5 0-.2-.1-.4-.3-.5-.2-.1-.4-.1-.6 0l-5.1 2.9h-.1c-.3.1-.9.2-1.9-.7-.3-.3-.6-.7-.9-1.2-1.2-2.2-.6-2.9-.3-3.2.1-.1.2-.1.2-.1l5.1-3c.2-.1.3-.3.3-.5s-.1-.4-.3-.5c-2.5-1.1-5.6-1.1-7.9.2-.5.3-1 .7-1.4 1.1-1.3 1.3-2 3.1-2.1 4.9 0 1.7-.1 3.2-1.1 4.1L35 39.6c-.9.8-2.2 1-3.7 1h-.4c-1.1.1-2.1.3-3.1.9-.6.3-1.1.7-1.6 1.2-1.4 1.4-2.4 3.4-2.6 5.5 0 .2.1.4.3.5.2.1.4.1.6 0l5.1-2.9h.1c.3-.1.9-.2 1.9.7.3.3.6.7.9 1.2 1.2 2.2.6 2.9.3 3.2 0 .1-.1.1-.1.1l-5.1 3c-.2.1-.3.3-.3.5s.1.4.3.5c2.5 1.1 5.6 1.1 7.9-.2.5-.3 1-.7 1.4-1.1 1.3-1.3 2-3.1 2.1-4.9 0-1.7.1-3.2 1.1-4.1l4.3-4.4z"/></svg>