<svg baseProfile="tiny" xmlns="http://www.w3.org/2000/svg" viewBox="0 0 80 80"><path fill="#262B36" d="M46.8 40.5c1.3-1.3 3.3-1.5 5.5-1.5h.6c1.6-.1 3.2-.5 4.6-1.3.9-.5 1.6-1.1 2.4-1.8 2.1-2.1 3.6-5.1 3.9-8.2 0-.3-.1-.6-.4-.8-.3-.2-.6-.2-.9 0l-7.7 4.4-.2.1c-.4.1-1.4.4-2.8-1-.4-.4-.9-1-1.4-1.8-1.8-3.3-.8-4.3-.4-4.8.2-.2.3-.2.3-.2L58 19c.3-.2.4-.5.4-.8 0-.3-.2-.6-.5-.7-3.7-1.7-8.3-1.6-11.8.4-.8.5-1.5 1-2.1 1.6-2 2-3 4.6-3.1 7.4 0 2.5-.2 4.7-1.6 6.1l-6.6 6.6c-1.3 1.3-3.3 1.5-5.5 1.5h-.6c-1.6.1-3.2.5-4.6 1.3-.8.5-1.6 1.1-2.4 1.8-2.1 2.2-3.6 5.1-3.9 8.2 0 .3.1.6.4.8.3.2.6.2.9 0l7.7-4.4.2-.1c.4-.1 1.4-.4 2.8 1 .4.4.9 1 1.4 1.8 1.8 3.3.8 4.3.4 4.8-.2.2-.3.2-.2.2L21.5 61c-.3.2-.4.5-.4.8 0 .3.2.6.5.7 3.7 1.7 8.3 1.6 11.8-.4.8-.5 1.5-1 2.1-1.6 2-2 3-4.6 3.1-7.4-.1-2.5.2-4.7 1.6-6.1l6.6-6.5z"/></svg>