<?xml version="1.0" encoding="utf-8"?>
<!-- Generated by IcoMoon.io -->
<!DOCTYPE svg PUBLIC "-//W3C//DTD SVG 1.1//EN" "http://www.w3.org/Graphics/SVG/1.1/DTD/svg11.dtd">
<svg version="1.1" xmlns="http://www.w3.org/2000/svg" xmlns:xlink="http://www.w3.org/1999/xlink" width="32" height="32" viewBox="0 0 32 32">
<path d="M22.8 7.6h-13.6c-2.2 0-3.080 1.56-1.96 3.44l1.36 2.32c1.12 1.88 2.92 5 4.040 6.88l1.36 2.32c1.12 1.88 2.92 1.88 4.040 0l1.36-2.32c1.12-1.88 2.92-5 4.040-6.88l1.36-2.28c1.080-1.92 0.2-3.48-2-3.48zM17.2 18.4c0 0.64-0.52 1.2-1.2 1.2s-1.2-0.56-1.2-1.2v-4c0-0.68 0.52-1.2 1.2-1.2s1.2 0.52 1.2 1.2v4zM16 12c-0.68 0-1.2-0.52-1.2-1.2s0.52-1.2 1.2-1.2 1.2 0.52 1.2 1.2-0.52 1.2-1.2 1.2z"></path>
</svg>
