<?xml version="1.0" encoding="utf-8"?>
<!-- Generated by IcoMoon.io -->
<!DOCTYPE svg PUBLIC "-//W3C//DTD SVG 1.1//EN" "http://www.w3.org/Graphics/SVG/1.1/DTD/svg11.dtd">
<svg version="1.1" xmlns="http://www.w3.org/2000/svg" xmlns:xlink="http://www.w3.org/1999/xlink" width="32" height="32" viewBox="0 0 32 32">
<path d="M24.92 19.4l-1.4-2.36c-1.12-1.92-2.92-5.040-4-6.92l-1.4-2.44c-1.12-1.92-2.92-1.92-4 0l-1.4 2.4c-1.12 1.92-2.92 5-4 6.92l-1.4 2.4c-1.12 1.92-0.2 3.4 2 3.4h13.6c2.2 0 3.12-1.48 2-3.4zM16.12 20.8c-0.68 0-1.2-0.52-1.2-1.2s0.52-1.2 1.2-1.2 1.2 0.52 1.2 1.2-0.52 1.2-1.2 1.2zM17.2 16c0 0.64-0.56 1.2-1.2 1.2-0.68 0-1.2-0.56-1.2-1.2v-4c0-0.68 0.52-1.2 1.2-1.2 0.64 0 1.2 0.52 1.2 1.2v4z"></path>
</svg>
