<?xml version="1.0" encoding="utf-8"?>
<!-- Generated by IcoMoon.io -->
<!DOCTYPE svg PUBLIC "-//W3C//DTD SVG 1.1//EN" "http://www.w3.org/Graphics/SVG/1.1/DTD/svg11.dtd">
<svg version="1.1" xmlns="http://www.w3.org/2000/svg" xmlns:xlink="http://www.w3.org/1999/xlink" width="32" height="32" viewBox="0 0 32 32">
<path d="M19.2 14.6v1.4h-2.8v-1.4c0-0.8 0.64-1.4 1.4-1.4s1.4 0.64 1.4 1.4zM25.6 11.28v11.080c0 0.92-0.72 1.64-1.6 1.64h-16c-0.88 0-1.6-0.72-1.6-1.64v-11.68c0-0.56 0.44-1.040 1-1.040s1 0.44 1 1.040v10.48c0 0.44 0.36 0.84 0.8 0.84s0.8-0.36 0.8-0.84v-12.24c0-0.52 0.4-0.92 0.88-0.92h4.24c0.48 0 0.88 0.4 0.88 0.92v0.68h8c0.88 0 1.6 0.76 1.6 1.68zM21.6 16.8c0-0.44-0.36-0.8-0.8-0.8h-0.4v-1.4c0-1.44-1.16-2.6-2.6-2.6s-2.6 1.16-2.6 2.6v1.4h-0.4c-0.44 0-0.8 0.36-0.8 0.8v4c0 0.44 0.36 0.8 0.8 0.8h6c0.44 0 0.8-0.36 0.8-0.8v-4zM18.4 17.6h-1.2v2.8h1.2v-2.8z"></path>
</svg>
