<?xml version="1.0" encoding="utf-8"?>
<!-- Generated by IcoMoon.io -->
<!DOCTYPE svg PUBLIC "-//W3C//DTD SVG 1.1//EN" "http://www.w3.org/Graphics/SVG/1.1/DTD/svg11.dtd">
<svg version="1.1" xmlns="http://www.w3.org/2000/svg" xmlns:xlink="http://www.w3.org/1999/xlink" width="32" height="32" viewBox="0 0 32 32">
<path d="M21.12 16.44c0.32-0.32 0.32-0.8 0-1.12l-3.4-3.4c-0.32-0.32-0.84-0.32-1.12 0s-0.32 0.84 0 1.12l3.4 3.4c0.28 0.32 0.8 0.32 1.12 0zM21.12 15.32c-0.32-0.32-0.8-0.32-1.12 0l-3.4 3.4c-0.32 0.32-0.32 0.84 0 1.12 0.32 0.32 0.84 0.32 1.12 0l3.4-3.4c0.32-0.32 0.32-0.8 0-1.12zM15.88 16.44c0.32-0.32 0.32-0.8 0-1.12l-3.4-3.4c-0.32-0.32-0.84-0.32-1.12 0s-0.32 0.84 0 1.12l3.4 3.4c0.32 0.32 0.8 0.32 1.12 0zM15.88 15.32c-0.32-0.32-0.8-0.32-1.12 0l-3.4 3.4c-0.32 0.32-0.32 0.84 0 1.12 0.32 0.32 0.84 0.32 1.12 0l3.4-3.4c0.32-0.32 0.32-0.8 0-1.12z"></path>
</svg>
