<?xml version="1.0" encoding="utf-8"?>
<!-- Generated by IcoMoon.io -->
<!DOCTYPE svg PUBLIC "-//W3C//DTD SVG 1.1//EN" "http://www.w3.org/Graphics/SVG/1.1/DTD/svg11.dtd">
<svg version="1.1" xmlns="http://www.w3.org/2000/svg" xmlns:xlink="http://www.w3.org/1999/xlink" width="32" height="32" viewBox="0 0 32 32">
<path d="M15.48 23.76c-4.44-0.12-7.68-3.48-7.68-8 0-4.8 3.48-8.32 8.32-8.32 5.24 0 8.080 4.040 8.080 7.88 0 1.56-0.36 2.88-1 3.84-0.64 0.88-1.52 1.4-2.48 1.4-1.24 0-2.52-0.96-2.52-2.8v-5.8c0-0.48 0.4-0.88 0.88-0.88s0.88 0.4 0.88 0.88v5.84c0 0.64 0.28 1.040 0.76 1.040 0.36 0 0.72-0.24 1.040-0.64 0.32-0.44 0.68-1.28 0.68-2.8 0-2.96-2.2-6.12-6.32-6.12-3.84 0-6.52 2.68-6.52 6.52 0 3.52 2.48 6.12 5.92 6.2 1.84 0 2.96-0.48 3.64-0.76 0.44-0.2 0.96 0 1.16 0.48 0.2 0.44 0 0.96-0.48 1.16-0.76 0.28-2.12 0.88-4.36 0.88zM15.56 20.040c-1.88 0-3.84-1.12-3.84-4.28 0-2.52 1.6-4.28 3.84-4.28 2.12 0 3.84 1.92 3.84 4.28 0.040 2.4-1.68 4.28-3.84 4.28zM15.56 13.24c-1.28 0-2.080 0.96-2.080 2.52 0 1.68 0.72 2.52 2.080 2.52 1.2 0 2.080-1.080 2.080-2.52 0-1.4-0.92-2.52-2.080-2.52z"></path>
</svg>
