<?xml version="1.0" encoding="utf-8"?>
<!-- Generated by IcoMoon.io -->
<!DOCTYPE svg PUBLIC "-//W3C//DTD SVG 1.1//EN" "http://www.w3.org/Graphics/SVG/1.1/DTD/svg11.dtd">
<svg version="1.1" xmlns="http://www.w3.org/2000/svg" xmlns:xlink="http://www.w3.org/1999/xlink" width="32" height="32" viewBox="0 0 32 32">
<path d="M16 4c-6.64 0-12 5.36-12 12s5.36 12 12 12 12-5.36 12-12-5.36-12-12-12zM16 22.4c-0.88 0-1.6-0.8-1.6-1.6h3.2c0 0.8-0.72 1.6-1.6 1.6zM22.4 20h-12.8v-0.96s1.8-0.48 2.080-3.12l0.4-3.68c0.12-1.24 0.96-1.68 1.72-1.68 0.88-0.080 1.76-0.080 2.64-0.080s0.88 0.040 1.72 0.12c0.84 0.080 1.68 0.56 1.72 1.72l0.4 3.8c0.080 1 0.24 2.12 2.080 2.96l0.040 0.92z"></path>
</svg>
