<?xml version="1.0" encoding="utf-8"?>
<!-- Generated by IcoMoon.io -->
<!DOCTYPE svg PUBLIC "-//W3C//DTD SVG 1.1//EN" "http://www.w3.org/Graphics/SVG/1.1/DTD/svg11.dtd">
<svg version="1.1" xmlns="http://www.w3.org/2000/svg" xmlns:xlink="http://www.w3.org/1999/xlink" width="32" height="32" viewBox="0 0 32 32">
<path d="M11.68 15.52c-0.24 2.64-2.080 3.12-2.080 3.12v0.96h12.8v-0.96c-1.84-0.88-1.96-1.96-2.080-2.96l-0.4-3.8c-0.040-1.16-0.92-1.64-1.72-1.72-0.88-0.080-0.88-0.12-1.72-0.12-0.88 0-1.76 0.040-2.64 0.080-0.76 0-1.6 0.44-1.72 1.68l-0.44 3.72zM16 22c0.88 0 1.6-0.8 1.6-1.6h-3.2c0 0.8 0.72 1.6 1.6 1.6z"></path>
</svg>
