<?xml version="1.0" encoding="utf-8"?>
<!-- Generated by IcoMoon.io -->
<!DOCTYPE svg PUBLIC "-//W3C//DTD SVG 1.1//EN" "http://www.w3.org/Graphics/SVG/1.1/DTD/svg11.dtd">
<svg version="1.1" xmlns="http://www.w3.org/2000/svg" xmlns:xlink="http://www.w3.org/1999/xlink" width="32" height="32" viewBox="0 0 32 32">
<path d="M23.16 10.36l2.28-2.28c0.32-0.32 0.32-0.84 0-1.12-0.32-0.32-0.84-0.32-1.12 0l-2.28 2.28-2.28-2.28c-0.32-0.32-0.84-0.32-1.12 0-0.32 0.32-0.32 0.84 0 1.12l2.28 2.28-2.28 2.28c-0.32 0.32-0.32 0.84 0 1.12 0.32 0.32 0.8 0.32 1.12 0l2.28-2.28 2.28 2.28c0.32 0.32 0.84 0.32 1.12 0 0.32-0.32 0.32-0.8 0-1.12l-2.28-2.28zM24.88 15.2c-0.52 0-1.040-0.2-1.4-0.6l-1.44-1.4-1.4 1.4c-0.2 0.2-0.48 0.36-0.76 0.48 0.080 0.32 0.12 0.6 0.12 0.92 0 2.2-1.8 4-4 4s-4-1.8-4-4 1.8-4 4-4c0.52 0 1 0.080 1.44 0.28 0.080-0.16 0.2-0.36 0.36-0.48l1.4-1.4-0.16-0.16c-0.96-0.36-2-0.6-3.040-0.6-3.96 0-7.56 3.16-9.080 5.040-0.32 0.4-0.52 0.84-0.52 1.32s0.2 0.92 0.52 1.36c1.52 1.88 5.12 5.040 9.080 5.040s7.56-3.16 9.080-5.040c0.32-0.44 0.52-0.88 0.52-1.36 0-0.28-0.080-0.6-0.24-0.88-0.16 0.040-0.32 0.080-0.48 0.080zM16.8 13.72c-0.24-0.080-0.52-0.12-0.8-0.12-1.32 0-2.4 1.080-2.4 2.4s1.080 2.4 2.4 2.4 2.4-1.080 2.4-2.4c-0.4 0.24-0.6 0.4-1 0.4-0.76 0-1.4-0.64-1.4-1.4 0-0.56 0.32-1.040 0.8-1.28z"></path>
</svg>
