<?xml version="1.0" encoding="utf-8"?>
<!-- Generated by IcoMoon.io -->
<!DOCTYPE svg PUBLIC "-//W3C//DTD SVG 1.1//EN" "http://www.w3.org/Graphics/SVG/1.1/DTD/svg11.dtd">
<svg version="1.1" xmlns="http://www.w3.org/2000/svg" xmlns:xlink="http://www.w3.org/1999/xlink" width="32" height="32" viewBox="0 0 32 32">
<path d="M21.4 8.4h-10.8c-0.32 0-0.6 0.28-0.6 0.6v13.8c0 0.32 0.28 0.8 0.6 0.8h3.8v-2.88c0-0.32 0.44-0.72 0.84-0.72h1.52c0.4 0 0.84 0.36 0.84 0.72v2.88h3.8c0.32 0 0.6-0.48 0.6-0.8v-13.8c0-0.32-0.28-0.6-0.6-0.6zM15.2 17c0 0.32-0.28 0.6-0.6 0.6h-1.6c-0.32 0-0.6-0.28-0.6-0.6v-1.6c0-0.32 0.28-0.6 0.6-0.6h1.6c0.32 0 0.6 0.28 0.6 0.6v1.6zM15.2 12.6c0 0.32-0.28 0.6-0.6 0.6h-1.6c-0.32 0-0.6-0.28-0.6-0.6v-1.6c0-0.32 0.28-0.6 0.6-0.6h1.6c0.32 0 0.6 0.28 0.6 0.6v1.6zM19.6 17c0 0.32-0.28 0.6-0.6 0.6h-1.6c-0.32 0-0.6-0.28-0.6-0.6v-1.6c0-0.32 0.28-0.6 0.6-0.6h1.6c0.32 0 0.6 0.28 0.6 0.6v1.6zM19.6 12.6c0 0.32-0.28 0.6-0.6 0.6h-1.6c-0.32 0-0.6-0.28-0.6-0.6v-1.6c0-0.32 0.28-0.6 0.6-0.6h1.6c0.32 0 0.6 0.28 0.6 0.6v1.6z"></path>
</svg>
