<?xml version="1.0" encoding="utf-8"?>
<!-- Generated by IcoMoon.io -->
<!DOCTYPE svg PUBLIC "-//W3C//DTD SVG 1.1//EN" "http://www.w3.org/Graphics/SVG/1.1/DTD/svg11.dtd">
<svg version="1.1" xmlns="http://www.w3.org/2000/svg" xmlns:xlink="http://www.w3.org/1999/xlink" width="32" height="32" viewBox="0 0 32 32">
<path d="M23.2 6h-14.4c-0.44 0-0.8 0.36-0.8 0.8v18.4c0 0.44 0.36 0.8 0.8 0.8h5.2v-3.6c0-0.44 0.44-0.8 1-0.8h2c0.56 0 1 0.36 1 0.8v3.6h5.2c0.44 0 0.8-0.36 0.8-0.8v-18.4c0-0.44-0.36-0.8-0.8-0.8zM14.8 17.2c0 0.44-0.36 0.8-0.8 0.8h-2c-0.44 0-0.8-0.36-0.8-0.8v-2c0-0.44 0.36-0.8 0.8-0.8h2c0.44 0 0.8 0.36 0.8 0.8v2zM14.8 11.2c0 0.44-0.36 0.8-0.8 0.8h-2c-0.44 0-0.8-0.36-0.8-0.8v-2c0-0.44 0.36-0.8 0.8-0.8h2c0.44 0 0.8 0.36 0.8 0.8v2zM20.8 17.2c0 0.44-0.36 0.8-0.8 0.8h-2c-0.44 0-0.8-0.36-0.8-0.8v-2c0-0.44 0.36-0.8 0.8-0.8h2c0.44 0 0.8 0.36 0.8 0.8v2zM20.8 11.2c0 0.44-0.36 0.8-0.8 0.8h-2c-0.44 0-0.8-0.36-0.8-0.8v-2c0-0.44 0.36-0.8 0.8-0.8h2c0.44 0 0.8 0.36 0.8 0.8v2z"></path>
</svg>
