<?xml version="1.0" encoding="utf-8"?>
<!-- Generated by IcoMoon.io -->
<!DOCTYPE svg PUBLIC "-//W3C//DTD SVG 1.1//EN" "http://www.w3.org/Graphics/SVG/1.1/DTD/svg11.dtd">
<svg version="1.1" xmlns="http://www.w3.org/2000/svg" xmlns:xlink="http://www.w3.org/1999/xlink" width="32" height="32" viewBox="0 0 32 32">
<path d="M14.24 21.68c-1.080 0-1.88-0.36-2.44-1.12s-0.8-1.72-0.8-2.96c0-1.24 0.28-2.2 0.8-2.96 0.52-0.72 1.36-1.12 2.44-1.12s1.88 0.36 2.44 1.12c0.52 0.72 0.8 1.72 0.8 2.96s-0.28 2.2-0.8 2.96c-0.52 0.76-1.36 1.12-2.44 1.12zM13.12 15.76c-0.24 0.48-0.36 1.12-0.36 1.88s0.12 1.4 0.36 1.88c0.24 0.48 0.64 0.72 1.16 0.72s0.92-0.24 1.16-0.72c0.24-0.48 0.36-1.12 0.36-1.88s-0.12-1.4-0.36-1.88c-0.24-0.48-0.64-0.72-1.16-0.72s-0.92 0.24-1.16 0.72zM18.24 13.76h3.16v7.84h-1.68v-6.32h-1.48v-1.52zM6.8 23.6c0 0.88 0.72 1.6 1.6 1.6h16c0.88 0 1.6-0.72 1.6-1.6v-14c0-0.88-0.72-1.6-1.6-1.6h-1.6v-1c0-0.56-0.44-1-1-1s-1 0.44-1 1v1h-1.6v-1c0-0.56-0.44-1-1-1s-1 0.44-1 1v1h-1.6v-1c0-0.56-0.44-1-1-1s-1 0.44-1 1v1h-1.6v-1c0-0.56-0.44-1-1-1s-1 0.44-1 1v1h-1.6c-0.88 0-1.6 0.72-1.6 1.6v14zM9.68 10h0.32v1.4c0 0.56 0.44 1 1 1s1-0.44 1-1v-1.4h1.6v1.4c0 0.56 0.44 1 1 1s1-0.44 1-1v-1.4h1.6v1.4c0 0.56 0.44 1 1 1s1-0.44 1-1v-1.4h1.6v1.4c0 0.56 0.44 1 1 1s1-0.44 1-1v-1.4h0.32c0.48 0 0.88 0.4 0.88 0.88v11.44c0 0.48-0.4 0.88-0.88 0.88h-13.44c-0.48 0-0.88-0.4-0.88-0.88v-11.44c0-0.48 0.4-0.88 0.88-0.88z"></path>
</svg>
