<?xml version="1.0" encoding="utf-8"?>
<!-- Generated by IcoMoon.io -->
<!DOCTYPE svg PUBLIC "-//W3C//DTD SVG 1.1//EN" "http://www.w3.org/Graphics/SVG/1.1/DTD/svg11.dtd">
<svg version="1.1" xmlns="http://www.w3.org/2000/svg" xmlns:xlink="http://www.w3.org/1999/xlink" width="32" height="32" viewBox="0 0 32 32">
<path d="M6.8 23.6c0 0.88 0.72 1.6 1.6 1.6h16c0.88 0 1.6-0.72 1.6-1.6v-14c0-0.88-0.72-1.6-1.6-1.6h-1.6v-1c0-0.56-0.44-1-1-1s-1 0.44-1 1v1h-1.6v-1c0-0.56-0.44-1-1-1s-1 0.44-1 1v1h-1.6v-1c0-0.56-0.44-1-1-1s-1 0.44-1 1v1h-1.6v-1c0-0.56-0.44-1-1-1s-1 0.44-1 1v1h-1.6c-0.88 0-1.6 0.72-1.6 1.6v14zM9.68 10h0.32v1.4c0 0.56 0.44 1 1 1s1-0.44 1-1v-1.4h1.6v1.4c0 0.56 0.44 1 1 1s1-0.44 1-1v-1.4h1.6v1.4c0 0.56 0.44 1 1 1s1-0.44 1-1v-1.4h1.6v1.4c0 0.56 0.44 1 1 1s1-0.44 1-1v-1.4h0.32c0.48 0 0.88 0.4 0.88 0.88v4.24c0 0.48-0.4 0.88-0.88 0.88h-13.44c-0.48 0-0.88-0.4-0.88-0.88v-4.24c0-0.48 0.4-0.88 0.88-0.88z"></path>
</svg>
