<?xml version="1.0" encoding="utf-8"?>
<!-- Generated by IcoMoon.io -->
<!DOCTYPE svg PUBLIC "-//W3C//DTD SVG 1.1//EN" "http://www.w3.org/Graphics/SVG/1.1/DTD/svg11.dtd">
<svg version="1.1" xmlns="http://www.w3.org/2000/svg" xmlns:xlink="http://www.w3.org/1999/xlink" width="32" height="32" viewBox="0 0 32 32">
<path d="M19.2 17.2h-6.4c-0.52 0-0.72 0.28-0.76 0.4s-0.16 0.44 0.2 0.84l2.92 3.24c0.2 0.24 0.52 0.36 0.84 0.36s0.6-0.12 0.84-0.36l2.92-3.24c0.36-0.4 0.28-0.72 0.2-0.84-0.040-0.12-0.24-0.4-0.76-0.4zM16 9.96c-0.32 0-0.6 0.12-0.84 0.36l-2.92 3.24c-0.36 0.4-0.28 0.72-0.2 0.84 0.040 0.12 0.24 0.4 0.76 0.4h6.4c0.52 0 0.72-0.28 0.76-0.4s0.16-0.44-0.2-0.84l-2.92-3.24c-0.24-0.24-0.52-0.36-0.84-0.36z"></path>
</svg>
