<?xml version="1.0" encoding="utf-8"?>
<!-- Generated by IcoMoon.io -->
<!DOCTYPE svg PUBLIC "-//W3C//DTD SVG 1.1//EN" "http://www.w3.org/Graphics/SVG/1.1/DTD/svg11.dtd">
<svg version="1.1" xmlns="http://www.w3.org/2000/svg" xmlns:xlink="http://www.w3.org/1999/xlink" width="32" height="32" viewBox="0 0 32 32">
<path d="M21.378 23.711c2.22-0.744 3.822-2.842 3.822-5.313v-7.196c0-3.092-2.508-5.602-5.602-5.602h-7.196c-3.092 0-5.602 2.508-5.602 5.602v7.196c0 3.092 2.508 5.602 5.602 5.602h3.598v2.4l5.378-2.689zM19.883 16.122l-1.136 0.14-0.146-1.191 3.176-0.39 0.39 3.176-1.191 0.146-0.143-1.167c-0.819 1.064-2.495 2.764-4.832 2.764-3 0-4.8-2.4-4.8-2.4l1-0.8c0 0 1.2 2 3.8 2 1.77 0 3.17-1.391 3.883-2.279v0z"></path>
</svg>
