<?xml version="1.0" encoding="utf-8"?>
<!-- Generated by IcoMoon.io -->
<!DOCTYPE svg PUBLIC "-//W3C//DTD SVG 1.1//EN" "http://www.w3.org/Graphics/SVG/1.1/DTD/svg11.dtd">
<svg version="1.1" xmlns="http://www.w3.org/2000/svg" xmlns:xlink="http://www.w3.org/1999/xlink" width="32" height="32" viewBox="0 0 32 32">
<path d="M23.542 7.791c2.345 2.345 2.387 6.098 0.094 8.391l-7.92 7.92c-1.667 1.667-4.398 1.636-6.103-0.069s-1.735-4.436-0.069-6.103l6.411-6.411c1.041-1.041 2.75-1.022 3.814 0.043s1.084 2.773 0.043 3.814l-5.657 5.657-1.543-1.543 5.725-5.725c0.415-0.415-0.357-1.186-0.771-0.771l-6.479 6.479c-0.83 0.83-0.814 2.203 0.034 3.051s2.222 0.864 3.051 0.034l7.92-7.92c1.456-1.456 1.429-3.851-0.060-5.34s-3.884-1.516-5.34-0.060l-7.165 7.165-1.543-1.543 7.165-7.165c2.293-2.293 6.046-2.251 8.391 0.094v0 0z"></path>
</svg>
