<?xml version="1.0" encoding="utf-8"?>
<!-- Generated by IcoMoon.io -->
<!DOCTYPE svg PUBLIC "-//W3C//DTD SVG 1.1//EN" "http://www.w3.org/Graphics/SVG/1.1/DTD/svg11.dtd">
<svg version="1.1" xmlns="http://www.w3.org/2000/svg" xmlns:xlink="http://www.w3.org/1999/xlink" width="32" height="32" viewBox="0 0 32 32">
<path d="M22.72 17.96c-0.24-0.76-0.8-1-1.6-1.48-0.2-0.12-0.4-0.28-0.6-0.36v-0.16c0.24-0.080 0.48-0.16 0.68-0.28 0.88-0.52 1.4-1.080 1.56-1.76v-3.56c-0.24-0.76-0.8-1.32-1.6-1.8-2.16-1.24-5.64-1.2-7.76 0.040-0.84 0.48-1.4 1.040-1.6 1.84h-0.040v1.76c-0.28 0.12-0.52 0.28-0.76 0.4-0.84 0.48-1.4 1.040-1.6 1.84h-0.040v3.16h0.040c0.040 0.8 0.6 1.56 1.64 2.16 0.24 0.12 0.48 0.2 0.76 0.28v1.16h0.040c0.040 0.8 0.6 1.8 1.64 2.4 2.16 1.24 5.68 1.12 7.8-0.12 0.88-0.52 1.4-1.24 1.56-1.92v-3.6zM13.76 9.16c0.96-0.56 2.2-0.84 3.48-0.84 1.24 0 2.52 0.28 3.48 0.84 0.88 0.48 1.32 1.12 1.32 1.8 0 0.64-0.48 1.28-1.32 1.76-1.92 1.12-5.040 1.12-6.96 0-0.84-0.48-1.32-1.12-1.32-1.8 0-0.64 0.48-1.24 1.32-1.76zM11.36 16.84c-0.84-0.48-1.32-1.12-1.32-1.8 0-0.64 0.48-1.28 1.32-1.76 0.12-0.080 0.24-0.12 0.36-0.16v0.48h0.040c0.040 0.8 0.6 1.48 1.64 2.080 1.52 0.88 3.72 1.12 5.6 0.76-0.16 0.16-0.4 0.28-0.64 0.44-1.96 1.080-5.080 1.080-7-0.040zM20.72 20.96c-1.92 1.12-5.040 1.12-6.96 0-0.28-0.16-0.52-0.36-0.72-0.52 1.92 0.36 4.16 0.16 5.72-0.72 1.040-0.6 1.56-1.32 1.6-2.12h0.12v-0.28c0.080 0.040 0.16 0.080 0.2 0.12 0.88 0.48 1.32 1.12 1.32 1.8 0.040 0.6-0.44 1.24-1.28 1.72z"></path>
</svg>
