<?xml version="1.0" encoding="utf-8"?>
<!-- Generated by IcoMoon.io -->
<!DOCTYPE svg PUBLIC "-//W3C//DTD SVG 1.1//EN" "http://www.w3.org/Graphics/SVG/1.1/DTD/svg11.dtd">
<svg version="1.1" xmlns="http://www.w3.org/2000/svg" xmlns:xlink="http://www.w3.org/1999/xlink" width="32" height="32" viewBox="0 0 32 32">
<path d="M21.52 20c-0.040 0.8-0.6 1.44-1.6 2.040-2.16 1.24-5.64 1.16-7.8-0.12-1.040-0.6-1.56-1.12-1.64-1.92h-0.040v2.8h0.040c0.040 0.8 0.6 1.44 1.64 2.040 2.16 1.24 5.68 1.32 7.8 0.040 1.040-0.6 1.56-1.28 1.6-2.080v-2.8zM21.52 10.8c-0.28-0.68-0.8-1.32-1.68-1.8-2.16-1.24-5.64-1.24-7.76 0-0.84 0.48-1.4 1.12-1.6 1.8h-0.040v3.2h0.040c0.040 0.76 0.6 1.56 1.64 2.16 2.16 1.24 5.68 1.24 7.8 0 1.040-0.6 1.56-1.36 1.6-2.16v-3.2zM19.52 13.24c-1.92 1.12-5.040 1.12-6.96 0-0.84-0.48-1.32-1.12-1.32-1.8 0-0.64 0.48-1.28 1.32-1.76 0.96-0.56 2.2-0.84 3.48-0.84 1.24 0 2.52 0.28 3.48 0.84 0.88 0.48 1.32 1.12 1.32 1.8-0.040 0.64-0.48 1.28-1.32 1.76zM21.52 15.6c-0.040 0.8-0.6 1.44-1.6 2.040-2.16 1.24-5.64 1.16-7.8-0.12-1.040-0.6-1.56-1.12-1.64-1.92h-0.040v2.8h0.040c0.040 0.8 0.6 1.44 1.64 2.040 2.16 1.24 5.68 1.32 7.8 0.040 1.040-0.6 1.56-1.28 1.6-2.080v-2.8z"></path>
</svg>
