<?xml version="1.0" encoding="utf-8"?>
<!-- Generated by IcoMoon.io -->
<!DOCTYPE svg PUBLIC "-//W3C//DTD SVG 1.1//EN" "http://www.w3.org/Graphics/SVG/1.1/DTD/svg11.dtd">
<svg version="1.1" xmlns="http://www.w3.org/2000/svg" xmlns:xlink="http://www.w3.org/1999/xlink" width="32" height="32" viewBox="0 0 32 32">
<path d="M24.2 18.88h-4.16v-1.6h3.96c0.040-0.12 0.080-0.32 0.080-0.6v-9.28h-9.28c-0.28 0-0.48 0.040-0.6 0.080v4.68h-1.6v-4.88c0-0.36 0.16-1.48 2.2-1.48h9.4c1.040 0 1.48 0.44 1.48 1.48v9.4c0 2.040-1.12 2.2-1.48 2.2zM4.84 20.32c-0.4 0.32-0.44 0.88-0.12 1.28l3.52 4.2c0.32 0.4 0.92 0.44 1.28 0.12l8.64-7.24c0.24-0.2 0.36-0.52 0.44-0.84l1.24-4.080c0.2-0.72-0.48-1.56-1.24-1.48l-4.2 0.48c-0.32 0.040-0.68 0.12-0.92 0.32l-8.64 7.24zM10.24 23.84c-0.2 0.16-0.48 0.12-0.64-0.040-0.16-0.2-0.12-0.48 0.040-0.64l7.080-5.96c0.24-0.2 0.28-0.56 0.080-0.8s-0.56-0.28-0.8-0.080l-7.12 5.96c-0.2 0.16-0.48 0.12-0.64-0.040-0.16-0.2-0.12-0.48 0.040-0.64l7.080-5.92c0.24-0.2 0.28-0.56 0.080-0.8s-0.56-0.28-0.8-0.080l-7.080 5.92c-0.2 0.16-0.48 0.12-0.64-0.040-0.16-0.2-0.12-0.48 0.040-0.64l7.32-6.16 2.2-0.24 1.64 1.96-0.6 2.12-7.28 6.12z"></path>
</svg>
