<?xml version="1.0" encoding="utf-8"?>
<!-- Generated by IcoMoon.io -->
<!DOCTYPE svg PUBLIC "-//W3C//DTD SVG 1.1//EN" "http://www.w3.org/Graphics/SVG/1.1/DTD/svg11.dtd">
<svg version="1.1" xmlns="http://www.w3.org/2000/svg" xmlns:xlink="http://www.w3.org/1999/xlink" width="32" height="32" viewBox="0 0 32 32">
<path d="M20.8 10.8c1.32 0 2.4 1.080 2.4 2.4v6.4c0 1.32-1.080 2.4-2.4 2.4h-9.6c-1.32 0-2.4-1.080-2.4-2.4v-6.4c0-1.32 1.080-2.4 2.4-2.4h9.6M20.8 10h-9.6c-1.76 0-3.2 1.44-3.2 3.2v6.4c0 1.76 1.44 3.2 3.2 3.2h9.6c1.76 0 3.2-1.44 3.2-3.2v-6.4c0-1.76-1.44-3.2-3.2-3.2zM10.8 19.6c0 0.44 0.36 0.8 0.8 0.8h2.4c0.44 0 0.8-0.36 0.8-0.8s-0.36-0.8-0.8-0.8h-2.4c-0.44 0-0.8 0.36-0.8 0.8zM8.8 14h14.4v3.2h-14.4z"></path>
</svg>
