<?xml version="1.0" encoding="utf-8"?>
<!-- Generated by IcoMoon.io -->
<!DOCTYPE svg PUBLIC "-//W3C//DTD SVG 1.1//EN" "http://www.w3.org/Graphics/SVG/1.1/DTD/svg11.dtd">
<svg version="1.1" xmlns="http://www.w3.org/2000/svg" xmlns:xlink="http://www.w3.org/1999/xlink" width="32" height="32" viewBox="0 0 32 32">
<path d="M22.28 22l-0.56-3.2c-0.080-0.44-0.48-0.88-0.88-1.040l-1.28-0.4c-0.24-0.080-0.6-0.080-0.92-0.040l-0.92 3.44c-0.040 0.2-0.28 0.4-0.52 0.4s-0.4-0.16-0.4-0.4v-2.76c0-0.4-0.36-0.8-0.8-0.8s-0.8 0.4-0.8 0.8v2.72c0 0.24-0.16 0.4-0.4 0.4s-0.44-0.16-0.52-0.4l-0.92-3.44c-0.32-0.040-0.64-0.040-0.92 0.040l-1.28 0.4c-0.4 0.12-0.84 0.6-0.88 1.040l-0.56 3.24c-0.080 0.44 0.24 0.8 0.68 0.8h11.2c0.44 0 0.76-0.36 0.68-0.8zM12.8 13.2c0 1.767 1.433 3.2 3.2 3.2s3.2-1.433 3.2-3.2c0-1.767-1.433-3.2-3.2-3.2s-3.2 1.433-3.2 3.2z"></path>
</svg>
