<?xml version="1.0" encoding="utf-8"?>
<!-- Generated by IcoMoon.io -->
<!DOCTYPE svg PUBLIC "-//W3C//DTD SVG 1.1//EN" "http://www.w3.org/Graphics/SVG/1.1/DTD/svg11.dtd">
<svg version="1.1" xmlns="http://www.w3.org/2000/svg" xmlns:xlink="http://www.w3.org/1999/xlink" width="32" height="32" viewBox="0 0 32 32">
<path d="M13.867 16.889c0-0.196-0.16-0.356-0.356-0.356h-1.422c-0.196 0-0.356 0.16-0.356 0.356v1.956c0 0.196 0.16 0.356 0.356 0.356h1.422c0.196 0 0.356-0.16 0.356-0.356v-1.956zM17.067 15.289c0-0.196-0.16-0.356-0.356-0.356h-1.422c-0.196 0-0.356 0.16-0.356 0.356v3.556c0 0.196 0.16 0.356 0.356 0.356h1.422c0.196 0 0.356-0.16 0.356-0.356v-3.556zM20.267 13.156c0-0.196-0.16-0.356-0.356-0.356h-1.422c-0.196 0-0.356 0.16-0.356 0.356v5.689c0 0.196 0.16 0.356 0.356 0.356h1.422c0.196 0 0.356-0.16 0.356-0.356v-5.689z"></path>
</svg>
