<?xml version="1.0" encoding="utf-8"?>
<!-- Generated by IcoMoon.io -->
<!DOCTYPE svg PUBLIC "-//W3C//DTD SVG 1.1//EN" "http://www.w3.org/Graphics/SVG/1.1/DTD/svg11.dtd">
<svg version="1.1" xmlns="http://www.w3.org/2000/svg" xmlns:xlink="http://www.w3.org/1999/xlink" width="32" height="32" viewBox="0 0 32 32">
<path d="M18.16 13.64c-0.32-0.32-0.8-0.32-1.12 0l-4.52 4.52c-0.32 0.32-0.32 0.84 0 1.12 0.32 0.32 0.84 0.32 1.12 0l4.52-4.52c0.32-0.32 0.32-0.8 0-1.12zM19.080 13.48c0-0.44-0.36-0.8-0.8-0.8h-4.8c-0.44 0-0.8 0.36-0.8 0.8s0.36 0.8 0.8 0.8h4.8c0.44 0 0.8-0.36 0.8-0.8zM18.28 12.68c-0.44 0-0.8 0.36-0.8 0.8v4.88c0 0.44 0.36 0.8 0.8 0.8s0.8-0.36 0.8-0.8v-4.88c0-0.44-0.36-0.8-0.8-0.8z"></path>
</svg>
