<?xml version="1.0" encoding="utf-8"?>
<!-- Generated by IcoMoon.io -->
<!DOCTYPE svg PUBLIC "-//W3C//DTD SVG 1.1//EN" "http://www.w3.org/Graphics/SVG/1.1/DTD/svg11.dtd">
<svg version="1.1" xmlns="http://www.w3.org/2000/svg" xmlns:xlink="http://www.w3.org/1999/xlink" width="32" height="32" viewBox="0 0 32 32">
<path d="M19.16 23.36c-0.52 0-0.96-0.32-1.12-0.8l-3.36-9.2-1.6 4.4c-0.16 0.48-0.6 0.8-1.12 0.8s-0.96-0.32-1.12-0.76l-0.72-1.84-1.4 3.6c-0.24 0.6-0.92 0.92-1.56 0.68-0.6-0.24-0.92-0.92-0.68-1.56l2.52-6.64c0.16-0.48 0.64-0.88 1.12-0.88s0.92 0.4 1.12 0.88l0.68 1.8 1.64-4.48c0.16-0.48 0.6-0.8 1.12-0.76 0.52 0 0.96 0.32 1.12 0.8l3.36 9.2 2.32-6.44c0.16-0.48 0.6-0.8 1.12-0.8 0.52-0.040 0.96 0.28 1.12 0.76l1.8 4.56c0.24 0.6-0.080 1.32-0.68 1.56s-1.32-0.080-1.56-0.68l-0.64-1.6-2.36 6.52c-0.16 0.56-0.64 0.88-1.12 0.88z"></path>
</svg>
