<?xml version="1.0" encoding="utf-8"?>
<!-- Generated by IcoMoon.io -->
<!DOCTYPE svg PUBLIC "-//W3C//DTD SVG 1.1//EN" "http://www.w3.org/Graphics/SVG/1.1/DTD/svg11.dtd">
<svg version="1.1" xmlns="http://www.w3.org/2000/svg" xmlns:xlink="http://www.w3.org/1999/xlink" width="32" height="32" viewBox="0 0 32 32">
<path d="M20 11.4c0 0.56 0.44 1 1 1s1-0.44 1-1-0.44-1-1-1-1 0.44-1 1zM10 16.8v1.12c0 0.48 0.4 0.88 0.88 0.88h11.12l-3.84-3.76c-0.32-0.32-0.84-0.32-1.16 0l-0.8 0.8-2.040-2c-0.32-0.32-0.88-0.32-1.2 0l-2.96 2.96zM6.4 23.6c0 0.88 0.72 1.6 1.6 1.6h16c0.88 0 1.6-0.72 1.6-1.6v-15.2c0-0.88-0.72-1.6-1.6-1.6h-16c-0.88 0-1.6 0.72-1.6 1.6v15.2zM9.28 8.8h13.44c0.48 0 0.88 0.4 0.88 0.88v9.84c0 0.48-0.4 0.88-0.88 0.88h-13.44c-0.48 0-0.88-0.4-0.88-0.88v-9.84c0-0.48 0.4-0.88 0.88-0.88z"></path>
</svg>
