<?xml version="1.0" encoding="utf-8"?>
<!-- Generated by IcoMoon.io -->
<!DOCTYPE svg PUBLIC "-//W3C//DTD SVG 1.1//EN" "http://www.w3.org/Graphics/SVG/1.1/DTD/svg11.dtd">
<svg version="1.1" xmlns="http://www.w3.org/2000/svg" xmlns:xlink="http://www.w3.org/1999/xlink" width="32" height="32" viewBox="0 0 32 32">
<path d="M10 6.4c-0.88 0-1.6 0.72-1.6 1.6v16c0 0.88 0.72 1.6 1.6 1.6h12c0.88 0 1.6-0.72 1.6-1.6v-12.040c0-0.52-0.2-1-0.56-1.36l-3.64-3.64c-0.36-0.32-0.84-0.56-1.4-0.56h-8zM15.6 9.2c0-0.44 0.36-0.8 0.8-0.8s0.8 0.36 0.8 0.8v3c0 0.32 0.28 0.6 0.6 0.6h3c0.44 0 0.8 0.36 0.8 0.8s-0.36 0.8-0.8 0.8h-3.6c-0.88 0-1.6-0.72-1.6-1.6v-3.6z"></path>
</svg>
