<?xml version="1.0" encoding="utf-8"?>
<!-- Generated by IcoMoon.io -->
<!DOCTYPE svg PUBLIC "-//W3C//DTD SVG 1.1//EN" "http://www.w3.org/Graphics/SVG/1.1/DTD/svg11.dtd">
<svg version="1.1" xmlns="http://www.w3.org/2000/svg" xmlns:xlink="http://www.w3.org/1999/xlink" width="32" height="32" viewBox="0 0 32 32">
<path d="M6.4 22.2c0 0.88 0.72 1.6 1.6 1.6h16c0.88 0 1.6-0.72 1.6-1.6v-10.8c0-0.88-0.72-1.6-1.6-1.6h-8v-0.72c0-0.48-0.4-0.88-0.88-0.88h-4.24c-0.48 0-0.88 0.4-0.88 0.88v11.92c0 0.44-0.36 0.8-0.8 0.8s-0.8-0.36-0.8-0.8v-10.2c0-0.56-0.44-1-1-1s-1 0.44-1 1v11.4z"></path>
</svg>
