<?xml version="1.0" encoding="utf-8"?>
<!-- Generated by IcoMoon.io -->
<!DOCTYPE svg PUBLIC "-//W3C//DTD SVG 1.1//EN" "http://www.w3.org/Graphics/SVG/1.1/DTD/svg11.dtd">
<svg version="1.1" xmlns="http://www.w3.org/2000/svg" xmlns:xlink="http://www.w3.org/1999/xlink" width="32" height="32" viewBox="0 0 32 32">
<path d="M21.32 16c0-0.28-0.040-0.56-0.080-0.8l1.16-0.88c-0.32-1.080-0.88-2-1.68-2.76l-1.36 0.52c-0.44-0.36-0.92-0.6-1.48-0.8l-0.24-1.4c-0.52-0.2-1.080-0.28-1.64-0.28s-1.12 0.080-1.68 0.2l-0.2 1.4c-0.52 0.2-1.040 0.48-1.48 0.8l-1.36-0.52c-0.76 0.76-1.36 1.72-1.68 2.76l1.16 0.88c-0.040 0.28-0.080 0.52-0.080 0.8s0.040 0.56 0.080 0.8l-1.16 1c0.32 1.080 0.88 2 1.68 2.76l1.36-0.52c0.44 0.36 0.92 0.6 1.48 0.8l0.24 1.4c0.52 0.12 1.080 0.2 1.68 0.2 0.56 0 1.12-0.080 1.68-0.2l0.24-1.4c0.52-0.2 1.040-0.48 1.48-0.8l1.36 0.52c0.76-0.76 1.36-1.72 1.68-2.76l-1.24-0.92c0.040-0.24 0.080-0.52 0.080-0.8zM16 18.68c-1.48 0-2.68-1.2-2.68-2.68s1.2-2.68 2.68-2.68 2.68 1.2 2.68 2.68-1.2 2.68-2.68 2.68z"></path>
</svg>
