<?xml version="1.0" encoding="utf-8"?>
<!-- Generated by IcoMoon.io -->
<!DOCTYPE svg PUBLIC "-//W3C//DTD SVG 1.1//EN" "http://www.w3.org/Graphics/SVG/1.1/DTD/svg11.dtd">
<svg version="1.1" xmlns="http://www.w3.org/2000/svg" xmlns:xlink="http://www.w3.org/1999/xlink" width="32" height="32" viewBox="0 0 32 32">
<path d="M25.76 7.84c-0.24-0.24-0.52-0.36-0.84-0.36h-17.52c-0.32 0-0.6 0.12-0.84 0.36-0.24 0.2-0.36 0.52-0.36 0.84v12.32c0 0.32 0.12 0.6 0.36 0.84 0.2 0.24 0.52 0.36 0.84 0.36h6.24v1.2h-1.64c-1 0-1.84 0.8-1.84 1.84h12.040c0-1-0.8-1.84-1.84-1.84h-1.64v-1.2h6.24c0.32 0 0.6-0.12 0.84-0.36 0.2-0.2 0.36-0.52 0.36-0.84v-12.32c-0.040-0.32-0.16-0.6-0.4-0.84zM23.76 19.84h-15.2v-9.96h15.2v9.96zM17.24 16.76c0.040 0.16 0.16 0.24 0.32 0.28h0.040c0.12 0 0.24-0.080 0.32-0.16l0.52-0.8 1.2 1.68c0.080 0.12 0.2 0.16 0.32 0.16 0.080 0 0.16-0.040 0.2-0.080l0.44-0.32c0.080-0.040 0.12-0.16 0.16-0.24 0-0.080 0-0.2-0.080-0.28l-1.2-1.68 0.92-0.24c0.16-0.040 0.24-0.16 0.28-0.32s-0.040-0.28-0.16-0.36l-3.8-2.32c-0.12-0.080-0.28-0.080-0.4 0s-0.16 0.24-0.16 0.4l1.080 4.28z"></path>
</svg>
