<?xml version="1.0" encoding="utf-8"?>
<!-- Generated by IcoMoon.io -->
<!DOCTYPE svg PUBLIC "-//W3C//DTD SVG 1.1//EN" "http://www.w3.org/Graphics/SVG/1.1/DTD/svg11.dtd">
<svg version="1.1" xmlns="http://www.w3.org/2000/svg" xmlns:xlink="http://www.w3.org/1999/xlink" width="32" height="32" viewBox="0 0 32 32">
<path d="M22.8 11.48s-1.16 1.44-3.36 1.040c-2.2-0.44-2.2-1.16-4.4-1.88s-4 1-4 1l2.080 7.76s1.8-1.72 4-1c2.2 0.72 2.16 1.44 4.4 1.88 2.16 0.4 3.36-1.040 3.36-1.040l-2.080-7.76zM10.080 11.16l0.2-0.040c0.32-0.080 0.56-0.44 0.44-0.76-0.080-0.32-0.44-0.56-0.76-0.44l-1.68 0.44c-0.32 0.080-0.56 0.44-0.44 0.76 0.080 0.28 0.32 0.48 0.6 0.48 0.040 0 0.12 0 0.16-0.040l0.2-0.040 3.040 11.28h1.32l-3.080-11.64z"></path>
</svg>
