<?xml version="1.0" encoding="utf-8"?>
<!-- Generated by IcoMoon.io -->
<!DOCTYPE svg PUBLIC "-//W3C//DTD SVG 1.1//EN" "http://www.w3.org/Graphics/SVG/1.1/DTD/svg11.dtd">
<svg version="1.1" xmlns="http://www.w3.org/2000/svg" xmlns:xlink="http://www.w3.org/1999/xlink" width="32" height="32" viewBox="0 0 32 32">
<path d="M9.48 12.88c-0.28 0-0.52 0.24-0.52 0.52s0.24 0.52 0.52 0.52h2c0.28 0 0.52-0.24 0.52-0.52s-0.24-0.52-0.52-0.52h-2zM19.48 12.88c-0.28 0-0.52 0.24-0.52 0.52s0.24 0.52 0.52 0.52h2c0.28 0 0.52-0.24 0.52-0.52s-0.24-0.52-0.52-0.52h-2zM14.96 9.36c0 0.28 0.24 0.52 0.52 0.52s0.52-0.24 0.52-0.52v-2c0-0.28-0.24-0.52-0.52-0.52s-0.52 0.24-0.52 0.52v2zM10.88 17.28c-0.2 0.2-0.2 0.52 0 0.72s0.52 0.2 0.72 0l1.4-1.4c0.2-0.2 0.2-0.52 0-0.72s-0.52-0.2-0.72 0l-1.4 1.4zM17.92 10.2c-0.2 0.2-0.2 0.52 0 0.72s0.52 0.2 0.72 0l1.4-1.4c0.2-0.2 0.2-0.52 0-0.72s-0.52-0.2-0.72 0l-1.4 1.4zM12.28 10.92c0.2 0.2 0.52 0.2 0.72 0s0.2-0.52 0-0.72l-1.4-1.4c-0.2-0.2-0.52-0.2-0.72 0s-0.2 0.52 0 0.72l1.4 1.4zM21.84 26.12c0.96-1.56 1.52-3.4 1.52-5.2 0-0.8-0.080-1.56-0.28-2.32-0.16-0.52-0.56-0.92-1.12-0.92-0.32 0-0.64 0.16-0.84 0.36v-0.080c0-0.64-0.52-1.12-1.12-1.12s-1.12 0.52-1.12 1.12v-0.56c0-0.64-0.52-1.12-1.12-1.12-0.64 0-1.12 0.52-1.12 1.12v-3.64c0-0.64-0.52-1.12-1.12-1.12-0.64 0-1.12 0.52-1.12 1.12v6.4c0 0.32-0.24 0.56-0.56 0.56-0.040 0-0.12 0-0.16-0.040l-1.6-0.64c-0.16-0.080-0.32-0.12-0.52-0.12-0.64 0-1.12 0.52-1.12 1.12 0 0.48 0.28 0.88 0.68 1.040 1.84 0.96 3.28 2.080 4.32 4.040h6.4z"></path>
</svg>
