<?xml version="1.0" encoding="utf-8"?>
<!-- Generated by IcoMoon.io -->
<!DOCTYPE svg PUBLIC "-//W3C//DTD SVG 1.1//EN" "http://www.w3.org/Graphics/SVG/1.1/DTD/svg11.dtd">
<svg version="1.1" xmlns="http://www.w3.org/2000/svg" xmlns:xlink="http://www.w3.org/1999/xlink" width="32" height="32" viewBox="0 0 32 32">
<path d="M17.92 7.68c-0.12-0.12-0.32-0.12-0.32 0.16v4.12c0 0.28-0.2 0.48-0.44 0.48h-5.52c-2.84-0.040-2.84 1.4-2.84 2.28 0 0.32 0.24 0.48 0.56 0.48h16.84c0.2 0 0.28-0.2 0.12-0.32l-8.4-7.2zM14.080 24.32c0.12 0.12 0.32 0.12 0.32-0.16v-4.080c0-0.28 0.2-0.48 0.44-0.48h5.48c2.84 0 2.84-1.44 2.84-2.32 0-0.32-0.24-0.48-0.56-0.48h-16.8c-0.2 0-0.28 0.2-0.12 0.32l8.4 7.2z"></path>
</svg>
