<?xml version="1.0" encoding="utf-8"?>
<!-- Generated by IcoMoon.io -->
<!DOCTYPE svg PUBLIC "-//W3C//DTD SVG 1.1//EN" "http://www.w3.org/Graphics/SVG/1.1/DTD/svg11.dtd">
<svg version="1.1" xmlns="http://www.w3.org/2000/svg" xmlns:xlink="http://www.w3.org/1999/xlink" width="32" height="32" viewBox="0 0 32 32">
<path d="M18.080 20.92c-0.32 0-0.64-0.2-0.76-0.52l-2.24-6.12-1.080 2.96c-0.12 0.32-0.4 0.52-0.76 0.52-0.32 0-0.64-0.2-0.76-0.52l-0.48-1.2-0.92 2.4c-0.16 0.4-0.64 0.6-1.040 0.48-0.4-0.16-0.6-0.64-0.48-1.040l1.68-4.44c0.12-0.32 0.4-0.6 0.76-0.6 0.32 0 0.64 0.28 0.76 0.6l0.44 1.2 1.12-3c0.12-0.32 0.4-0.52 0.76-0.52 0.32 0 0.64 0.2 0.76 0.52l2.24 6.12 1.56-4.28c0.12-0.32 0.4-0.52 0.76-0.52s0.64 0.2 0.76 0.52l1.2 3.040c0.16 0.4-0.040 0.88-0.44 1.040s-0.88-0.040-1.040-0.44l-0.4-1.080-1.6 4.36c-0.16 0.28-0.44 0.52-0.8 0.52z"></path>
</svg>
