<?xml version="1.0" encoding="utf-8"?>
<!-- Generated by IcoMoon.io -->
<!DOCTYPE svg PUBLIC "-//W3C//DTD SVG 1.1//EN" "http://www.w3.org/Graphics/SVG/1.1/DTD/svg11.dtd">
<svg version="1.1" xmlns="http://www.w3.org/2000/svg" xmlns:xlink="http://www.w3.org/1999/xlink" width="32" height="32" viewBox="0 0 32 32">
<path d="M16.4 12.36c-0.32-1.24-1.92-1.96-3.16-1.96-2.44 0-4.44 1.88-4.44 4.4 0 4.76 4.52 6 6.96 8.88l0.080 0.080c0.32 0.32 0.8 0.32 1.12 0l0.080-0.080c2.44-2.84 6.96-4.080 6.96-8.88 0-2.52-2-4.4-4.44-4.4-1.24 0-2.84 0.72-3.16 1.96zM19.76 13.24c-0.28-0.040-0.52-0.32-0.52-0.64 0-0.36 0.28-0.64 0.64-0.64 0.52 0 1.12 0.36 1.64 0.88s0.92 1.2 0.92 1.68c0 0.36-0.28 0.64-0.64 0.64-0.32 0-0.56-0.24-0.64-0.52-0.16-0.68-0.72-1.24-1.4-1.4z"></path>
</svg>
