<?xml version="1.0" encoding="utf-8"?>
<!-- Generated by IcoMoon.io -->
<!DOCTYPE svg PUBLIC "-//W3C//DTD SVG 1.1//EN" "http://www.w3.org/Graphics/SVG/1.1/DTD/svg11.dtd">
<svg version="1.1" xmlns="http://www.w3.org/2000/svg" xmlns:xlink="http://www.w3.org/1999/xlink" width="32" height="32" viewBox="0 0 32 32">
<path d="M16.68 22.16c-0.2 0.2-0.48 0.32-0.76 0.32s-0.56-0.12-0.8-0.32c-0.24-0.2-0.32-0.44-0.32-0.76 0-0.28 0.12-0.56 0.32-0.76s0.48-0.32 0.76-0.32 0.56 0.12 0.8 0.32c0.24 0.2 0.32 0.44 0.32 0.76 0 0.28-0.12 0.56-0.32 0.76zM18.4 16.2c-0.2 0.24-0.32 0.4-0.4 0.48s-0.24 0.2-0.4 0.36l-0.4 0.4c-0.12 0.12-0.16 0.2-0.2 0.28-0.16 0.2-0.2 0.52-0.2 0.88v0.6h-1.6v-0.8c0-0.4-0.040-0.68 0.080-0.84 0.080-0.2 0.24-0.44 0.56-0.76l1.040-1.040c0.24-0.24 0.32-0.52 0.32-0.88s-0.12-0.64-0.36-0.88c-0.24-0.24-0.52-0.36-0.88-0.36s-0.68 0.080-0.92 0.32-0.4 0.48-0.44 0.88h-1.76c0.080-0.8 0.44-1.48 1-2 0.56-0.48 1.28-0.72 2.12-0.72s1.56 0.24 2.080 0.72c0.52 0.48 0.8 1.12 0.8 1.96 0.040 0.56-0.12 1.040-0.44 1.4z"></path>
</svg>
