<?xml version="1.0" encoding="utf-8"?>
<!-- Generated by IcoMoon.io -->
<!DOCTYPE svg PUBLIC "-//W3C//DTD SVG 1.1//EN" "http://www.w3.org/Graphics/SVG/1.1/DTD/svg11.dtd">
<svg version="1.1" xmlns="http://www.w3.org/2000/svg" xmlns:xlink="http://www.w3.org/1999/xlink" width="32" height="32" viewBox="0 0 32 32">
<path d="M16 4c-6.64 0-12 5.36-12 12s5.36 12 12 12 12-5.36 12-12-5.36-12-12-12zM16.2 6.88c1.48 0 2.72 1.2 2.72 2.72s-1.2 2.72-2.72 2.72-2.72-1.2-2.72-2.72 1.24-2.72 2.72-2.72zM19.76 23.2h-7.12c-0.48 0-0.84-0.32-0.84-0.8s0.36-0.8 0.84-0.8h0.96v-6.4h-0.96c-0.48 0-0.84-0.32-0.84-0.8s0.36-0.8 0.84-0.8h5.52c0.4 0 0.64 0.36 0.64 0.8v7.2h0.96c0.48 0 0.84 0.32 0.84 0.8s-0.36 0.8-0.84 0.8z"></path>
</svg>
