<?xml version="1.0" encoding="utf-8"?>
<!-- Generated by IcoMoon.io -->
<!DOCTYPE svg PUBLIC "-//W3C//DTD SVG 1.1//EN" "http://www.w3.org/Graphics/SVG/1.1/DTD/svg11.dtd">
<svg version="1.1" xmlns="http://www.w3.org/2000/svg" xmlns:xlink="http://www.w3.org/1999/xlink" width="32" height="32" viewBox="0 0 32 32">
<path d="M16.28 8c-4.4 0-8 3.6-8 8s3.6 8 8 8 8-3.6 8-8-3.6-8-8-8zM17.48 19.8c0 0.68-0.52 1.2-1.2 1.2s-1.2-0.52-1.2-1.2v-4c0-0.68 0.52-1.2 1.2-1.2s1.2 0.52 1.2 1.2v4zM16.28 13.4c-0.68 0-1.2-0.52-1.2-1.2s0.52-1.2 1.2-1.2 1.2 0.52 1.2 1.2-0.56 1.2-1.2 1.2z"></path>
</svg>
