<?xml version="1.0" encoding="utf-8"?>
<!-- Generated by IcoMoon.io -->
<!DOCTYPE svg PUBLIC "-//W3C//DTD SVG 1.1//EN" "http://www.w3.org/Graphics/SVG/1.1/DTD/svg11.dtd">
<svg version="1.1" xmlns="http://www.w3.org/2000/svg" xmlns:xlink="http://www.w3.org/1999/xlink" width="32" height="32" viewBox="0 0 32 32">
<path d="M10.16 8.24l-1.12 1.12c-1.56 1.56-1.56 4.12 0 5.64l2.16 2.16c-0.080-0.96 0.080-1.96 0.56-2.84l-1.040-1.040c-0.6-0.6-0.6-1.64 0-2.28l1.12-1.12c0.6-0.6 1.64-0.6 2.28 0l3.4 3.4c0.6 0.6 0.6 1.64 0 2.28l-1.12 1.16c-0.080 0.080-0.2 0.16-0.32 0.24 0 0 0 0.040 0.040 0.040l1.68 1.68c0.12-0.080 0.2-0.16 0.32-0.28l1.12-1.12c1.56-1.56 1.56-4.12 0-5.64l-3.4-3.4c-1.56-1.56-4.12-1.56-5.68 0zM21.040 16.84l1.040 1.040c0.6 0.6 0.6 1.64 0 2.28l-1.12 1.12c-0.6 0.6-1.64 0.6-2.28 0l-3.4-3.4c-0.6-0.6-0.6-1.64 0-2.28l1.12-1.12c0.080-0.080 0.2-0.16 0.32-0.24 0 0 0-0.040-0.040-0.040l-1.68-1.68c-0.12 0.080-0.2 0.16-0.28 0.28l-1.12 1.12c-1.6 1.52-1.6 4.080-0.040 5.64l3.4 3.4c1.56 1.56 4.12 1.56 5.64 0l1.12-1.12c1.56-1.56 1.56-4.12 0-5.64l-2.16-2.2c0.12 0.96-0.080 1.96-0.52 2.84z"></path>
</svg>
