<?xml version="1.0" encoding="utf-8"?>
<!-- Generated by IcoMoon.io -->
<!DOCTYPE svg PUBLIC "-//W3C//DTD SVG 1.1//EN" "http://www.w3.org/Graphics/SVG/1.1/DTD/svg11.dtd">
<svg version="1.1" xmlns="http://www.w3.org/2000/svg" xmlns:xlink="http://www.w3.org/1999/xlink" width="32" height="32" viewBox="0 0 32 32">
<path d="M22.999 22c0.553 0 1.001-0.444 1.001-1v0c0-0.552-0.445-1-1.001-1h-13.998c-0.553 0-1.001 0.444-1.001 1v0c0 0.552 0.445 1 1.001 1h13.998zM22.999 17c0.553 0 1.001-0.444 1.001-1v0c0-0.552-0.445-1-1.001-1h-13.998c-0.553 0-1.001 0.444-1.001 1v0c0 0.552 0.445 1 1.001 1h13.998zM8 11c0 0.552 0.445 1 1.001 1h13.998c0.553 0 1.001-0.444 1.001-1v0c0-0.552-0.445-1-1.001-1h-13.998c-0.553 0-1.001 0.444-1.001 1v0z"></path>
</svg>
