<?xml version="1.0" encoding="utf-8"?>
<!-- Generated by IcoMoon.io -->
<!DOCTYPE svg PUBLIC "-//W3C//DTD SVG 1.1//EN" "http://www.w3.org/Graphics/SVG/1.1/DTD/svg11.dtd">
<svg version="1.1" xmlns="http://www.w3.org/2000/svg" xmlns:xlink="http://www.w3.org/1999/xlink" width="32" height="32" viewBox="0 0 32 32">
<path d="M10.8 12v2.8h-1.2c-0.88 0-1.6 0.72-1.6 1.6v8c0 0.88 0.72 1.6 1.6 1.6h12.8c0.88 0 1.6-0.72 1.6-1.6v-8c0-0.88-0.72-1.6-1.6-1.6h-1.2v-2.8c0-2.88-2.32-5.2-5.2-5.2s-5.2 2.32-5.2 5.2zM12.8 14.8v-2.8c0-1.76 1.44-3.2 3.2-3.2s3.2 1.44 3.2 3.2v2.8h-6.4zM14.4 19.2c0-0.88 0.72-1.6 1.6-1.6s1.6 0.72 1.6 1.6c0 0.56-0.28 1.040-0.72 1.36 0 0 0.16 0.96 0.32 2.040 0 0.32-0.28 0.6-0.6 0.6h-1.2c-0.32 0-0.6-0.28-0.6-0.6l0.32-2.040c-0.44-0.32-0.72-0.8-0.72-1.36z"></path>
</svg>
