<?xml version="1.0" encoding="utf-8"?>
<!-- Generated by IcoMoon.io -->
<!DOCTYPE svg PUBLIC "-//W3C//DTD SVG 1.1//EN" "http://www.w3.org/Graphics/SVG/1.1/DTD/svg11.dtd">
<svg version="1.1" xmlns="http://www.w3.org/2000/svg" xmlns:xlink="http://www.w3.org/1999/xlink" width="32" height="32" viewBox="0 0 32 32">
<path d="M9.2 21c-0.48 0.48-0.48 1.24 0 1.68 0.48 0.48 1.24 0.48 1.68 0l3.44-3.44c0.8 0.52 1.76 0.8 2.76 0.8 2.92 0 5.24-2.36 5.24-5.24s-2.32-5.28-5.24-5.28-5.24 2.36-5.24 5.24c0 1 0.28 1.96 0.8 2.76l-3.44 3.48zM13.36 14.76c0-2.080 1.68-3.76 3.76-3.76s3.76 1.68 3.76 3.76-1.68 3.76-3.76 3.76-3.76-1.68-3.76-3.76z"></path>
</svg>
