<?xml version="1.0" encoding="utf-8"?>
<!-- Generated by IcoMoon.io -->
<!DOCTYPE svg PUBLIC "-//W3C//DTD SVG 1.1//EN" "http://www.w3.org/Graphics/SVG/1.1/DTD/svg11.dtd">
<svg version="1.1" xmlns="http://www.w3.org/2000/svg" xmlns:xlink="http://www.w3.org/1999/xlink" width="32" height="32" viewBox="0 0 32 32">
<path d="M13.2 21.32c0-0.44-0.36-0.8-0.8-0.8h-1.6c-0.44 0-0.8 0.36-0.8 0.8v1.48c0 0.44 0.36 0.8 0.8 0.8h1.6c0.44 0 0.8-0.36 0.8-0.8v-1.48zM18 20c0-0.44-0.36-0.8-0.8-0.8h-1.6c-0.44 0-0.8 0.36-0.8 0.8v2.8c0 0.44 0.36 0.8 0.8 0.8h1.6c0.44 0 0.8-0.36 0.8-0.8v-2.8zM22.8 18.4c0-0.44-0.36-0.8-0.8-0.8h-1.6c-0.44 0-0.8 0.36-0.8 0.8v4.4c0 0.44 0.36 0.8 0.8 0.8h1.6c0.44 0 0.8-0.36 0.8-0.8v-4.4zM23.8 9.48c-0.32-0.32-0.8-0.32-1.12 0l-5.8 5.76c-0.32 0.32-0.32 0.84 0 1.12 0.32 0.32 0.84 0.32 1.12 0l5.76-5.76c0.36-0.32 0.36-0.8 0.040-1.12zM24.72 9.32c0-0.44-0.36-0.8-0.8-0.8h-4.8c-0.44 0-0.8 0.36-0.8 0.8s0.36 0.8 0.8 0.8h4.8c0.44 0 0.8-0.36 0.8-0.8zM23.92 8.52c-0.44 0-0.8 0.36-0.8 0.8v4.88c0 0.44 0.36 0.8 0.8 0.8s0.8-0.36 0.8-0.8v-4.88c0-0.44-0.36-0.8-0.8-0.8zM13.080 12.68c-0.2 0.2-0.24 0.6 0 0.8l3.56 3.6c0.2 0.24 0.56 0.24 0.8 0l0.32-0.32c0.2-0.2 0.2-0.56 0-0.8l-3.56-3.56c-0.2-0.2-0.56-0.2-0.8 0l-0.32 0.28zM14.28 12.56c-0.32-0.32-0.8-0.32-1.12 0l-5.8 5.76c-0.32 0.32-0.32 0.84 0 1.12 0.32 0.32 0.84 0.32 1.12 0l5.76-5.76c0.32-0.28 0.32-0.8 0.040-1.12z"></path>
</svg>
