<?xml version="1.0" encoding="utf-8"?>
<!-- Generated by IcoMoon.io -->
<!DOCTYPE svg PUBLIC "-//W3C//DTD SVG 1.1//EN" "http://www.w3.org/Graphics/SVG/1.1/DTD/svg11.dtd">
<svg version="1.1" xmlns="http://www.w3.org/2000/svg" xmlns:xlink="http://www.w3.org/1999/xlink" width="32" height="32" viewBox="0 0 32 32">
<path d="M16.8 4.92c-5.96 0-10.8 4.92-10.8 11 0 2.76 1 5.28 2.68 7.24l-2.16 2.36c-0.84 0.84-0.56 1.72 0.64 1.72h9.64c5.96 0 10.8-5.080 10.8-11.12s-4.84-11.2-10.8-11.2zM19.2 18.4h-4c-0.44 0-0.8-0.36-0.8-0.8s0.36-0.8 0.8-0.8h4c0.44 0 0.8 0.36 0.8 0.8s-0.36 0.8-0.8 0.8zM19.2 15.2h-6.4c-0.44 0-0.8-0.36-0.8-0.8s0.36-0.8 0.8-0.8h6.4c0.44 0 0.8 0.36 0.8 0.8s-0.36 0.8-0.8 0.8z"></path>
</svg>
