<?xml version="1.0" encoding="utf-8"?>
<!-- Generated by IcoMoon.io -->
<!DOCTYPE svg PUBLIC "-//W3C//DTD SVG 1.1//EN" "http://www.w3.org/Graphics/SVG/1.1/DTD/svg11.dtd">
<svg version="1.1" xmlns="http://www.w3.org/2000/svg" xmlns:xlink="http://www.w3.org/1999/xlink" width="32" height="32" viewBox="0 0 32 32">
<path d="M9.24 9.76v12.48c0 2.080 1.68 3.76 3.76 3.76h6.040c2.080 0 3.76-1.68 3.76-3.76v-12.48c0-2.080-1.68-3.76-3.76-3.76h-6.040c-2.080 0-3.76 1.68-3.76 3.76zM16 24.36c-0.6 0-1.040-0.48-1.040-1.040 0-0.6 0.48-1.080 1.040-1.080 0.6 0 1.080 0.48 1.080 1.080-0.040 0.56-0.48 1.040-1.080 1.040zM14.92 7.6h2.16c0.28 0 0.52 0.24 0.52 0.52s-0.24 0.52-0.52 0.52h-2.16c-0.28 0-0.52-0.24-0.52-0.52s0.24-0.52 0.52-0.52zM11.2 10h9.6v11.2h-9.6v-11.2z"></path>
</svg>
