<?xml version="1.0" encoding="utf-8"?>
<!-- Generated by IcoMoon.io -->
<!DOCTYPE svg PUBLIC "-//W3C//DTD SVG 1.1//EN" "http://www.w3.org/Graphics/SVG/1.1/DTD/svg11.dtd">
<svg version="1.1" xmlns="http://www.w3.org/2000/svg" xmlns:xlink="http://www.w3.org/1999/xlink" width="32" height="32" viewBox="0 0 32 32">
<path d="M25.179 8.753l-2.034 2.034c0.054 0.212 0.083 0.435 0.083 0.664v12.537c0 1.48-1.202 2.679-2.679 2.679h-12.537c-1.48 0-2.679-1.202-2.679-2.679v-12.537c0-1.48 1.202-2.679 2.679-2.679h12.537c0.372 0 0.726 0.076 1.048 0.213l1.914-1.899-2.842-2.842 7.304-0.244-0.244 7.304-2.551-2.551zM19.407 11.158h-11.688v13.123h13.123v-11.19l-7.828 7.828-1.716-1.716 8.109-8.045z"></path>
</svg>
