<?xml version="1.0" encoding="utf-8"?>
<!-- Generated by IcoMoon.io -->
<!DOCTYPE svg PUBLIC "-//W3C//DTD SVG 1.1//EN" "http://www.w3.org/Graphics/SVG/1.1/DTD/svg11.dtd">
<svg version="1.1" xmlns="http://www.w3.org/2000/svg" xmlns:xlink="http://www.w3.org/1999/xlink" width="32" height="32" viewBox="0 0 32 32">
<path d="M16.24 9.68c-0.36-0.28-0.92-0.28-1.28 0l-5.12 3.84c-0.36 0.28-0.64 0.84-0.64 1.28v7.2c0 0.44 0.36 0.8 0.8 0.8h11.2c0.44 0 0.8-0.36 0.8-0.8v-7.2c0-0.44-0.28-1-0.64-1.28l-5.12-3.84zM16.24 18.32c-0.36 0.28-0.92 0.28-1.28 0l-3-2.24c-0.36-0.28-0.28-0.48 0.16-0.48h6.92c0.44 0 0.52 0.2 0.16 0.48l-2.96 2.24z"></path>
</svg>
