<?xml version="1.0" encoding="utf-8"?>
<!-- Generated by IcoMoon.io -->
<!DOCTYPE svg PUBLIC "-//W3C//DTD SVG 1.1//EN" "http://www.w3.org/Graphics/SVG/1.1/DTD/svg11.dtd">
<svg version="1.1" xmlns="http://www.w3.org/2000/svg" xmlns:xlink="http://www.w3.org/1999/xlink" width="32" height="32" viewBox="0 0 32 32">
<path d="M17.6 13.2c0 1.76-1.44 3.2-3.2 3.2s-3.2-1.44-3.2-3.2 1.44-3.2 3.2-3.2 3.2 1.44 3.2 3.2zM17.6 13.2c0 1.76-1.44 3.2-3.2 3.2s-3.2-1.44-3.2-3.2 1.44-3.2 3.2-3.2 3.2 1.44 3.2 3.2zM17.6 13.2c0 1.76-1.44 3.2-3.2 3.2s-3.2-1.44-3.2-3.2 1.44-3.2 3.2-3.2 3.2 1.44 3.2 3.2zM14.2 22.68l3.12-5.4c-0.32 0-0.64 0.080-0.84 0.2 0 0-1.040 0.52-2.080 0.52s-2.080-0.52-2.080-0.52c-0.4-0.2-1.040-0.24-1.48-0.12l-1.28 0.4c-0.4 0.12-0.84 0.6-0.88 1.040l-0.56 3.2c-0.080 0.44 0.24 0.8 0.68 0.8h5.36c0-0.040 0.040-0.080 0.040-0.12zM19.44 15.2c0.12-0.24 0.36-0.36 0.6-0.48l3.080-1.56c0.56-0.24 1.28 0.16 1.36 0.8l0.2 3.44c0.040 0.24 0 0.52-0.12 0.76l-4.56 7.88c-0.2 0.36-0.64 0.48-1 0.28l-3.84-2.2c-0.36-0.2-0.48-0.64-0.28-1l4.56-7.92zM23.84 17.6l-0.12-1.76-1.8-1.040-1.6 0.76-3.88 6.72c-0.12 0.16-0.040 0.4 0.12 0.52s0.4 0.040 0.52-0.12l3.72-6.52c0.12-0.24 0.4-0.28 0.64-0.16s0.28 0.4 0.16 0.64l-3.72 6.48c-0.12 0.16-0.040 0.4 0.12 0.52s0.4 0.040 0.52-0.12l3.72-6.48c0.12-0.24 0.4-0.28 0.64-0.16s0.28 0.4 0.16 0.64l-3.72 6.48c-0.12 0.16-0.040 0.4 0.12 0.52s0.4 0.040 0.52-0.12l3.88-6.8z"></path>
</svg>
