<?xml version="1.0" encoding="utf-8"?>
<!-- Generated by IcoMoon.io -->
<!DOCTYPE svg PUBLIC "-//W3C//DTD SVG 1.1//EN" "http://www.w3.org/Graphics/SVG/1.1/DTD/svg11.dtd">
<svg version="1.1" xmlns="http://www.w3.org/2000/svg" xmlns:xlink="http://www.w3.org/1999/xlink" width="32" height="32" viewBox="0 0 32 32">
<path d="M16.4 8.8c-4.4 0-8 3.6-8 8s3.6 8 8 8c0.72 0 1.32-0.6 1.32-1.32 0-0.36-0.12-0.64-0.36-0.88-0.2-0.24-0.32-0.56-0.32-0.88 0-0.72 0.6-1.32 1.32-1.32h1.56c2.44 0 4.44-2 4.44-4.44 0.040-3.96-3.56-7.16-7.96-7.16zM11.52 16.8c-0.72 0-1.32-0.6-1.32-1.32s0.6-1.32 1.32-1.32 1.32 0.6 1.32 1.32-0.6 1.32-1.32 1.32zM14.16 13.24c-0.72 0-1.32-0.6-1.32-1.32s0.6-1.32 1.32-1.32 1.32 0.6 1.32 1.32-0.56 1.32-1.32 1.32zM18.64 13.24c-0.72 0-1.32-0.6-1.32-1.32s0.6-1.32 1.32-1.32 1.32 0.6 1.32 1.32-0.6 1.32-1.32 1.32zM21.28 16.8c-0.72 0-1.32-0.6-1.32-1.32s0.6-1.32 1.32-1.32 1.32 0.6 1.32 1.32-0.56 1.32-1.32 1.32z"></path>
</svg>
