<?xml version="1.0" encoding="utf-8"?>
<!-- Generated by IcoMoon.io -->
<!DOCTYPE svg PUBLIC "-//W3C//DTD SVG 1.1//EN" "http://www.w3.org/Graphics/SVG/1.1/DTD/svg11.dtd">
<svg version="1.1" xmlns="http://www.w3.org/2000/svg" xmlns:xlink="http://www.w3.org/1999/xlink" width="32" height="32" viewBox="0 0 32 32">
<path d="M12.92 9.68c0.84 1 1.2 1.88 1.44 3.12 0 0-0.76 1.040-1.080 1.4-0.2 0.72 3.24 4.36 4.6 4.44 0 0 0.8-1.12 1.52-1.64 1 0.12 3.28 1.4 3.28 1.4s-0.040 0.76-0.28 1.32c-0.2 0.6-0.48 1.040-1.28 1.44-1.12 0.48-1.96 0.4-1.96 0.4-0.88-0.040-6.52-1.12-9.16-7.68 0 0-0.36-1.32 0.080-2.56 0.36-0.96 0.96-1.52 1.44-1.68 0.76-0.16 1.4 0.040 1.4 0.040zM12.92 9.68"></path>
</svg>
