<?xml version="1.0" encoding="utf-8"?>
<!-- Generated by IcoMoon.io -->
<!DOCTYPE svg PUBLIC "-//W3C//DTD SVG 1.1//EN" "http://www.w3.org/Graphics/SVG/1.1/DTD/svg11.dtd">
<svg version="1.1" xmlns="http://www.w3.org/2000/svg" xmlns:xlink="http://www.w3.org/1999/xlink" width="32" height="32" viewBox="0 0 32 32">
<path d="M16.4 8c-4.4 0-8 3.6-8 8s3.6 8 8 8 8-3.6 8-8-3.6-8-8-8zM19.8 18.48c0.32 0.32 0.32 0.84 0 1.12-0.32 0.32-0.84 0.32-1.12 0l-2.28-2.28-2.28 2.28c-0.32 0.32-0.84 0.32-1.12 0-0.32-0.32-0.32-0.8 0-1.12l2.28-2.28-2.28-2.28c-0.32-0.32-0.32-0.84 0-1.12 0.32-0.32 0.8-0.32 1.12 0l2.28 2.28 2.28-2.28c0.32-0.32 0.84-0.32 1.12 0 0.32 0.32 0.32 0.84 0 1.12l-2.28 2.28 2.28 2.28z"></path>
</svg>
