<?xml version="1.0" encoding="utf-8"?>
<!-- Generated by IcoMoon.io -->
<!DOCTYPE svg PUBLIC "-//W3C//DTD SVG 1.1//EN" "http://www.w3.org/Graphics/SVG/1.1/DTD/svg11.dtd">
<svg version="1.1" xmlns="http://www.w3.org/2000/svg" xmlns:xlink="http://www.w3.org/1999/xlink" width="32" height="32" viewBox="0 0 32 32">
<path d="M23.44 15.44c0.32 0.32 0.32 0.8 0 1.12l-3.4 3.4c-0.32 0.32-0.84 0.32-1.12 0s-0.32-0.84 0-1.12l3.4-3.4c0.28-0.32 0.8-0.32 1.12 0zM23.44 16.56c-0.32 0.32-0.8 0.32-1.12 0l-3.4-3.4c-0.32-0.32-0.32-0.84 0-1.12s0.84-0.32 1.12 0l3.4 3.4c0.32 0.32 0.32 0.8 0 1.12zM16 15.84c0 0.44-0.36 0.8-0.8 0.8h-6.4c-0.44 0-0.8-0.36-0.8-0.8s0.36-0.8 0.8-0.8h6.4c0.44 0 0.8 0.36 0.8 0.8zM16 19.040c0 0.44-0.36 0.8-0.8 0.8h-4c-0.44 0-0.8-0.36-0.8-0.8s0.36-0.8 0.8-0.8h4c0.44 0 0.8 0.36 0.8 0.8zM16 12.64c0 0.44-0.36 0.8-0.8 0.8h-1.6c-0.44 0-0.8-0.36-0.8-0.8s0.36-0.8 0.8-0.8h1.6c0.44 0 0.8 0.36 0.8 0.8zM12 12.64c0 0.44-0.36 0.8-0.8 0.8h-2.4c-0.44 0-0.8-0.36-0.8-0.8s0.36-0.8 0.8-0.8h2.4c0.44 0 0.8 0.36 0.8 0.8z"></path>
</svg>
