<?xml version="1.0" encoding="utf-8"?>
<!-- Generated by IcoMoon.io -->
<!DOCTYPE svg PUBLIC "-//W3C//DTD SVG 1.1//EN" "http://www.w3.org/Graphics/SVG/1.1/DTD/svg11.dtd">
<svg version="1.1" xmlns="http://www.w3.org/2000/svg" xmlns:xlink="http://www.w3.org/1999/xlink" width="32" height="32" viewBox="0 0 32 32">
<path d="M21.6 16.4c0 3.080-2.52 5.6-5.6 5.6s-5.6-2.52-5.6-5.6c0-3 2.36-5.44 5.32-5.6l-0.88 0.88c-0.32 0.32-0.32 0.84 0 1.12s0.84 0.32 1.12 0l2.4-2.4c0.2-0.32 0.16-0.72-0.12-1l-2.24-2.24c-0.32-0.32-0.84-0.32-1.12 0s-0.32 0.84 0 1.12l0.88 0.88h-0.16v0.040c-3.8 0.2-6.8 3.36-6.8 7.16 0 3.96 3.24 7.2 7.2 7.2s7.2-3.24 7.2-7.2h-1.6zM18.48 15.48c0 0.88-0.36 1.48-1.080 1.72l1.4 2h-1.52l-1.24-1.8h-0.84v1.8h-1.24v-5.6h2.12c0.88 0 1.48 0.16 1.84 0.44s0.56 0.76 0.56 1.44zM17 16.12c0.16-0.12 0.24-0.36 0.24-0.64 0-0.32-0.080-0.52-0.24-0.6-0.16-0.12-0.44-0.16-0.84-0.16h-0.96v1.64h0.92c0.44-0.040 0.72-0.080 0.88-0.24z"></path>
</svg>
