<?xml version="1.0" encoding="utf-8"?>
<!-- Generated by IcoMoon.io -->
<!DOCTYPE svg PUBLIC "-//W3C//DTD SVG 1.1//EN" "http://www.w3.org/Graphics/SVG/1.1/DTD/svg11.dtd">
<svg version="1.1" xmlns="http://www.w3.org/2000/svg" xmlns:xlink="http://www.w3.org/1999/xlink" width="32" height="32" viewBox="0 0 32 32">
<path d="M21.96 11.92c-0.24-0.36-0.76-0.44-1.12-0.2s-0.44 0.76-0.2 1.12c0.64 0.96 0.96 2.040 0.96 3.16 0 3.080-2.52 5.6-5.6 5.6s-5.6-2.52-5.6-5.6c0-3 2.4-5.44 5.36-5.6l-0.92 0.92c-0.32 0.32-0.32 0.84 0 1.12 0.32 0.32 0.84 0.32 1.12 0l2.28-2.28c0.32-0.32 0.32-0.8 0-1.12l-2.28-2.28c-0.32-0.32-0.84-0.32-1.12 0-0.32 0.32-0.32 0.84 0 1.12l0.92 0.92h-0.16v0.040c-3.76 0.2-6.8 3.36-6.8 7.16 0 3.96 3.24 7.2 7.2 7.2s7.2-3.24 7.2-7.24c0-1.44-0.44-2.84-1.24-4.040z"></path>
</svg>
