<?xml version="1.0" encoding="utf-8"?>
<!-- Generated by IcoMoon.io -->
<!DOCTYPE svg PUBLIC "-//W3C//DTD SVG 1.1//EN" "http://www.w3.org/Graphics/SVG/1.1/DTD/svg11.dtd">
<svg version="1.1" xmlns="http://www.w3.org/2000/svg" xmlns:xlink="http://www.w3.org/1999/xlink" width="32" height="32" viewBox="0 0 32 32">
<path d="M16.4 8.84l-0.16-0.040 0.92-0.92c0.32-0.28 0.32-0.8 0-1.12-0.28-0.32-0.8-0.32-1.12 0l-2.28 2.28c-0.32 0.32-0.32 0.8 0 1.12l2.28 2.28c0.28 0.32 0.8 0.32 1.12 0 0.32-0.28 0.32-0.8 0-1.12l-0.92-0.92c2.96 0.16 5.36 2.6 5.36 5.6 0 3.080-2.52 5.6-5.6 5.6s-5.6-2.52-5.6-5.6c0-1.12 0.32-2.2 0.96-3.16 0.24-0.36 0.16-0.88-0.2-1.12s-0.88-0.16-1.12 0.2c-0.8 1.2-1.24 2.6-1.24 4.040 0 4 3.24 7.24 7.2 7.24s7.2-3.24 7.2-7.2c0-3.84-3.040-6.96-6.8-7.16z"></path>
</svg>
