<?xml version="1.0" encoding="utf-8"?>
<!-- Generated by IcoMoon.io -->
<!DOCTYPE svg PUBLIC "-//W3C//DTD SVG 1.1//EN" "http://www.w3.org/Graphics/SVG/1.1/DTD/svg11.dtd">
<svg version="1.1" xmlns="http://www.w3.org/2000/svg" xmlns:xlink="http://www.w3.org/1999/xlink" width="32" height="32" viewBox="0 0 32 32">
<path d="M24.4 11.6c0-1.32-1.080-2.4-2.4-2.4s-2.4 1.080-2.4 2.4c0 0.88 0.48 1.68 1.2 2.080v8.72c0 0.64 0.52 1.2 1.2 1.2s1.2-0.56 1.2-1.2v-8.72c0.72-0.4 1.2-1.2 1.2-2.080zM22 12.8c-0.68 0-1.2-0.52-1.2-1.2s0.52-1.2 1.2-1.2 1.2 0.52 1.2 1.2-0.52 1.2-1.2 1.2zM11.2 13.72v-3.32c0-0.68-0.52-1.2-1.2-1.2-0.64 0-1.2 0.52-1.2 1.2v3.32c-0.72 0.4-1.2 1.2-1.2 2.080s0.48 1.68 1.2 2.080v4.52c0 0.64 0.52 1.2 1.2 1.2s1.2-0.56 1.2-1.2v-4.52c0.72-0.4 1.2-1.2 1.2-2.080s-0.48-1.68-1.2-2.080zM10 17c-0.68 0-1.2-0.52-1.2-1.2s0.52-1.2 1.2-1.2 1.2 0.52 1.2 1.2-0.52 1.2-1.2 1.2zM17.2 19.12v-8.72c0-0.68-0.52-1.2-1.2-1.2-0.64 0-1.2 0.52-1.2 1.2v8.72c-0.72 0.4-1.2 1.2-1.2 2.080 0 1.32 1.080 2.4 2.4 2.4s2.4-1.080 2.4-2.4c0-0.88-0.48-1.68-1.2-2.080zM16 22.4c-0.68 0-1.2-0.52-1.2-1.2s0.52-1.2 1.2-1.2 1.2 0.52 1.2 1.2-0.52 1.2-1.2 1.2z"></path>
</svg>
