<?xml version="1.0" encoding="utf-8"?>
<!-- Generated by IcoMoon.io -->
<!DOCTYPE svg PUBLIC "-//W3C//DTD SVG 1.1//EN" "http://www.w3.org/Graphics/SVG/1.1/DTD/svg11.dtd">
<svg version="1.1" xmlns="http://www.w3.org/2000/svg" xmlns:xlink="http://www.w3.org/1999/xlink" width="32" height="32" viewBox="0 0 32 32">
<path d="M16 11.6c-0.44 0-0.8 0.36-0.8 0.8v8c0 0.44 0.36 0.8 0.8 0.8s0.8-0.36 0.8-0.8v-8c0-0.44-0.36-0.8-0.8-0.8zM12 11.6c-0.44 0-0.8 0.36-0.8 0.8v8c0 0.44 0.36 0.8 0.8 0.8s0.8-0.36 0.8-0.8v-8c0-0.44-0.36-0.8-0.8-0.8zM20 11.6c-0.44 0-0.8 0.36-0.8 0.8v8c0 0.44 0.36 0.8 0.8 0.8s0.8-0.36 0.8-0.8v-8c0-0.44-0.36-0.8-0.8-0.8zM10.8 16c0 0.663 0.537 1.2 1.2 1.2s1.2-0.537 1.2-1.2c0-0.663-0.537-1.2-1.2-1.2s-1.2 0.537-1.2 1.2zM12 15.2c0.44 0 0.8 0.36 0.8 0.8s-0.36 0.8-0.8 0.8-0.8-0.36-0.8-0.8 0.36-0.8 0.8-0.8M12 14.4c-0.88 0-1.6 0.72-1.6 1.6s0.72 1.6 1.6 1.6 1.6-0.72 1.6-1.6-0.72-1.6-1.6-1.6zM14.8 19.6c0 0.663 0.537 1.2 1.2 1.2s1.2-0.537 1.2-1.2c0-0.663-0.537-1.2-1.2-1.2s-1.2 0.537-1.2 1.2zM16 18.8c0.44 0 0.8 0.36 0.8 0.8s-0.36 0.8-0.8 0.8-0.8-0.36-0.8-0.8 0.36-0.8 0.8-0.8M16 18c-0.88 0-1.6 0.72-1.6 1.6s0.72 1.6 1.6 1.6 1.6-0.72 1.6-1.6-0.72-1.6-1.6-1.6zM18.8 13.2c0 0.663 0.537 1.2 1.2 1.2s1.2-0.537 1.2-1.2c0-0.663-0.537-1.2-1.2-1.2s-1.2 0.537-1.2 1.2zM20 12.4c0.44 0 0.8 0.36 0.8 0.8s-0.36 0.8-0.8 0.8-0.8-0.36-0.8-0.8 0.36-0.8 0.8-0.8M20 11.6c-0.88 0-1.6 0.72-1.6 1.6s0.72 1.6 1.6 1.6 1.6-0.72 1.6-1.6-0.72-1.6-1.6-1.6z"></path>
</svg>
