<?xml version="1.0" encoding="utf-8"?>
<!-- Generated by IcoMoon.io -->
<!DOCTYPE svg PUBLIC "-//W3C//DTD SVG 1.1//EN" "http://www.w3.org/Graphics/SVG/1.1/DTD/svg11.dtd">
<svg version="1.1" xmlns="http://www.w3.org/2000/svg" xmlns:xlink="http://www.w3.org/1999/xlink" width="32" height="32" viewBox="0 0 32 32">
<path d="M16 16c0-0.6-0.32-1.12-0.8-1.36v-2.24c0-0.44-0.36-0.8-0.8-0.8s-0.8 0.36-0.8 0.8v2.24c-0.48 0.28-0.8 0.8-0.8 1.36 0 0.6 0.4 1.12 0.8 1.36v3.040c0 0.44 0.36 0.8 0.8 0.8s0.8-0.36 0.8-0.8v-3.040c0.48-0.24 0.8-0.76 0.8-1.36zM14.4 16.8c-0.44 0-0.8-0.36-0.8-0.8s0.36-0.8 0.8-0.8 0.8 0.36 0.8 0.8-0.36 0.8-0.8 0.8zM19.2 18.24v-5.84c0-0.44-0.36-0.8-0.8-0.8s-0.8 0.36-0.8 0.8v5.84c-0.48 0.28-0.8 0.8-0.8 1.36 0 0.88 0.72 1.6 1.6 1.6s1.6-0.72 1.6-1.6c0-0.6-0.32-1.12-0.8-1.36zM18.4 20.4c-0.44 0-0.8-0.36-0.8-0.8s0.36-0.8 0.8-0.8 0.8 0.36 0.8 0.8-0.36 0.8-0.8 0.8z"></path>
</svg>
