<?xml version="1.0" encoding="utf-8"?>
<!-- Generated by IcoMoon.io -->
<!DOCTYPE svg PUBLIC "-//W3C//DTD SVG 1.1//EN" "http://www.w3.org/Graphics/SVG/1.1/DTD/svg11.dtd">
<svg version="1.1" xmlns="http://www.w3.org/2000/svg" xmlns:xlink="http://www.w3.org/1999/xlink" width="32" height="32" viewBox="0 0 32 32">
<path d="M14.080 20.92c-0.32 0-0.64-0.2-0.76-0.52l-2.24-6.12-1.080 2.96c-0.12 0.32-0.4 0.52-0.76 0.52-0.32 0-0.64-0.2-0.76-0.52l-0.48-1.2-0.92 2.4c-0.16 0.4-0.64 0.6-1.040 0.48-0.4-0.16-0.6-0.64-0.48-1.040l1.68-4.44c0.12-0.32 0.4-0.6 0.76-0.6 0.32 0 0.64 0.28 0.76 0.6l0.44 1.2 1.12-3c0.12-0.32 0.4-0.52 0.76-0.52 0.32 0 0.64 0.2 0.76 0.52l2.24 6.12 1.56-4.28c0.12-0.32 0.4-0.52 0.76-0.52s0.64 0.2 0.76 0.52l1.2 3.040c0.16 0.4-0.040 0.88-0.44 1.040s-0.88-0.040-1.040-0.44l-0.4-1.080-1.6 4.36c-0.16 0.28-0.44 0.52-0.8 0.52zM25.96 10.96c-0.080-0.24-0.32-0.4-0.56-0.4h-2.16l-0.68-2.080c-0.080-0.24-0.32-0.4-0.56-0.4s-0.48 0.16-0.56 0.4l-0.68 2.080h-2.16c-0.24 0-0.48 0.16-0.56 0.4s0 0.52 0.2 0.68l1.76 1.28-0.68 2.080c-0.080 0.24 0 0.52 0.2 0.68s0.48 0.16 0.68 0l1.76-1.28 1.76 1.28c0.12 0.080 0.24 0.12 0.36 0.12s0.24-0.040 0.36-0.12c0.2-0.16 0.28-0.4 0.2-0.68l-0.64-2.080 1.76-1.28c0.2-0.16 0.28-0.44 0.2-0.68z"></path>
</svg>
