<?xml version="1.0" encoding="utf-8"?>
<!-- Generated by IcoMoon.io -->
<!DOCTYPE svg PUBLIC "-//W3C//DTD SVG 1.1//EN" "http://www.w3.org/Graphics/SVG/1.1/DTD/svg11.dtd">
<svg version="1.1" xmlns="http://www.w3.org/2000/svg" xmlns:xlink="http://www.w3.org/1999/xlink" width="32" height="32" viewBox="0 0 32 32">
<path d="M23.96 14.44c-0.16-0.48-0.6-0.8-1.12-0.8h-4.36l-1.36-4.12c-0.16-0.48-0.6-0.8-1.12-0.8s-0.96 0.32-1.12 0.8l-1.36 4.12h-4.32c-0.52 0-0.96 0.32-1.12 0.8s0 1.040 0.44 1.32l3.52 2.56-1.36 4.12c-0.16 0.48 0 1.040 0.44 1.32 0.4 0.32 0.96 0.32 1.4 0l3.48-2.56 3.52 2.56c0.2 0.16 0.44 0.24 0.68 0.24s0.48-0.080 0.68-0.24c0.4-0.32 0.6-0.84 0.44-1.32l-1.32-4.12 3.52-2.56c0.4-0.32 0.6-0.84 0.44-1.32z"></path>
</svg>
