<?xml version="1.0" encoding="utf-8"?>
<!-- Generated by IcoMoon.io -->
<!DOCTYPE svg PUBLIC "-//W3C//DTD SVG 1.1//EN" "http://www.w3.org/Graphics/SVG/1.1/DTD/svg11.dtd">
<svg version="1.1" xmlns="http://www.w3.org/2000/svg" xmlns:xlink="http://www.w3.org/1999/xlink" width="32" height="32" viewBox="0 0 32 32">
<path d="M9.2 20.8h0.28l3.6-3.6c0.080-0.080 0.16-0.16 0.24-0.2 0.32-0.32 0.76-0.52 1.24-0.52s0.92 0.2 1.24 0.52l1.96 1.96 0.2-0.2v-3.36c-0.040-0.16-0.080-0.36-0.080-0.56s0.040-0.4 0.080-0.56v-2.28c0-0.44-0.36-0.8-0.8-0.8h-7.96c-0.44 0-0.8 0.36-0.8 0.8v8c0 0.44 0.36 0.8 0.8 0.8zM25.6 14.8h-0.080c0-0.4-0.36-0.8-0.8-0.8h-4.8c-0.44 0-0.8 0.36-0.8 0.8s0.36 0.8 0.8 0.8h2.92l-5.040 5-2.8-2.8c-0.24-0.2-0.6-0.2-0.8 0l-0.12 0.12c-0.040 0.040-0.12 0.080-0.16 0.12l-5.76 5.76c-0.32 0.32-0.32 0.84 0 1.12s0.84 0.32 1.12 0l5.28-5.28 2.88 2.88c0.2 0.24 0.56 0.24 0.8 0l0.32-0.32c0.080-0.080 0.12-0.16 0.12-0.24 0.040-0.040 0.12-0.040 0.16-0.080l5.16-5.12v2.92c0 0.44 0.36 0.8 0.8 0.8s0.8-0.36 0.8-0.8v-4.88zM21.2 13.2h0.8v-5.2c0-0.44-0.36-0.8-0.8-0.8h-7.2c-0.44 0-0.8 0.36-0.8 0.8v2.4h0.8v-2.4h7.2v5.2z"></path>
</svg>
