<?xml version="1.0" encoding="utf-8"?>
<!-- Generated by IcoMoon.io -->
<!DOCTYPE svg PUBLIC "-//W3C//DTD SVG 1.1//EN" "http://www.w3.org/Graphics/SVG/1.1/DTD/svg11.dtd">
<svg version="1.1" xmlns="http://www.w3.org/2000/svg" xmlns:xlink="http://www.w3.org/1999/xlink" width="32" height="32" viewBox="0 0 32 32">
<path d="M16 4c-6.64 0-12 5.36-12 12s5.36 12 12 12 12-5.36 12-12-5.36-12-12-12zM15.4 23.12c-0.68 0-1.2-0.52-1.2-1.2s0.52-1.2 1.2-1.2 1.2 0.52 1.2 1.2c0 0.64-0.52 1.2-1.2 1.2zM16.8 17.44v0.24c0 0.68-0.52 1.2-1.2 1.2s-1.2-0.52-1.2-1.2v-1.28c0-0.68 0.44-1.2 1.12-1.2 1.080 0 1.88-0.76 1.88-1.8s-0.76-1.8-1.72-1.8c-0.52 0-1.040 0.2-1.36 0.56-0.48 0.48-1.24 0.48-1.72 0s-0.48-1.24-0.040-1.68c0.76-0.8 1.92-1.28 3.080-1.28 2.28 0 4.16 1.84 4.16 4.2 0.040 1.96-1.4 3.56-3 4.040z"></path>
</svg>
