<?xml version="1.0" encoding="utf-8"?>
<!-- Generated by IcoMoon.io -->
<!DOCTYPE svg PUBLIC "-//W3C//DTD SVG 1.1//EN" "http://www.w3.org/Graphics/SVG/1.1/DTD/svg11.dtd">
<svg version="1.1" xmlns="http://www.w3.org/2000/svg" xmlns:xlink="http://www.w3.org/1999/xlink" width="32" height="32" viewBox="0 0 32 32">
<path d="M13.040 14.040c0 0.464 0.376 0.84 0.84 0.84s0.84-0.376 0.84-0.84c0-0.464-0.376-0.84-0.84-0.84s-0.84 0.376-0.84 0.84zM16.28 8.8c-4.12 0-7.48 3.36-7.48 7.48 0 4.16 3.36 7.52 7.48 7.52 4.16 0 7.48-3.36 7.48-7.52 0.040-4.12-3.32-7.48-7.48-7.48zM16.84 21.72l-5.040-5.040v-2.96l1.76-1.76h2.96l5.040 5.040-4.72 4.72z"></path>
</svg>
