<?xml version="1.0" encoding="utf-8"?>
<!-- Generated by IcoMoon.io -->
<!DOCTYPE svg PUBLIC "-//W3C//DTD SVG 1.1//EN" "http://www.w3.org/Graphics/SVG/1.1/DTD/svg11.dtd">
<svg version="1.1" xmlns="http://www.w3.org/2000/svg" xmlns:xlink="http://www.w3.org/1999/xlink" width="32" height="32" viewBox="0 0 32 32">
<path d="M11.2 13.2c0 1.767 1.433 3.2 3.2 3.2s3.2-1.433 3.2-3.2c0-1.767-1.433-3.2-3.2-3.2s-3.2 1.433-3.2 3.2zM11.2 13.2c0 1.767 1.433 3.2 3.2 3.2s3.2-1.433 3.2-3.2c0-1.767-1.433-3.2-3.2-3.2s-3.2 1.433-3.2 3.2zM19.2 14c0 1.325 1.075 2.4 2.4 2.4s2.4-1.075 2.4-2.4c0-1.325-1.075-2.4-2.4-2.4s-2.4 1.075-2.4 2.4zM19.2 14c0 1.325 1.075 2.4 2.4 2.4s2.4-1.075 2.4-2.4c0-1.325-1.075-2.4-2.4-2.4s-2.4 1.075-2.4 2.4zM26.32 20.6l-0.4-2.4c-0.040-0.32-0.36-0.68-0.68-0.76l-0.96-0.32c-0.32-0.12-0.8-0.040-1.12 0.080 0 0-0.76 0.4-1.56 0.4-0.36 0-0.72-0.080-1-0.16 0.36 0.32 0.64 0.76 0.72 1.24l0.44 2.56h4.040c0.32-0.040 0.56-0.32 0.52-0.64zM20.68 22l-0.56-3.2c-0.080-0.44-0.48-0.88-0.88-1.040l-1.28-0.4c-0.4-0.12-1.080-0.080-1.48 0.12 0 0-0.6 0.28-1.32 0.44 0.36 0.52 0.6 1.080 0.8 1.68l0.24 0.8-1 0.72v0.12l1 0.76-0.24 0.8h4.040c0.44 0 0.76-0.36 0.68-0.8zM14 21.2c0-0.2-0.040-0.4-0.040-0.6l0.88-0.68c-0.24-0.8-0.68-1.52-1.24-2.080l-1.040 0.4c-0.32-0.24-0.72-0.48-1.12-0.6l-0.16-1.040c-0.4-0.080-0.8-0.16-1.24-0.16s-0.84 0.040-1.24 0.16l-0.2 1c-0.4 0.16-0.76 0.36-1.12 0.6l-1.040-0.4c-0.6 0.56-1 1.28-1.24 2.080l0.88 0.68c-0.040 0.24-0.080 0.44-0.080 0.64s0.040 0.4 0.040 0.6l-0.84 0.68c0.24 0.8 0.68 1.52 1.24 2.080l1.040-0.4c0.32 0.24 0.72 0.48 1.12 0.6l0.16 1.040c0.4 0.080 0.8 0.16 1.24 0.16s0.84-0.040 1.24-0.16l0.16-1.040c0.4-0.16 0.76-0.36 1.12-0.6l1.040 0.4c0.6-0.56 1-1.28 1.24-2.080l-0.88-0.68c0.040-0.2 0.080-0.4 0.080-0.6zM10 23.24c-1.12 0-2.040-0.92-2.040-2.040s0.92-2.040 2.040-2.040 2.040 0.92 2.040 2.040-0.92 2.040-2.040 2.040z"></path>
</svg>
