<?xml version="1.0" encoding="utf-8"?>
<!-- Generated by IcoMoon.io -->
<!DOCTYPE svg PUBLIC "-//W3C//DTD SVG 1.1//EN" "http://www.w3.org/Graphics/SVG/1.1/DTD/svg11.dtd">
<svg version="1.1" xmlns="http://www.w3.org/2000/svg" xmlns:xlink="http://www.w3.org/1999/xlink" width="32" height="32" viewBox="0 0 32 32">
<path d="M19.4 16.4c0 0.44 0.36 0.8 0.8 0.8h0.8c0.44 0 0.8-0.36 0.8-0.8s-0.36-0.8-0.8-0.8h-0.8c-0.44 0-0.8 0.36-0.8 0.8zM10.6 16.4c0 0.44 0.36 0.8 0.8 0.8h6.4c0.44 0 0.8-0.36 0.8-0.8s-0.36-0.8-0.8-0.8h-6.4c-0.44 0-0.8 0.36-0.8 0.8zM10.6 19.6c0 0.44 0.36 0.8 0.8 0.8h4c0.44 0 0.8-0.36 0.8-0.8s-0.36-0.8-0.8-0.8h-4c-0.44 0-0.8 0.36-0.8 0.8zM10.6 13.2c0 0.44 0.36 0.8 0.8 0.8h1.6c0.44 0 0.8-0.36 0.8-0.8s-0.36-0.8-0.8-0.8h-1.6c-0.44 0-0.8 0.36-0.8 0.8zM14.6 13.2c0 0.44 0.36 0.8 0.8 0.8h5.6c0.44 0 0.8-0.36 0.8-0.8s-0.36-0.8-0.8-0.8h-5.6c-0.44 0-0.8 0.36-0.8 0.8z"></path>
</svg>
