<?xml version="1.0" encoding="utf-8"?>
<!-- Generated by IcoMoon.io -->
<!DOCTYPE svg PUBLIC "-//W3C//DTD SVG 1.1//EN" "http://www.w3.org/Graphics/SVG/1.1/DTD/svg11.dtd">
<svg version="1.1" xmlns="http://www.w3.org/2000/svg" xmlns:xlink="http://www.w3.org/1999/xlink" width="32" height="32" viewBox="0 0 32 32">
<path d="M21.6 21.72h-10.44c-0.92 0-1.68-0.76-1.68-1.68v-7.36l-3.72 1c-0.4 0.12-0.6 0.48-0.52 0.88l3.24 12.080c0.080 0.32 0.36 0.52 0.68 0.52 0.080 0 0.12 0 0.2-0.040l12.080-3.24c0.2-0.040 0.36-0.16 0.44-0.32s0.12-0.36 0.080-0.56l-0.36-1.28zM24.44 6.040h-13.24c-0.4 0-0.72 0.32-0.72 0.72v13.24c0 0.4 0.32 0.72 0.72 0.72h13.24c0.4 0 0.72-0.32 0.72-0.72v-13.24c0-0.4-0.32-0.72-0.72-0.72zM23.16 11.36l-5.68 5.68c-0.32 0.32-0.8 0.32-1.12 0l-3.4-3.4c-0.32-0.32-0.32-0.84 0-1.12 0.32-0.32 0.84-0.32 1.12 0l2.84 2.84 5.080-5.12c0.32-0.32 0.84-0.32 1.12 0 0.32 0.32 0.32 0.84 0.040 1.12z"></path>
</svg>
