<?xml version="1.0" encoding="utf-8"?>
<!-- Generated by IcoMoon.io -->
<!DOCTYPE svg PUBLIC "-//W3C//DTD SVG 1.1//EN" "http://www.w3.org/Graphics/SVG/1.1/DTD/svg11.dtd">
<svg version="1.1" xmlns="http://www.w3.org/2000/svg" xmlns:xlink="http://www.w3.org/1999/xlink" width="32" height="32" viewBox="0 0 32 32">
<path d="M23.6 8h-12.4c-0.64 0-1.2 0.52-1.2 1.2v12c0 0.64 0.52 1.2 1.2 1.2h12.4c0.64 0 1.2-0.52 1.2-1.2v-12c0-0.64-0.52-1.2-1.2-1.2zM24 15.44c0 0.32-0.28 0.6-0.6 0.6s-0.6-0.28-0.6-0.6v-2.2l-3.84 3.8c-0.040 0.040-0.080 0.040-0.12 0.080 0 0.080-0.040 0.12-0.12 0.2l-0.24 0.24c-0.16 0.16-0.44 0.16-0.6 0l-2.16-2.16-3.96 3.96c-0.24 0.24-0.6 0.24-0.84 0s-0.24-0.6 0-0.84l4.32-4.32c0.040-0.040 0.080-0.080 0.12-0.080l0.080-0.080c0.16-0.16 0.44-0.16 0.6 0l2.12 2.12 3.76-3.76h-2.2c-0.32 0-0.6-0.28-0.6-0.64 0-0.32 0.28-0.64 0.6-0.64l3.6-0.040v-0.040c0.32 0 0.6 0.52 0.6 0.52h0.080v3.88zM10.4 23.2c-0.68 0-1.2-0.56-1.2-1.2v-11.44c-0.92 0.32-1.6 1.2-1.6 2.24v9.6c0 1.32 1.080 2.4 2.4 2.4h10c1.040 0 1.92-0.68 2.24-1.6h-11.84z"></path>
</svg>
