<?xml version="1.0" encoding="utf-8"?>
<!-- Generated by IcoMoon.io -->
<!DOCTYPE svg PUBLIC "-//W3C//DTD SVG 1.1//EN" "http://www.w3.org/Graphics/SVG/1.1/DTD/svg11.dtd">
<svg version="1.1" xmlns="http://www.w3.org/2000/svg" xmlns:xlink="http://www.w3.org/1999/xlink" width="32" height="32" viewBox="0 0 32 32">
<path d="M10.4 23.6c-0.68 0-1.2-0.56-1.2-1.2v-11.44c-0.92 0.32-1.6 1.2-1.6 2.24v9.6c0 1.32 1.080 2.4 2.4 2.4h10c1.040 0 1.92-0.68 2.24-1.6h-11.84zM23.6 8.4h-12.4c-0.68 0-1.2 0.56-1.2 1.2v12c0 0.68 0.56 1.2 1.2 1.2h12.4c0.68 0 1.2-0.56 1.2-1.2v-12c0-0.64-0.56-1.2-1.2-1.2zM22.76 13.76l-5.68 5.68c-0.32 0.32-0.8 0.32-1.12 0l-3.4-3.4c-0.32-0.32-0.32-0.84 0-1.12 0.32-0.32 0.84-0.32 1.12 0l2.84 2.84 5.080-5.12c0.32-0.32 0.84-0.32 1.12 0 0.32 0.32 0.32 0.84 0.040 1.12z"></path>
</svg>
