<?xml version="1.0" encoding="utf-8"?>
<!-- Generated by IcoMoon.io -->
<!DOCTYPE svg PUBLIC "-//W3C//DTD SVG 1.1//EN" "http://www.w3.org/Graphics/SVG/1.1/DTD/svg11.dtd">
<svg version="1.1" xmlns="http://www.w3.org/2000/svg" xmlns:xlink="http://www.w3.org/1999/xlink" width="32" height="32" viewBox="0 0 32 32">
<path d="M21.6 22.12h-10.44c-0.92 0-1.68-0.76-1.68-1.68v-7.36l-3.72 1c-0.4 0.12-0.6 0.48-0.52 0.88l3.24 12.080c0.080 0.32 0.36 0.52 0.68 0.52 0.080 0 0.12 0 0.2-0.040l12.080-3.24c0.2-0.040 0.36-0.16 0.44-0.32s0.12-0.36 0.080-0.56l-0.36-1.28zM24.44 6.44h-13.24c-0.4 0-0.72 0.32-0.72 0.72v13.24c0 0.4 0.32 0.72 0.72 0.72h13.24c0.4 0 0.72-0.32 0.72-0.72v-13.24c0-0.4-0.32-0.72-0.72-0.72zM24.4 13.84c0 0.32-0.28 0.6-0.6 0.6s-0.6-0.28-0.6-0.6v-2.2l-3.84 3.8c-0.040 0.040-0.080 0.040-0.12 0.080 0 0.080-0.040 0.12-0.12 0.2l-0.24 0.24c-0.16 0.16-0.44 0.16-0.6 0l-2.16-2.16-3.96 3.96c-0.24 0.24-0.6 0.24-0.84 0s-0.24-0.6 0-0.84l4.32-4.32c0.040-0.040 0.080-0.080 0.12-0.080l0.080-0.080c0.16-0.16 0.44-0.16 0.6 0l2.12 2.12 3.76-3.76h-2.2c-0.32 0-0.6-0.28-0.6-0.64 0-0.32 0.28-0.64 0.6-0.64l3.6-0.040v-0.040c0.32 0 0.6 0.52 0.6 0.52h0.080v3.88z"></path>
</svg>
