<?xml version="1.0" encoding="utf-8"?>
<!-- Generated by IcoMoon.io -->
<!DOCTYPE svg PUBLIC "-//W3C//DTD SVG 1.1//EN" "http://www.w3.org/Graphics/SVG/1.1/DTD/svg11.dtd">
<svg version="1.1" xmlns="http://www.w3.org/2000/svg" xmlns:xlink="http://www.w3.org/1999/xlink" width="32" height="32" viewBox="0 0 32 32">
<path d="M28.12 2.8h-23.96c-1.28 0-2.16 1.16-2.16 2.44v14.76c0 1.28 0.88 2.040 2.16 2.040h2.72l5.96 5.96c0.52 0.48 1 0.68 1.36 0.52 0.36-0.2 0.56-0.56 0.56-1.28v-5.24h13.28c1.28 0 2.28-0.76 2.28-2.040v-14.72c0.080-1.28-0.96-2.44-2.2-2.44zM10.2 8.76c0.16-0.16 0.4-0.36 0.64-0.36h1.84c0.28 0 0.48 0.16 0.68 0.36 0.16 0.16 0.24 0.4 0.24 0.68s-0.080 0.52-0.24 0.68c-0.16 0.16-0.4 0.28-0.68 0.28h-1.84c-0.24 0-0.44-0.12-0.64-0.28-0.16-0.16-0.28-0.44-0.28-0.72 0-0.24 0.12-0.48 0.28-0.64zM16.080 17.4c-0.16 0.16-0.4 0.2-0.68 0.2h-4.56c-0.24 0-0.44-0.040-0.64-0.2-0.16-0.16-0.28-0.36-0.28-0.64 0.040-0.24 0.12-0.56 0.28-0.76 0.16-0.16 0.4-0.4 0.64-0.4h4.6c0.28 0 0.48 0.24 0.68 0.44 0.16 0.16 0.24 0.44 0.24 0.68s-0.080 0.52-0.28 0.68zM18.84 13.76c-0.16 0.16-0.4 0.24-0.68 0.24h-7.32c-0.24 0-0.44-0.080-0.64-0.24-0.16-0.16-0.28-0.4-0.28-0.64 0.040-0.24 0.12-0.56 0.28-0.72s0.4-0.4 0.64-0.4h7.36c0.28 0 0.48 0.2 0.68 0.4 0.16 0.16 0.24 0.44 0.24 0.68s-0.080 0.52-0.28 0.68zM22.52 13.76c-0.16 0.16-0.4 0.24-0.68 0.24h-0.92c-0.24 0-0.44-0.080-0.64-0.24-0.16-0.16-0.28-0.4-0.28-0.64 0.040-0.24 0.12-0.56 0.28-0.72s0.4-0.4 0.64-0.4h0.92c0.28 0 0.48 0.2 0.68 0.4 0.16 0.16 0.24 0.44 0.24 0.68 0.040 0.24-0.040 0.52-0.24 0.68zM22.52 10.12c-0.16 0.16-0.4 0.28-0.68 0.28h-6.4c-0.24 0-0.44-0.12-0.64-0.28-0.16-0.16-0.28-0.4-0.28-0.68 0.040-0.24 0.12-0.52 0.28-0.68s0.4-0.36 0.64-0.36h6.44c0.28 0 0.48 0.16 0.68 0.36 0.16 0.16 0.24 0.44 0.24 0.68s-0.080 0.52-0.28 0.68z"></path>
</svg>
