<?xml version="1.0" encoding="utf-8"?>
<!-- Generated by IcoMoon.io -->
<!DOCTYPE svg PUBLIC "-//W3C//DTD SVG 1.1//EN" "http://www.w3.org/Graphics/SVG/1.1/DTD/svg11.dtd">
<svg version="1.1" xmlns="http://www.w3.org/2000/svg" xmlns:xlink="http://www.w3.org/1999/xlink" width="32" height="32" viewBox="0 0 32 32">
<path d="M23.32 11.88l-0.68-1c-0.12-0.16-0.4-0.32-0.6-0.32h-1.56v-1.36c0-0.2-0.12-0.48-0.28-0.64l-1.12-1.12c-0.16-0.16-0.44-0.28-0.64-0.28h-4.6c-0.2 0-0.48 0.12-0.64 0.28l-1.040 1.040c-0.16 0.16-0.28 0.44-0.28 0.64v1.44h-1.6c-0.2 0-0.48 0.16-0.6 0.32l-0.64 1c-0.12 0.16-0.040 0.32 0.16 0.32h1.12v12.2c0 0.2 0.16 0.36 0.36 0.36h11.040c0.2 0 0.36-0.16 0.36-0.36v-12.2h1.040c0.24 0 0.32-0.16 0.2-0.32zM13.48 10.48v-0.68c0-0.2 0.12-0.48 0.28-0.64l0.12-0.12c0.16-0.16 0.44-0.28 0.64-0.28h3.36c0.2 0 0.48 0.12 0.64 0.28l0.2 0.2c0.16 0.16 0.28 0.44 0.28 0.64v0.68h-5.52v-0.080zM20.56 12.56v10.28c0 0.2-0.16 0.36-0.36 0.36h-7.92c-0.2 0-0.36-0.16-0.36-0.36v-10.28c0-0.2 0.16-0.36 0.36-0.36h7.92c0.2 0 0.36 0.16 0.36 0.36zM13.8 13.24h-0.44c-0.2 0-0.36 0.16-0.36 0.36v8.16c0 0.2 0.16 0.36 0.36 0.36h0.44c0.2 0 0.36-0.16 0.36-0.36v-8.12c0-0.24-0.16-0.4-0.36-0.4zM15.96 22.16h0.44c0.2 0 0.36-0.16 0.36-0.36v-8.16c0-0.2-0.16-0.36-0.36-0.36h-0.44c-0.2 0-0.36 0.16-0.36 0.36v8.16c0 0.2 0.16 0.36 0.36 0.36zM18.6 22.16h0.44c0.2 0 0.36-0.16 0.36-0.36v-8.16c0-0.2-0.16-0.36-0.36-0.36h-0.44c-0.2 0-0.36 0.16-0.36 0.36v8.16c-0.040 0.2 0.12 0.36 0.36 0.36z"></path>
</svg>
