<?xml version="1.0" encoding="utf-8"?>
<!-- Generated by IcoMoon.io -->
<!DOCTYPE svg PUBLIC "-//W3C//DTD SVG 1.1//EN" "http://www.w3.org/Graphics/SVG/1.1/DTD/svg11.dtd">
<svg version="1.1" xmlns="http://www.w3.org/2000/svg" xmlns:xlink="http://www.w3.org/1999/xlink" width="32" height="32" viewBox="0 0 32 32">
<path d="M8.4 13.2c0 1.767 1.433 3.2 3.2 3.2s3.2-1.433 3.2-3.2c0-1.767-1.433-3.2-3.2-3.2s-3.2 1.433-3.2 3.2zM8.4 13.2c0 1.767 1.433 3.2 3.2 3.2s3.2-1.433 3.2-3.2c0-1.767-1.433-3.2-3.2-3.2s-3.2 1.433-3.2 3.2zM17.32 18.8c-0.080-0.44-0.48-0.88-0.88-1.040l-1.28-0.4c-0.4-0.12-1.080-0.080-1.48 0.12 0 0-1.040 0.52-2.080 0.52s-2.080-0.52-2.080-0.52c-0.4-0.2-1.040-0.24-1.48-0.12l-1.28 0.4c-0.4 0.12-0.84 0.6-0.88 1.040l-0.56 3.2c-0.080 0.44 0.24 0.8 0.68 0.8h11.2c0.44 0 0.76-0.36 0.68-0.8l-0.56-3.2zM22.64 5.040l-4.32 6.96 2.92 0.2-1.28 4.36 4.92-6.52-3.44-0.24z"></path>
</svg>
