<?xml version="1.0" encoding="utf-8"?>
<!-- Generated by IcoMoon.io -->
<!DOCTYPE svg PUBLIC "-//W3C//DTD SVG 1.1//EN" "http://www.w3.org/Graphics/SVG/1.1/DTD/svg11.dtd">
<svg version="1.1" xmlns="http://www.w3.org/2000/svg" xmlns:xlink="http://www.w3.org/1999/xlink" width="32" height="32" viewBox="0 0 32 32">
<path d="M9.2 13.2c0 1.767 1.433 3.2 3.2 3.2s3.2-1.433 3.2-3.2c0-1.767-1.433-3.2-3.2-3.2s-3.2 1.433-3.2 3.2zM9.2 13.2c0 1.767 1.433 3.2 3.2 3.2s3.2-1.433 3.2-3.2c0-1.767-1.433-3.2-3.2-3.2s-3.2 1.433-3.2 3.2zM18.12 18.8c-0.080-0.44-0.48-0.88-0.88-1.040l-1.28-0.4c-0.4-0.12-1.080-0.080-1.48 0.12 0 0-1.040 0.52-2.080 0.52s-2.080-0.52-2.080-0.52c-0.4-0.2-1.040-0.24-1.48-0.12l-1.28 0.4c-0.4 0.12-0.84 0.6-0.88 1.040l-0.56 3.2c-0.080 0.44 0.24 0.8 0.68 0.8h11.2c0.44 0 0.76-0.36 0.68-0.8l-0.56-3.2zM21.48 6c2.2 0 4 1.84 4 4.080s-1.8 4.080-4 4.080h-3.36l0.32-0.32c0.28-0.28 0.32-0.76 0.040-1.080-0.64-0.76-1-1.72-1-2.68 0-2.24 1.8-4.080 4-4.080M21.48 5.2c-2.64 0-4.8 2.2-4.8 4.88 0 1.24 0.44 2.36 1.2 3.2l-0.96 1c-0.36 0.4-0.24 0.72 0.28 0.72h4.32c2.64 0 4.8-2.2 4.8-4.88s-2.2-4.92-4.84-4.92zM19.52 9.68h4v0.8h-4zM19.52 11.28h2.4v0.8h-2.4z"></path>
</svg>
