<?xml version="1.0" encoding="utf-8"?>
<!-- Generated by IcoMoon.io -->
<!DOCTYPE svg PUBLIC "-//W3C//DTD SVG 1.1//EN" "http://www.w3.org/Graphics/SVG/1.1/DTD/svg11.dtd">
<svg version="1.1" xmlns="http://www.w3.org/2000/svg" xmlns:xlink="http://www.w3.org/1999/xlink" width="32" height="32" viewBox="0 0 32 32">
<path d="M20.4 24.4h-10.8c-1.32 0-2.4-1.080-2.4-2.4v-10.8c0-0.24 0.040-0.44 0.080-0.68-0.8 0.56-1.28 1.44-1.28 2.48v9.6c0 1.64 1.36 3 3 3h9.6c1.040 0 1.92-0.52 2.48-1.28-0.24 0.040-0.44 0.080-0.68 0.080zM21 8.8h-10.8c-1 0-1.8 0.8-1.8 1.8v10.8c0 1 0.8 1.8 1.8 1.8h10.8c1 0 1.8-0.8 1.8-1.8v-10.8c0-1-0.8-1.8-1.8-1.8zM10 20.4h4v1.2h-4zM10 18h5.6v1.2h-5.6zM10 10h5.6v6.8h-5.6zM16.8 17.2h4.4v4.4h-4.4zM16.8 10h4.4v1.2h-4.4zM16.8 12.4h4.4v1.2h-4.4zM16.8 14.8h2.8v1.2h-2.8z"></path>
</svg>
