<?xml version="1.0" encoding="utf-8"?>
<!-- Generated by IcoMoon.io -->
<!DOCTYPE svg PUBLIC "-//W3C//DTD SVG 1.1//EN" "http://www.w3.org/Graphics/SVG/1.1/DTD/svg11.dtd">
<svg version="1.1" xmlns="http://www.w3.org/2000/svg" xmlns:xlink="http://www.w3.org/1999/xlink" width="32" height="32" viewBox="0 0 32 32">
<path d="M22 20.96h-10.44c-0.92 0-1.68-0.76-1.68-1.68v-7.4l-3.72 1c-0.4 0.12-0.6 0.48-0.52 0.88l3.24 12.080c0.080 0.32 0.36 0.52 0.68 0.52 0.080 0 0.12 0 0.2-0.040l12.080-3.24c0.2-0.040 0.36-0.16 0.44-0.32s0.12-0.36 0.080-0.56l-0.36-1.24zM24.080 6h-12.56c-0.4 0-0.72 0.32-0.72 0.72v12.56c0 0.4 0.32 0.72 0.72 0.72h12.56c0.4 0 0.72-0.32 0.72-0.72v-12.56c0-0.4-0.32-0.72-0.72-0.72zM18.8 12h3.2v1.2h-3.2v-1.2zM16 18.8h-4v-1.2h4v1.2zM17.6 16.4h-5.6v-1.2h5.6v1.2zM17.6 14h-5.6v-6.8h5.6v6.8zM23.6 18.8h-4.8v-4.4h4.8v4.4zM23.6 10.8h-4.8v-1.2h4.8v1.2zM23.6 8.4h-4.8v-1.2h4.8v1.2z"></path>
</svg>
