<?xml version="1.0" encoding="utf-8"?>
<!-- Generated by IcoMoon.io -->
<!DOCTYPE svg PUBLIC "-//W3C//DTD SVG 1.1//EN" "http://www.w3.org/Graphics/SVG/1.1/DTD/svg11.dtd">
<svg version="1.1" xmlns="http://www.w3.org/2000/svg" xmlns:xlink="http://www.w3.org/1999/xlink" width="32" height="32" viewBox="0 0 32 32">
<path d="M18.72 16.2c0.52-0.52 1.32-0.6 2.2-0.6h0.24c0.64-0.040 1.28-0.2 1.84-0.52 0.36-0.2 0.64-0.44 0.96-0.72 0.84-0.84 1.44-2.040 1.56-3.28 0-0.12-0.040-0.24-0.16-0.32s-0.24-0.080-0.36 0l-3.080 1.76-0.080 0.040c-0.16 0.040-0.56 0.16-1.12-0.4-0.16-0.16-0.36-0.4-0.56-0.72-0.72-1.32-0.32-1.72-0.16-1.92 0.080-0.080 0.12-0.080 0.12-0.080l3.080-1.84c0.12-0.080 0.16-0.2 0.16-0.32s-0.080-0.24-0.2-0.28c-1.48-0.68-3.32-0.64-4.72 0.16-0.32 0.2-0.6 0.4-0.84 0.64-0.8 0.8-1.2 1.84-1.24 2.96 0 1-0.080 1.88-0.64 2.44l-2.64 2.64c-0.52 0.52-1.32 0.6-2.2 0.6h-0.24c-0.64 0.040-1.28 0.2-1.84 0.52-0.32 0.2-0.64 0.44-0.96 0.72-0.84 0.88-1.44 2.040-1.56 3.28 0 0.12 0.040 0.24 0.16 0.32s0.24 0.080 0.36 0l3.080-1.76 0.080-0.040c0.16-0.040 0.56-0.16 1.12 0.4 0.16 0.16 0.36 0.4 0.56 0.72 0.72 1.32 0.32 1.72 0.16 1.92-0.080 0.080-0.12 0.080-0.080 0.080l-3.12 1.8c-0.12 0.080-0.16 0.2-0.16 0.32s0.080 0.24 0.2 0.28c1.48 0.68 3.32 0.64 4.72-0.16 0.32-0.2 0.6-0.4 0.84-0.64 0.8-0.8 1.2-1.84 1.24-2.96-0.040-1 0.080-1.88 0.64-2.44l2.64-2.6z"></path>
</svg>
