<?xml version="1.0" encoding="utf-8"?>
<!-- Generated by IcoMoon.io -->
<!DOCTYPE svg PUBLIC "-//W3C//DTD SVG 1.1//EN" "http://www.w3.org/Graphics/SVG/1.1/DTD/svg11.dtd">
<svg version="1.1" xmlns="http://www.w3.org/2000/svg" xmlns:xlink="http://www.w3.org/1999/xlink" width="32" height="32" viewBox="0 0 32 32">
<path d="M17.76 16.12c0.36-0.32 0.88-0.4 1.48-0.4h0.16c0.44-0.040 0.84-0.12 1.24-0.36 0.24-0.12 0.44-0.28 0.64-0.48 0.56-0.56 0.96-1.36 1.040-2.2 0-0.080-0.040-0.16-0.12-0.2s-0.16-0.040-0.24 0l-2.040 1.16h-0.040c-0.12 0.040-0.36 0.080-0.76-0.28-0.12-0.12-0.24-0.28-0.36-0.48-0.48-0.88-0.24-1.16-0.12-1.28 0.040-0.040 0.080-0.040 0.080-0.040l2.040-1.2c0.080-0.040 0.12-0.12 0.12-0.2s-0.040-0.16-0.12-0.2c-1-0.44-2.24-0.44-3.16 0.080-0.2 0.12-0.4 0.28-0.56 0.44-0.52 0.52-0.8 1.24-0.84 1.96 0 0.68-0.040 1.28-0.44 1.64l-1.76 1.76c-0.36 0.32-0.88 0.4-1.48 0.4h-0.16c-0.44 0.040-0.84 0.12-1.24 0.36-0.24 0.12-0.44 0.28-0.64 0.48-0.56 0.56-0.96 1.36-1.040 2.2 0 0.080 0.040 0.16 0.12 0.2s0.16 0.040 0.24 0l2.040-1.16h0.040c0.12-0.040 0.36-0.080 0.76 0.28 0.12 0.12 0.24 0.28 0.36 0.48 0.48 0.88 0.24 1.16 0.12 1.28 0 0.040-0.040 0.040-0.040 0.040l-2.040 1.2c-0.080 0.040-0.12 0.12-0.12 0.2s0.040 0.16 0.12 0.2c1 0.44 2.24 0.44 3.16-0.080 0.2-0.12 0.4-0.28 0.56-0.44 0.52-0.52 0.8-1.24 0.84-1.96 0-0.68 0.040-1.28 0.44-1.64l1.72-1.76z"></path>
</svg>
